G75*
%MOIN*%
%OFA0B0*%
%FSLAX25Y25*%
%IPPOS*%
%LPD*%
%AMOC8*
5,1,8,0,0,1.08239X$1,22.5*
%
%ADD10C,0.01000*%
%ADD11C,0.00400*%
%ADD12C,0.00800*%
%ADD13R,0.02800X0.01600*%
D10*
X0006396Y0002129D02*
X0006396Y0124491D01*
X0084979Y0124491D01*
X0084979Y0002129D01*
X0006396Y0002129D01*
X0064500Y0035999D02*
X0067500Y0035999D01*
D11*
X0070700Y0048099D02*
X0070700Y0049300D01*
X0070700Y0048699D02*
X0074303Y0048699D01*
X0074303Y0048099D02*
X0074303Y0049300D01*
X0073703Y0050554D02*
X0071301Y0050554D01*
X0070700Y0051155D01*
X0070700Y0052356D01*
X0071301Y0052956D01*
X0070700Y0054237D02*
X0073102Y0056639D01*
X0073703Y0056639D01*
X0074303Y0056039D01*
X0074303Y0054838D01*
X0073703Y0054237D01*
X0073703Y0052956D02*
X0074303Y0052356D01*
X0074303Y0051155D01*
X0073703Y0050554D01*
X0070700Y0054237D02*
X0070700Y0056639D01*
X0076700Y0064733D02*
X0080303Y0064733D01*
X0080303Y0066534D01*
X0079703Y0067135D01*
X0078502Y0067135D01*
X0077901Y0066534D01*
X0077901Y0064733D01*
X0077901Y0065934D02*
X0076700Y0067135D01*
X0077301Y0068416D02*
X0076700Y0069016D01*
X0076700Y0070217D01*
X0077301Y0070818D01*
X0078502Y0070818D01*
X0079102Y0070217D01*
X0079102Y0069617D01*
X0078502Y0068416D01*
X0080303Y0068416D01*
X0080303Y0070818D01*
X0029300Y0007802D02*
X0029300Y0004199D01*
X0027498Y0004199D01*
X0026898Y0004799D01*
X0026898Y0005400D01*
X0027498Y0006000D01*
X0029300Y0006000D01*
X0029300Y0007802D02*
X0027498Y0007802D01*
X0026898Y0007201D01*
X0026898Y0006601D01*
X0027498Y0006000D01*
X0025617Y0004799D02*
X0025016Y0005400D01*
X0023215Y0005400D01*
X0023215Y0006000D02*
X0023215Y0004199D01*
X0025016Y0004199D01*
X0025617Y0004799D01*
X0025016Y0006601D02*
X0023815Y0006601D01*
X0023215Y0006000D01*
X0021934Y0006601D02*
X0020733Y0006601D01*
X0021333Y0007201D02*
X0021333Y0004799D01*
X0020733Y0004199D01*
X0019478Y0006601D02*
X0018277Y0006601D01*
X0018878Y0007201D02*
X0018878Y0004799D01*
X0018277Y0004199D01*
X0017023Y0004799D02*
X0017023Y0006000D01*
X0016422Y0006601D01*
X0015221Y0006601D01*
X0014621Y0006000D01*
X0014621Y0005400D01*
X0017023Y0005400D01*
X0017023Y0004799D02*
X0016422Y0004199D01*
X0015221Y0004199D01*
X0013340Y0004199D02*
X0013340Y0006601D01*
X0013340Y0005400D02*
X0012139Y0006601D01*
X0011538Y0006601D01*
X0010270Y0006601D02*
X0010270Y0004799D01*
X0009670Y0004199D01*
X0007868Y0004199D01*
X0007868Y0003598D02*
X0008469Y0002998D01*
X0009069Y0002998D01*
X0007868Y0003598D02*
X0007868Y0006601D01*
D12*
X0007791Y0047235D02*
X0007791Y0076763D01*
X0069209Y0076763D01*
X0069209Y0047235D01*
X0007791Y0047235D01*
X0029839Y0102582D02*
X0029839Y0116362D01*
X0032989Y0112425D02*
X0032989Y0102582D01*
X0029839Y0102582D01*
X0034688Y0107496D02*
X0037490Y0107496D01*
X0036089Y0106095D02*
X0036089Y0108897D01*
X0037713Y0112425D02*
X0032989Y0112425D01*
X0037713Y0132110D02*
X0053461Y0132110D01*
X0061335Y0116362D02*
X0061335Y0102582D01*
X0058186Y0102582D01*
X0058186Y0112425D01*
X0053461Y0112425D01*
X0052989Y0107801D02*
X0055791Y0107801D01*
X0056000Y0002199D02*
X0055000Y0002199D01*
D13*
X0074200Y0067599D03*
M02*
