G75*
%MOIN*%
%OFA0B0*%
%FSLAX25Y25*%
%IPPOS*%
%LPD*%
%AMOC8*
5,1,8,0,0,1.08239X$1,22.5*
%
%ADD10C,0.00000*%
%ADD11R,0.02756X0.03543*%
%ADD12R,0.02400X0.08700*%
%ADD13C,0.05600*%
%ADD14C,0.06800*%
%ADD15C,0.12661*%
%ADD16C,0.01200*%
%ADD17C,0.00800*%
%ADD18C,0.04362*%
%ADD19C,0.04000*%
D10*
X0001900Y0002499D02*
X0001900Y0132459D01*
X0001902Y0132519D01*
X0001907Y0132580D01*
X0001916Y0132639D01*
X0001929Y0132698D01*
X0001945Y0132757D01*
X0001965Y0132814D01*
X0001988Y0132869D01*
X0002015Y0132924D01*
X0002044Y0132976D01*
X0002077Y0133027D01*
X0002113Y0133076D01*
X0002151Y0133122D01*
X0002193Y0133166D01*
X0002237Y0133208D01*
X0002283Y0133246D01*
X0002332Y0133282D01*
X0002383Y0133315D01*
X0002435Y0133344D01*
X0002490Y0133371D01*
X0002545Y0133394D01*
X0002602Y0133414D01*
X0002661Y0133430D01*
X0002720Y0133443D01*
X0002779Y0133452D01*
X0002840Y0133457D01*
X0002900Y0133459D01*
X0088599Y0133459D01*
X0088599Y0133460D02*
X0088656Y0133458D01*
X0088713Y0133453D01*
X0088770Y0133443D01*
X0088826Y0133430D01*
X0088881Y0133414D01*
X0088934Y0133393D01*
X0088986Y0133370D01*
X0089037Y0133343D01*
X0089086Y0133312D01*
X0089132Y0133279D01*
X0089177Y0133243D01*
X0089218Y0133203D01*
X0089258Y0133162D01*
X0089294Y0133117D01*
X0089327Y0133071D01*
X0089358Y0133022D01*
X0089385Y0132971D01*
X0089408Y0132919D01*
X0089429Y0132866D01*
X0089445Y0132811D01*
X0089458Y0132755D01*
X0089468Y0132698D01*
X0089473Y0132641D01*
X0089475Y0132584D01*
X0089475Y0002499D01*
X0089473Y0002439D01*
X0089468Y0002378D01*
X0089459Y0002319D01*
X0089446Y0002260D01*
X0089430Y0002201D01*
X0089410Y0002144D01*
X0089387Y0002089D01*
X0089360Y0002034D01*
X0089331Y0001982D01*
X0089298Y0001931D01*
X0089262Y0001882D01*
X0089224Y0001836D01*
X0089182Y0001792D01*
X0089138Y0001750D01*
X0089092Y0001712D01*
X0089043Y0001676D01*
X0088992Y0001643D01*
X0088940Y0001614D01*
X0088885Y0001587D01*
X0088830Y0001564D01*
X0088773Y0001544D01*
X0088714Y0001528D01*
X0088655Y0001515D01*
X0088596Y0001506D01*
X0088535Y0001501D01*
X0088475Y0001499D01*
X0002900Y0001499D01*
X0002840Y0001501D01*
X0002779Y0001506D01*
X0002720Y0001515D01*
X0002661Y0001528D01*
X0002602Y0001544D01*
X0002545Y0001564D01*
X0002490Y0001587D01*
X0002435Y0001614D01*
X0002383Y0001643D01*
X0002332Y0001676D01*
X0002283Y0001712D01*
X0002237Y0001750D01*
X0002193Y0001792D01*
X0002151Y0001836D01*
X0002113Y0001882D01*
X0002077Y0001931D01*
X0002044Y0001982D01*
X0002015Y0002034D01*
X0001988Y0002089D01*
X0001965Y0002144D01*
X0001945Y0002201D01*
X0001929Y0002260D01*
X0001916Y0002319D01*
X0001907Y0002378D01*
X0001902Y0002439D01*
X0001900Y0002499D01*
D11*
X0073241Y0105499D03*
X0078359Y0105499D03*
D12*
X0079100Y0072499D03*
X0074100Y0072499D03*
X0069100Y0072499D03*
X0064100Y0072499D03*
X0064100Y0045999D03*
X0069100Y0045999D03*
X0074100Y0045999D03*
X0079100Y0045999D03*
D13*
X0080000Y0017199D03*
X0080000Y0007199D03*
X0070000Y0007199D03*
X0070000Y0017199D03*
X0060000Y0017199D03*
X0060000Y0007199D03*
D14*
X0060964Y0032271D03*
X0070806Y0032271D03*
X0080649Y0032271D03*
X0051121Y0032271D03*
X0041279Y0032271D03*
X0031436Y0032271D03*
X0021594Y0032271D03*
X0011751Y0032271D03*
X0011751Y0091326D03*
X0021594Y0091326D03*
X0031436Y0091326D03*
X0041279Y0091326D03*
X0051121Y0091326D03*
X0060964Y0091326D03*
X0070806Y0091326D03*
X0080649Y0091326D03*
D15*
X0080300Y0124799D03*
X0011000Y0124699D03*
D16*
X0014822Y0117754D02*
X0006932Y0117754D01*
X0007331Y0117514D02*
X0006249Y0118166D01*
X0005286Y0118985D01*
X0004467Y0119948D01*
X0003815Y0121030D01*
X0003345Y0122203D01*
X0003071Y0123437D01*
X0003000Y0124699D01*
X0002500Y0132699D01*
X0019500Y0132699D01*
X0019000Y0124699D01*
X0018879Y0123456D01*
X0018571Y0122246D01*
X0018081Y0121098D01*
X0017423Y0120037D01*
X0016610Y0119089D01*
X0015662Y0118276D01*
X0014601Y0117618D01*
X0013453Y0117128D01*
X0012243Y0116819D01*
X0011000Y0116699D01*
X0009738Y0116770D01*
X0008504Y0117044D01*
X0007331Y0117514D01*
X0005323Y0118953D02*
X0016451Y0118953D01*
X0017494Y0120151D02*
X0004344Y0120151D01*
X0003687Y0121350D02*
X0018189Y0121350D01*
X0018648Y0122548D02*
X0003269Y0122548D01*
X0003054Y0123747D02*
X0018908Y0123747D01*
X0019015Y0124946D02*
X0002985Y0124946D01*
X0002910Y0126144D02*
X0019090Y0126144D01*
X0019165Y0127343D02*
X0002835Y0127343D01*
X0002760Y0128541D02*
X0019240Y0128541D01*
X0019315Y0129740D02*
X0002685Y0129740D01*
X0002610Y0130938D02*
X0019390Y0130938D01*
X0019465Y0132137D02*
X0002535Y0132137D01*
X0071800Y0132799D02*
X0088800Y0132799D01*
X0088300Y0124799D01*
X0088179Y0123556D01*
X0087871Y0122346D01*
X0087381Y0121198D01*
X0086723Y0120137D01*
X0085910Y0119189D01*
X0084962Y0118376D01*
X0083901Y0117718D01*
X0082753Y0117228D01*
X0081543Y0116919D01*
X0080300Y0116799D01*
X0079038Y0116870D01*
X0077804Y0117144D01*
X0076631Y0117614D01*
X0075549Y0118266D01*
X0074586Y0119085D01*
X0073767Y0120048D01*
X0073115Y0121130D01*
X0072645Y0122303D01*
X0072371Y0123537D01*
X0072300Y0124799D01*
X0071800Y0132799D01*
X0071841Y0132137D02*
X0088759Y0132137D01*
X0088684Y0130938D02*
X0071916Y0130938D01*
X0071991Y0129740D02*
X0088609Y0129740D01*
X0088534Y0128541D02*
X0072066Y0128541D01*
X0072141Y0127343D02*
X0088459Y0127343D01*
X0088384Y0126144D02*
X0072216Y0126144D01*
X0072291Y0124946D02*
X0088309Y0124946D01*
X0088198Y0123747D02*
X0072360Y0123747D01*
X0072591Y0122548D02*
X0087922Y0122548D01*
X0087446Y0121350D02*
X0073027Y0121350D01*
X0073705Y0120151D02*
X0086732Y0120151D01*
X0085634Y0118953D02*
X0074741Y0118953D01*
X0076398Y0117754D02*
X0083961Y0117754D01*
D17*
X0084734Y0116116D02*
X0085293Y0116354D01*
X0085351Y0116499D01*
X0085411Y0116537D01*
X0085568Y0116525D01*
X0086029Y0116920D01*
X0086545Y0117241D01*
X0086581Y0117393D01*
X0086634Y0117439D01*
X0086791Y0117451D01*
X0087186Y0117913D01*
X0087647Y0118308D01*
X0087659Y0118464D01*
X0087705Y0118518D01*
X0087858Y0118554D01*
X0088179Y0119070D01*
X0088275Y0119182D01*
X0088275Y0002699D01*
X0067763Y0002699D01*
X0068539Y0003475D01*
X0069204Y0003199D01*
X0070796Y0003199D01*
X0072266Y0003808D01*
X0073391Y0004933D01*
X0074000Y0006403D01*
X0074000Y0007995D01*
X0073391Y0009465D01*
X0072266Y0010590D01*
X0072003Y0010699D01*
X0077997Y0010699D01*
X0077734Y0010590D01*
X0076609Y0009465D01*
X0076000Y0007995D01*
X0076000Y0006403D01*
X0076609Y0004933D01*
X0077734Y0003808D01*
X0079204Y0003199D01*
X0080796Y0003199D01*
X0082266Y0003808D01*
X0083391Y0004933D01*
X0084000Y0006403D01*
X0084000Y0007995D01*
X0083391Y0009465D01*
X0082266Y0010590D01*
X0082003Y0010699D01*
X0084763Y0010699D01*
X0087163Y0013099D01*
X0088100Y0014036D01*
X0088100Y0035162D01*
X0085800Y0037462D01*
X0085800Y0039335D01*
X0087063Y0040594D01*
X0087064Y0040594D01*
X0087530Y0041059D01*
X0088001Y0041528D01*
X0088001Y0041530D01*
X0088002Y0041531D01*
X0088002Y0042187D01*
X0088003Y0042854D01*
X0088002Y0042855D01*
X0088000Y0077482D01*
X0088014Y0078127D01*
X0088000Y0078142D01*
X0088000Y0078162D01*
X0087543Y0078618D01*
X0085700Y0080542D01*
X0085700Y0080562D01*
X0085243Y0081018D01*
X0084797Y0081484D01*
X0084777Y0081485D01*
X0084763Y0081499D01*
X0084117Y0081499D01*
X0083471Y0081513D01*
X0083457Y0081499D01*
X0075237Y0081499D01*
X0074300Y0080562D01*
X0073698Y0079959D01*
X0074181Y0081126D01*
X0074181Y0082471D01*
X0073666Y0083714D01*
X0072715Y0084665D01*
X0071473Y0085180D01*
X0070127Y0085180D01*
X0068885Y0084665D01*
X0067934Y0083714D01*
X0067803Y0083399D01*
X0064137Y0083399D01*
X0063200Y0082462D01*
X0062564Y0081825D01*
X0062564Y0087010D01*
X0063569Y0087427D01*
X0064863Y0088721D01*
X0065564Y0090411D01*
X0065564Y0092241D01*
X0064863Y0093932D01*
X0063569Y0095226D01*
X0061879Y0095926D01*
X0060049Y0095926D01*
X0058358Y0095226D01*
X0057064Y0093932D01*
X0056364Y0092241D01*
X0056364Y0090411D01*
X0057064Y0088721D01*
X0058358Y0087427D01*
X0059364Y0087010D01*
X0059364Y0075717D01*
X0058515Y0076565D01*
X0057273Y0077080D01*
X0055927Y0077080D01*
X0054685Y0076565D01*
X0053734Y0075614D01*
X0053594Y0075278D01*
X0045488Y0075220D01*
X0045366Y0075514D01*
X0044415Y0076465D01*
X0043173Y0076980D01*
X0041827Y0076980D01*
X0040585Y0076465D01*
X0039634Y0075514D01*
X0039119Y0074271D01*
X0039119Y0072926D01*
X0039634Y0071684D01*
X0040585Y0070732D01*
X0041827Y0070218D01*
X0043173Y0070218D01*
X0044415Y0070732D01*
X0045366Y0071684D01*
X0045506Y0072020D01*
X0053612Y0072078D01*
X0053734Y0071784D01*
X0054685Y0070832D01*
X0055927Y0070318D01*
X0057273Y0070318D01*
X0058515Y0070832D01*
X0059364Y0071681D01*
X0059364Y0069025D01*
X0057837Y0067499D01*
X0039014Y0067499D01*
X0039481Y0068626D01*
X0039481Y0069971D01*
X0038966Y0071214D01*
X0038015Y0072165D01*
X0037700Y0072296D01*
X0037700Y0078136D01*
X0038463Y0078899D01*
X0050263Y0078899D01*
X0051200Y0079836D01*
X0051891Y0080527D01*
X0051901Y0080527D01*
X0052359Y0080995D01*
X0052821Y0081457D01*
X0052821Y0081468D01*
X0052828Y0081475D01*
X0052821Y0082128D01*
X0052821Y0082783D01*
X0052814Y0082790D01*
X0052768Y0087030D01*
X0053727Y0087427D01*
X0055021Y0088721D01*
X0055721Y0090411D01*
X0055721Y0092241D01*
X0055021Y0093932D01*
X0053727Y0095226D01*
X0052036Y0095926D01*
X0050206Y0095926D01*
X0048516Y0095226D01*
X0047222Y0093932D01*
X0046521Y0092241D01*
X0046521Y0090411D01*
X0047222Y0088721D01*
X0048516Y0087427D01*
X0049568Y0086991D01*
X0049614Y0082776D01*
X0048937Y0082099D01*
X0037137Y0082099D01*
X0035437Y0080399D01*
X0034500Y0079462D01*
X0034500Y0072296D01*
X0034185Y0072165D01*
X0033234Y0071214D01*
X0032719Y0069971D01*
X0032719Y0068626D01*
X0033186Y0067499D01*
X0019263Y0067499D01*
X0018751Y0068011D01*
X0018881Y0068326D01*
X0018881Y0069671D01*
X0018366Y0070914D01*
X0017415Y0071865D01*
X0016173Y0072380D01*
X0014827Y0072380D01*
X0013585Y0071865D01*
X0012634Y0070914D01*
X0012119Y0069671D01*
X0012119Y0068326D01*
X0012478Y0067459D01*
X0011285Y0066965D01*
X0010334Y0066014D01*
X0010286Y0065899D01*
X0008637Y0065899D01*
X0004100Y0061362D01*
X0004100Y0006036D01*
X0005037Y0005099D01*
X0007437Y0002699D01*
X0003100Y0002699D01*
X0003100Y0118729D01*
X0003311Y0118380D01*
X0003471Y0118340D01*
X0003539Y0118261D01*
X0003552Y0118096D01*
X0004009Y0117708D01*
X0004397Y0117251D01*
X0004562Y0117237D01*
X0004641Y0117170D01*
X0004681Y0117009D01*
X0005194Y0116700D01*
X0005651Y0116312D01*
X0005816Y0116325D01*
X0005905Y0116272D01*
X0005970Y0116119D01*
X0006527Y0115897D01*
X0007040Y0115587D01*
X0007201Y0115627D01*
X0007297Y0115589D01*
X0007386Y0115449D01*
X0007972Y0115319D01*
X0008528Y0115096D01*
X0008680Y0115161D01*
X0008782Y0115139D01*
X0008892Y0115015D01*
X0009491Y0114981D01*
X0010076Y0114852D01*
X0010215Y0114940D01*
X0010311Y0114935D01*
X0010432Y0114835D01*
X0011036Y0114894D01*
X0011643Y0114860D01*
X0011760Y0114964D01*
X0011830Y0114971D01*
X0011965Y0114891D01*
X0012554Y0115041D01*
X0013159Y0115100D01*
X0013258Y0115221D01*
X0013327Y0115238D01*
X0013472Y0115180D01*
X0014031Y0115418D01*
X0014620Y0115568D01*
X0014700Y0115703D01*
X0014765Y0115731D01*
X0014918Y0115695D01*
X0015434Y0116016D01*
X0015993Y0116254D01*
X0016051Y0116399D01*
X0016111Y0116437D01*
X0016268Y0116425D01*
X0016729Y0116820D01*
X0017245Y0117141D01*
X0017281Y0117293D01*
X0017334Y0117339D01*
X0017491Y0117351D01*
X0017886Y0117813D01*
X0018347Y0118208D01*
X0018359Y0118364D01*
X0018405Y0118418D01*
X0018558Y0118454D01*
X0018879Y0118970D01*
X0019274Y0119431D01*
X0019262Y0119587D01*
X0019300Y0119648D01*
X0019445Y0119706D01*
X0019683Y0120265D01*
X0020004Y0120781D01*
X0019968Y0120934D01*
X0019996Y0120999D01*
X0020131Y0121079D01*
X0020281Y0121668D01*
X0020519Y0122227D01*
X0020460Y0122372D01*
X0020478Y0122441D01*
X0020599Y0122540D01*
X0020658Y0123145D01*
X0020808Y0123734D01*
X0020746Y0123839D01*
X0020750Y0123842D01*
X0020795Y0124556D01*
X0020864Y0125267D01*
X0020841Y0125295D01*
X0021254Y0131907D01*
X0021300Y0131953D01*
X0021300Y0132259D01*
X0070000Y0132259D01*
X0070000Y0132053D01*
X0070046Y0132007D01*
X0070503Y0124691D01*
X0070542Y0124014D01*
X0070453Y0123875D01*
X0070583Y0123289D01*
X0070617Y0122691D01*
X0070740Y0122581D01*
X0070763Y0122479D01*
X0070697Y0122327D01*
X0070920Y0121770D01*
X0071050Y0121185D01*
X0071190Y0121096D01*
X0071228Y0121000D01*
X0071188Y0120839D01*
X0071498Y0120326D01*
X0071721Y0119769D01*
X0071873Y0119704D01*
X0071926Y0119615D01*
X0071913Y0119450D01*
X0072301Y0118993D01*
X0072611Y0118480D01*
X0072771Y0118440D01*
X0072839Y0118361D01*
X0072852Y0118196D01*
X0073309Y0117808D01*
X0073697Y0117351D01*
X0073862Y0117337D01*
X0073941Y0117270D01*
X0073981Y0117109D01*
X0074494Y0116800D01*
X0074951Y0116412D01*
X0075116Y0116425D01*
X0075205Y0116372D01*
X0075270Y0116219D01*
X0075827Y0115997D01*
X0076340Y0115687D01*
X0076501Y0115727D01*
X0076597Y0115689D01*
X0076686Y0115549D01*
X0077272Y0115419D01*
X0077828Y0115196D01*
X0077980Y0115261D01*
X0078082Y0115239D01*
X0078192Y0115115D01*
X0078791Y0115081D01*
X0079376Y0114952D01*
X0079515Y0115040D01*
X0079611Y0115035D01*
X0079732Y0114935D01*
X0080336Y0114994D01*
X0080943Y0114960D01*
X0081060Y0115064D01*
X0081130Y0115071D01*
X0081265Y0114991D01*
X0081854Y0115141D01*
X0082459Y0115200D01*
X0082558Y0115321D01*
X0082627Y0115338D01*
X0082772Y0115280D01*
X0083331Y0115518D01*
X0083920Y0115668D01*
X0084000Y0115803D01*
X0084065Y0115831D01*
X0084218Y0115795D01*
X0084734Y0116116D01*
X0085345Y0116484D02*
X0088275Y0116484D01*
X0088275Y0115686D02*
X0083930Y0115686D01*
X0086555Y0117283D02*
X0088275Y0117283D01*
X0088275Y0118082D02*
X0087383Y0118082D01*
X0088061Y0118880D02*
X0088275Y0118880D01*
X0088275Y0114887D02*
X0011674Y0114887D01*
X0011150Y0114887D02*
X0010970Y0114887D01*
X0010368Y0114887D02*
X0010132Y0114887D01*
X0009914Y0114887D02*
X0003100Y0114887D01*
X0003100Y0114089D02*
X0088275Y0114089D01*
X0088275Y0113290D02*
X0003100Y0113290D01*
X0003100Y0112492D02*
X0088275Y0112492D01*
X0088275Y0111693D02*
X0072668Y0111693D01*
X0072463Y0111899D02*
X0068942Y0111899D01*
X0068927Y0111913D01*
X0068282Y0111899D01*
X0067637Y0111899D01*
X0067623Y0111884D01*
X0067602Y0111884D01*
X0067156Y0111418D01*
X0067017Y0111279D01*
X0066773Y0111380D01*
X0065427Y0111380D01*
X0064185Y0110865D01*
X0063234Y0109914D01*
X0062719Y0108671D01*
X0062719Y0107326D01*
X0063234Y0106084D01*
X0064185Y0105132D01*
X0065427Y0104618D01*
X0066773Y0104618D01*
X0068015Y0105132D01*
X0068966Y0106084D01*
X0069481Y0107326D01*
X0069481Y0108671D01*
X0069470Y0108699D01*
X0071137Y0108699D01*
X0071366Y0108470D01*
X0070663Y0107768D01*
X0070663Y0103230D01*
X0071366Y0102527D01*
X0075116Y0102527D01*
X0075713Y0103124D01*
X0075861Y0102868D01*
X0076121Y0102607D01*
X0076441Y0102423D01*
X0076797Y0102327D01*
X0078070Y0102327D01*
X0078070Y0105210D01*
X0078648Y0105210D01*
X0078648Y0105788D01*
X0078070Y0105788D01*
X0078070Y0108670D01*
X0076797Y0108670D01*
X0076441Y0108575D01*
X0076121Y0108391D01*
X0075861Y0108130D01*
X0075713Y0107874D01*
X0075116Y0108470D01*
X0074841Y0108470D01*
X0074841Y0109521D01*
X0073400Y0110962D01*
X0072463Y0111899D01*
X0073467Y0110895D02*
X0088275Y0110895D01*
X0088275Y0110096D02*
X0074265Y0110096D01*
X0074841Y0109298D02*
X0088275Y0109298D01*
X0088275Y0108499D02*
X0080409Y0108499D01*
X0080277Y0108575D02*
X0079921Y0108670D01*
X0078648Y0108670D01*
X0078648Y0105788D01*
X0081137Y0105788D01*
X0081137Y0107455D01*
X0081042Y0107811D01*
X0080857Y0108130D01*
X0080597Y0108391D01*
X0080277Y0108575D01*
X0081071Y0107701D02*
X0088275Y0107701D01*
X0088275Y0106902D02*
X0081137Y0106902D01*
X0081137Y0106104D02*
X0088275Y0106104D01*
X0088275Y0105305D02*
X0078648Y0105305D01*
X0078600Y0105258D02*
X0078359Y0105499D01*
X0078600Y0105258D02*
X0078600Y0102899D01*
X0077000Y0101299D01*
X0063800Y0101299D01*
X0064012Y0105305D02*
X0003100Y0105305D01*
X0003100Y0104507D02*
X0070663Y0104507D01*
X0070663Y0105305D02*
X0068188Y0105305D01*
X0068975Y0106104D02*
X0070663Y0106104D01*
X0070663Y0106902D02*
X0069305Y0106902D01*
X0069481Y0107701D02*
X0070663Y0107701D01*
X0071337Y0108499D02*
X0069481Y0108499D01*
X0068300Y0110299D02*
X0066100Y0107999D01*
X0064256Y0110895D02*
X0003100Y0110895D01*
X0003100Y0111693D02*
X0067420Y0111693D01*
X0068300Y0110299D02*
X0071800Y0110299D01*
X0073241Y0108858D01*
X0073241Y0105499D01*
X0074841Y0108499D02*
X0076310Y0108499D01*
X0078070Y0108499D02*
X0078648Y0108499D01*
X0078648Y0107701D02*
X0078070Y0107701D01*
X0078070Y0106902D02*
X0078648Y0106902D01*
X0078648Y0106104D02*
X0078070Y0106104D01*
X0078648Y0105210D02*
X0081137Y0105210D01*
X0081137Y0103543D01*
X0081042Y0103187D01*
X0080857Y0102868D01*
X0080597Y0102607D01*
X0080277Y0102423D01*
X0079921Y0102327D01*
X0078648Y0102327D01*
X0078648Y0105210D01*
X0078648Y0104507D02*
X0078070Y0104507D01*
X0078070Y0103708D02*
X0078648Y0103708D01*
X0078648Y0102910D02*
X0078070Y0102910D01*
X0075836Y0102910D02*
X0075499Y0102910D01*
X0070983Y0102910D02*
X0003100Y0102910D01*
X0003100Y0103708D02*
X0070663Y0103708D01*
X0069891Y0095926D02*
X0068201Y0095226D01*
X0066907Y0093932D01*
X0066206Y0092241D01*
X0066206Y0090411D01*
X0066907Y0088721D01*
X0068201Y0087427D01*
X0069891Y0086726D01*
X0071721Y0086726D01*
X0073412Y0087427D01*
X0074706Y0088721D01*
X0075406Y0090411D01*
X0075406Y0092241D01*
X0074706Y0093932D01*
X0073412Y0095226D01*
X0071721Y0095926D01*
X0069891Y0095926D01*
X0069401Y0095723D02*
X0062369Y0095723D01*
X0063871Y0094925D02*
X0067899Y0094925D01*
X0067101Y0094126D02*
X0064669Y0094126D01*
X0065114Y0093328D02*
X0066656Y0093328D01*
X0066325Y0092529D02*
X0065445Y0092529D01*
X0065564Y0091731D02*
X0066206Y0091731D01*
X0066206Y0090932D02*
X0065564Y0090932D01*
X0065449Y0090134D02*
X0066321Y0090134D01*
X0066652Y0089335D02*
X0065118Y0089335D01*
X0064679Y0088537D02*
X0067091Y0088537D01*
X0067889Y0087738D02*
X0063881Y0087738D01*
X0062564Y0086940D02*
X0069377Y0086940D01*
X0068764Y0084544D02*
X0062564Y0084544D01*
X0062564Y0083746D02*
X0067965Y0083746D01*
X0070800Y0081799D02*
X0064800Y0081799D01*
X0064100Y0081099D01*
X0064100Y0072499D01*
X0066500Y0072566D02*
X0066700Y0072566D01*
X0066700Y0071768D02*
X0066500Y0071768D01*
X0066500Y0070969D02*
X0066700Y0070969D01*
X0066700Y0070171D02*
X0066500Y0070171D01*
X0066500Y0069372D02*
X0066700Y0069372D01*
X0066700Y0068574D02*
X0066500Y0068574D01*
X0066500Y0067775D02*
X0066700Y0067775D01*
X0066700Y0067652D02*
X0067403Y0066949D01*
X0067500Y0066949D01*
X0067500Y0066162D01*
X0066637Y0065299D01*
X0060162Y0065298D01*
X0062108Y0067244D01*
X0062403Y0066949D01*
X0065797Y0066949D01*
X0066500Y0067652D01*
X0066500Y0077346D01*
X0065797Y0078049D01*
X0065700Y0078049D01*
X0065700Y0080199D01*
X0067803Y0080199D01*
X0067934Y0079884D01*
X0068885Y0078932D01*
X0070127Y0078418D01*
X0071473Y0078418D01*
X0072640Y0078901D01*
X0072500Y0078762D01*
X0072500Y0078049D01*
X0072403Y0078049D01*
X0071700Y0077346D01*
X0071700Y0067652D01*
X0072403Y0066949D01*
X0075797Y0066949D01*
X0076500Y0067652D01*
X0076500Y0077346D01*
X0076055Y0077791D01*
X0076563Y0078299D01*
X0083417Y0078299D01*
X0084800Y0076856D01*
X0084802Y0042858D01*
X0083539Y0041599D01*
X0083537Y0041599D01*
X0083072Y0041133D01*
X0082601Y0040664D01*
X0082601Y0040663D01*
X0082600Y0040662D01*
X0082600Y0040001D01*
X0082599Y0039339D01*
X0082600Y0039338D01*
X0082600Y0036442D01*
X0081564Y0036871D01*
X0079734Y0036871D01*
X0078043Y0036171D01*
X0076749Y0034877D01*
X0076049Y0033186D01*
X0076049Y0031356D01*
X0076749Y0029666D01*
X0078043Y0028372D01*
X0079734Y0027671D01*
X0081564Y0027671D01*
X0083255Y0028372D01*
X0084548Y0029666D01*
X0084900Y0030514D01*
X0084900Y0015362D01*
X0083437Y0013899D01*
X0082603Y0013899D01*
X0082736Y0013995D01*
X0083204Y0014463D01*
X0083592Y0014998D01*
X0083892Y0015587D01*
X0084097Y0016215D01*
X0084189Y0016799D01*
X0080400Y0016799D01*
X0080400Y0017599D01*
X0079600Y0017599D01*
X0079600Y0021388D01*
X0079016Y0021295D01*
X0078388Y0021091D01*
X0077799Y0020791D01*
X0077264Y0020402D01*
X0076796Y0019935D01*
X0076408Y0019400D01*
X0076108Y0018811D01*
X0075903Y0018182D01*
X0075811Y0017599D01*
X0079600Y0017599D01*
X0079600Y0016799D01*
X0075811Y0016799D01*
X0075903Y0016215D01*
X0076108Y0015587D01*
X0076408Y0014998D01*
X0076796Y0014463D01*
X0077264Y0013995D01*
X0077397Y0013899D01*
X0072357Y0013899D01*
X0073391Y0014933D01*
X0074000Y0016403D01*
X0074000Y0017995D01*
X0073391Y0019465D01*
X0072266Y0020590D01*
X0070796Y0021199D01*
X0069204Y0021199D01*
X0067734Y0020590D01*
X0066609Y0019465D01*
X0066000Y0017995D01*
X0066000Y0016403D01*
X0066609Y0014933D01*
X0067643Y0013899D01*
X0062357Y0013899D01*
X0063391Y0014933D01*
X0064000Y0016403D01*
X0064000Y0017995D01*
X0063391Y0019465D01*
X0062266Y0020590D01*
X0060796Y0021199D01*
X0059204Y0021199D01*
X0057734Y0020590D01*
X0056609Y0019465D01*
X0056000Y0017995D01*
X0056000Y0016403D01*
X0056609Y0014933D01*
X0057734Y0013808D01*
X0059204Y0013199D01*
X0060437Y0013199D01*
X0060200Y0012962D01*
X0059337Y0012099D01*
X0058400Y0011162D01*
X0058400Y0010866D01*
X0057734Y0010590D01*
X0056609Y0009465D01*
X0056000Y0007995D01*
X0056000Y0006403D01*
X0056609Y0004933D01*
X0056743Y0004799D01*
X0009863Y0004799D01*
X0007300Y0007362D01*
X0007300Y0030997D01*
X0007851Y0029666D01*
X0009145Y0028372D01*
X0010300Y0027893D01*
X0010300Y0026636D01*
X0011237Y0025699D01*
X0012100Y0024836D01*
X0013037Y0023899D01*
X0027818Y0023899D01*
X0027634Y0023714D01*
X0027119Y0022471D01*
X0027119Y0021126D01*
X0027634Y0019884D01*
X0028518Y0018999D01*
X0026497Y0018999D01*
X0026366Y0019314D01*
X0025415Y0020265D01*
X0024173Y0020780D01*
X0022827Y0020780D01*
X0021585Y0020265D01*
X0020634Y0019314D01*
X0020119Y0018071D01*
X0020119Y0016726D01*
X0020634Y0015484D01*
X0021585Y0014532D01*
X0022827Y0014018D01*
X0024173Y0014018D01*
X0025415Y0014532D01*
X0026366Y0015484D01*
X0026497Y0015799D01*
X0042463Y0015799D01*
X0042612Y0015948D01*
X0042927Y0015818D01*
X0044273Y0015818D01*
X0045515Y0016332D01*
X0045800Y0016617D01*
X0045800Y0010662D01*
X0045137Y0009999D01*
X0040297Y0009999D01*
X0040166Y0010314D01*
X0039215Y0011265D01*
X0037973Y0011780D01*
X0036627Y0011780D01*
X0035385Y0011265D01*
X0034434Y0010314D01*
X0033919Y0009071D01*
X0033919Y0007726D01*
X0034434Y0006484D01*
X0035385Y0005532D01*
X0036627Y0005018D01*
X0037973Y0005018D01*
X0039215Y0005532D01*
X0040166Y0006484D01*
X0040297Y0006799D01*
X0046463Y0006799D01*
X0047400Y0007736D01*
X0049000Y0009336D01*
X0049000Y0018936D01*
X0049421Y0019357D01*
X0049534Y0019084D01*
X0050485Y0018132D01*
X0051727Y0017618D01*
X0053073Y0017618D01*
X0054315Y0018132D01*
X0055266Y0019084D01*
X0055781Y0020326D01*
X0055781Y0021671D01*
X0055273Y0022899D01*
X0059293Y0022899D01*
X0059949Y0022893D01*
X0059955Y0022899D01*
X0059963Y0022899D01*
X0060427Y0023363D01*
X0061619Y0024535D01*
X0061627Y0024535D01*
X0062090Y0024999D01*
X0062558Y0025459D01*
X0062558Y0025467D01*
X0062564Y0025472D01*
X0062564Y0026128D01*
X0062569Y0026784D01*
X0062564Y0026790D01*
X0062564Y0027955D01*
X0063569Y0028372D01*
X0064863Y0029666D01*
X0065564Y0031356D01*
X0065564Y0033186D01*
X0064863Y0034877D01*
X0063569Y0036171D01*
X0061879Y0036871D01*
X0060049Y0036871D01*
X0058358Y0036171D01*
X0057064Y0034877D01*
X0056364Y0033186D01*
X0056364Y0031356D01*
X0057064Y0029666D01*
X0058358Y0028372D01*
X0059364Y0027955D01*
X0059364Y0026806D01*
X0058645Y0026099D01*
X0048636Y0026099D01*
X0047797Y0026891D01*
X0047788Y0029100D01*
X0048516Y0028372D01*
X0050206Y0027671D01*
X0052036Y0027671D01*
X0053727Y0028372D01*
X0055021Y0029666D01*
X0055721Y0031356D01*
X0055721Y0033186D01*
X0055021Y0034877D01*
X0053727Y0036171D01*
X0052036Y0036871D01*
X0050206Y0036871D01*
X0048516Y0036171D01*
X0047761Y0035416D01*
X0047703Y0048939D01*
X0048712Y0049948D01*
X0049027Y0049818D01*
X0050373Y0049818D01*
X0051615Y0050332D01*
X0052566Y0051284D01*
X0053081Y0052526D01*
X0053081Y0053871D01*
X0052566Y0055114D01*
X0052082Y0055599D01*
X0053719Y0055599D01*
X0053719Y0055426D01*
X0054234Y0054184D01*
X0055185Y0053232D01*
X0056427Y0052718D01*
X0057773Y0052718D01*
X0059015Y0053232D01*
X0059966Y0054184D01*
X0060481Y0055426D01*
X0060481Y0056771D01*
X0059966Y0058014D01*
X0059682Y0058299D01*
X0061232Y0058299D01*
X0064400Y0053425D01*
X0064400Y0053236D01*
X0064750Y0052886D01*
X0065020Y0052471D01*
X0065204Y0052432D01*
X0065337Y0052299D01*
X0065832Y0052299D01*
X0066316Y0052196D01*
X0066474Y0052299D01*
X0070637Y0052299D01*
X0071895Y0051041D01*
X0071700Y0050846D01*
X0071700Y0041152D01*
X0072403Y0040449D01*
X0075797Y0040449D01*
X0076500Y0041152D01*
X0076500Y0050846D01*
X0075797Y0051549D01*
X0075500Y0051549D01*
X0075500Y0051962D01*
X0075475Y0051986D01*
X0075474Y0052021D01*
X0075010Y0052452D01*
X0071963Y0055499D01*
X0066868Y0055499D01*
X0063700Y0060373D01*
X0063700Y0060562D01*
X0063350Y0060912D01*
X0063080Y0061327D01*
X0062896Y0061366D01*
X0062763Y0061499D01*
X0062268Y0061499D01*
X0061784Y0061602D01*
X0061626Y0061499D01*
X0019797Y0061499D01*
X0019666Y0061814D01*
X0019385Y0062095D01*
X0067278Y0062099D01*
X0067963Y0062099D01*
X0068473Y0062609D01*
X0069763Y0063899D01*
X0070700Y0064836D01*
X0070700Y0066949D01*
X0070797Y0066949D01*
X0071500Y0067652D01*
X0071500Y0077346D01*
X0070797Y0078049D01*
X0067403Y0078049D01*
X0066700Y0077346D01*
X0066700Y0067652D01*
X0067375Y0066977D02*
X0065825Y0066977D01*
X0066718Y0065380D02*
X0060244Y0065380D01*
X0061042Y0066178D02*
X0067500Y0066178D01*
X0069100Y0065499D02*
X0069100Y0072499D01*
X0066700Y0073365D02*
X0066500Y0073365D01*
X0066500Y0074163D02*
X0066700Y0074163D01*
X0066700Y0074962D02*
X0066500Y0074962D01*
X0066500Y0075760D02*
X0066700Y0075760D01*
X0066700Y0076559D02*
X0066500Y0076559D01*
X0066488Y0077357D02*
X0066712Y0077357D01*
X0065700Y0078156D02*
X0072500Y0078156D01*
X0071712Y0077357D02*
X0071488Y0077357D01*
X0071500Y0076559D02*
X0071700Y0076559D01*
X0071700Y0075760D02*
X0071500Y0075760D01*
X0071500Y0074962D02*
X0071700Y0074962D01*
X0071700Y0074163D02*
X0071500Y0074163D01*
X0071500Y0073365D02*
X0071700Y0073365D01*
X0071700Y0072566D02*
X0071500Y0072566D01*
X0071500Y0071768D02*
X0071700Y0071768D01*
X0071700Y0070969D02*
X0071500Y0070969D01*
X0071500Y0070171D02*
X0071700Y0070171D01*
X0071700Y0069372D02*
X0071500Y0069372D01*
X0071500Y0068574D02*
X0071700Y0068574D01*
X0071700Y0067775D02*
X0071500Y0067775D01*
X0070825Y0066977D02*
X0072375Y0066977D01*
X0070700Y0066178D02*
X0077500Y0066178D01*
X0077500Y0066949D02*
X0077500Y0059196D01*
X0077185Y0059065D01*
X0076234Y0058114D01*
X0075719Y0056871D01*
X0075719Y0055526D01*
X0076234Y0054284D01*
X0077185Y0053332D01*
X0078427Y0052818D01*
X0079773Y0052818D01*
X0081015Y0053332D01*
X0081966Y0054284D01*
X0082481Y0055526D01*
X0082481Y0056871D01*
X0081966Y0058114D01*
X0081015Y0059065D01*
X0080700Y0059196D01*
X0080700Y0066949D01*
X0080797Y0066949D01*
X0081500Y0067652D01*
X0081500Y0077346D01*
X0080797Y0078049D01*
X0077403Y0078049D01*
X0076700Y0077346D01*
X0076700Y0067652D01*
X0077403Y0066949D01*
X0077500Y0066949D01*
X0077375Y0066977D02*
X0075825Y0066977D01*
X0076500Y0067775D02*
X0076700Y0067775D01*
X0076700Y0068574D02*
X0076500Y0068574D01*
X0076500Y0069372D02*
X0076700Y0069372D01*
X0076700Y0070171D02*
X0076500Y0070171D01*
X0076500Y0070969D02*
X0076700Y0070969D01*
X0076700Y0071768D02*
X0076500Y0071768D01*
X0076500Y0072566D02*
X0076700Y0072566D01*
X0076700Y0073365D02*
X0076500Y0073365D01*
X0076500Y0074163D02*
X0076700Y0074163D01*
X0076700Y0074962D02*
X0076500Y0074962D01*
X0076500Y0075760D02*
X0076700Y0075760D01*
X0076700Y0076559D02*
X0076500Y0076559D01*
X0076488Y0077357D02*
X0076712Y0077357D01*
X0076420Y0078156D02*
X0083554Y0078156D01*
X0084319Y0077357D02*
X0081488Y0077357D01*
X0081500Y0076559D02*
X0084800Y0076559D01*
X0084800Y0075760D02*
X0081500Y0075760D01*
X0081500Y0074962D02*
X0084800Y0074962D01*
X0084800Y0074163D02*
X0081500Y0074163D01*
X0081500Y0073365D02*
X0084800Y0073365D01*
X0084800Y0072566D02*
X0081500Y0072566D01*
X0081500Y0071768D02*
X0084800Y0071768D01*
X0084800Y0070969D02*
X0081500Y0070969D01*
X0081500Y0070171D02*
X0084800Y0070171D01*
X0084800Y0069372D02*
X0081500Y0069372D01*
X0081500Y0068574D02*
X0084800Y0068574D01*
X0084800Y0067775D02*
X0081500Y0067775D01*
X0080825Y0066977D02*
X0084800Y0066977D01*
X0084801Y0066178D02*
X0080700Y0066178D01*
X0080700Y0065380D02*
X0084801Y0065380D01*
X0084801Y0064581D02*
X0080700Y0064581D01*
X0080700Y0063783D02*
X0084801Y0063783D01*
X0084801Y0062984D02*
X0080700Y0062984D01*
X0080700Y0062186D02*
X0084801Y0062186D01*
X0084801Y0061387D02*
X0080700Y0061387D01*
X0080700Y0060589D02*
X0084801Y0060589D01*
X0084801Y0059790D02*
X0080700Y0059790D01*
X0081089Y0058992D02*
X0084801Y0058992D01*
X0084801Y0058193D02*
X0081887Y0058193D01*
X0082264Y0057395D02*
X0084801Y0057395D01*
X0084801Y0056596D02*
X0082481Y0056596D01*
X0082481Y0055798D02*
X0084801Y0055798D01*
X0084801Y0054999D02*
X0082263Y0054999D01*
X0081883Y0054201D02*
X0084801Y0054201D01*
X0084801Y0053402D02*
X0081085Y0053402D01*
X0080484Y0051749D02*
X0079300Y0051749D01*
X0079300Y0046199D01*
X0078900Y0046199D01*
X0078900Y0051749D01*
X0077716Y0051749D01*
X0077360Y0051653D01*
X0077040Y0051469D01*
X0076780Y0051208D01*
X0076595Y0050889D01*
X0076500Y0050533D01*
X0076500Y0046199D01*
X0078900Y0046199D01*
X0078900Y0045799D01*
X0076500Y0045799D01*
X0076500Y0041465D01*
X0076595Y0041108D01*
X0076780Y0040789D01*
X0077040Y0040529D01*
X0077360Y0040344D01*
X0077716Y0040249D01*
X0078900Y0040249D01*
X0078900Y0045799D01*
X0079300Y0045799D01*
X0079300Y0046199D01*
X0081700Y0046199D01*
X0081700Y0050533D01*
X0081605Y0050889D01*
X0081420Y0051208D01*
X0081160Y0051469D01*
X0080840Y0051653D01*
X0080484Y0051749D01*
X0081537Y0051007D02*
X0084801Y0051007D01*
X0084801Y0051805D02*
X0075500Y0051805D01*
X0074858Y0052604D02*
X0084801Y0052604D01*
X0084801Y0050208D02*
X0081700Y0050208D01*
X0081700Y0049410D02*
X0084801Y0049410D01*
X0084801Y0048611D02*
X0081700Y0048611D01*
X0081700Y0047813D02*
X0084801Y0047813D01*
X0084801Y0047014D02*
X0081700Y0047014D01*
X0081700Y0046215D02*
X0084801Y0046215D01*
X0084801Y0045417D02*
X0081700Y0045417D01*
X0081700Y0045799D02*
X0079300Y0045799D01*
X0079300Y0040249D01*
X0080484Y0040249D01*
X0080840Y0040344D01*
X0081160Y0040529D01*
X0081420Y0040789D01*
X0081605Y0041108D01*
X0081700Y0041465D01*
X0081700Y0045799D01*
X0081700Y0044618D02*
X0084801Y0044618D01*
X0084802Y0043820D02*
X0081700Y0043820D01*
X0081700Y0043021D02*
X0084802Y0043021D01*
X0084165Y0042223D02*
X0081700Y0042223D01*
X0081689Y0041424D02*
X0083363Y0041424D01*
X0082600Y0040626D02*
X0081257Y0040626D01*
X0082600Y0039827D02*
X0047742Y0039827D01*
X0047745Y0039029D02*
X0082600Y0039029D01*
X0082600Y0038230D02*
X0047749Y0038230D01*
X0047752Y0037432D02*
X0082600Y0037432D01*
X0082600Y0036633D02*
X0082138Y0036633D01*
X0084200Y0036799D02*
X0084200Y0039999D01*
X0086402Y0042194D01*
X0086400Y0077499D01*
X0084100Y0079899D01*
X0075900Y0079899D01*
X0074100Y0078099D01*
X0074100Y0072499D01*
X0079100Y0072499D02*
X0079100Y0056199D01*
X0077111Y0058992D02*
X0064598Y0058992D01*
X0064079Y0059790D02*
X0077500Y0059790D01*
X0077500Y0060589D02*
X0063673Y0060589D01*
X0062874Y0061387D02*
X0077500Y0061387D01*
X0077500Y0062186D02*
X0068050Y0062186D01*
X0067963Y0062099D02*
X0067963Y0062099D01*
X0067963Y0062099D01*
X0068848Y0062984D02*
X0077500Y0062984D01*
X0077500Y0063783D02*
X0069647Y0063783D01*
X0070445Y0064581D02*
X0077500Y0064581D01*
X0077500Y0065380D02*
X0070700Y0065380D01*
X0069100Y0065499D02*
X0067300Y0063699D01*
X0015203Y0063695D01*
X0013200Y0064099D01*
X0013300Y0064299D02*
X0009300Y0064299D01*
X0005700Y0060699D01*
X0005700Y0006699D01*
X0009200Y0003199D01*
X0066000Y0003199D01*
X0070000Y0007199D01*
X0072573Y0010282D02*
X0077427Y0010282D01*
X0076628Y0009484D02*
X0073372Y0009484D01*
X0073714Y0008685D02*
X0076286Y0008685D01*
X0076000Y0007887D02*
X0074000Y0007887D01*
X0074000Y0007088D02*
X0076000Y0007088D01*
X0076047Y0006290D02*
X0073953Y0006290D01*
X0073622Y0005491D02*
X0076378Y0005491D01*
X0076849Y0004693D02*
X0073151Y0004693D01*
X0072352Y0003894D02*
X0077648Y0003894D01*
X0082352Y0003894D02*
X0088275Y0003894D01*
X0088275Y0003096D02*
X0068160Y0003096D01*
X0060000Y0010499D02*
X0061800Y0012299D01*
X0084100Y0012299D01*
X0086500Y0014699D01*
X0086500Y0034499D01*
X0084200Y0036799D01*
X0085830Y0037432D02*
X0088275Y0037432D01*
X0088275Y0038230D02*
X0085800Y0038230D01*
X0085800Y0039029D02*
X0088275Y0039029D01*
X0088275Y0039827D02*
X0086294Y0039827D01*
X0087097Y0040626D02*
X0088275Y0040626D01*
X0088275Y0041424D02*
X0087896Y0041424D01*
X0088002Y0042223D02*
X0088275Y0042223D01*
X0088275Y0043021D02*
X0088002Y0043021D01*
X0088002Y0043820D02*
X0088275Y0043820D01*
X0088275Y0044618D02*
X0088001Y0044618D01*
X0088001Y0045417D02*
X0088275Y0045417D01*
X0088275Y0046215D02*
X0088001Y0046215D01*
X0088001Y0047014D02*
X0088275Y0047014D01*
X0088275Y0047813D02*
X0088001Y0047813D01*
X0088001Y0048611D02*
X0088275Y0048611D01*
X0088275Y0049410D02*
X0088001Y0049410D01*
X0088001Y0050208D02*
X0088275Y0050208D01*
X0088275Y0051007D02*
X0088001Y0051007D01*
X0088001Y0051805D02*
X0088275Y0051805D01*
X0088275Y0052604D02*
X0088001Y0052604D01*
X0088001Y0053402D02*
X0088275Y0053402D01*
X0088275Y0054201D02*
X0088001Y0054201D01*
X0088001Y0054999D02*
X0088275Y0054999D01*
X0088275Y0055798D02*
X0088001Y0055798D01*
X0088001Y0056596D02*
X0088275Y0056596D01*
X0088275Y0057395D02*
X0088001Y0057395D01*
X0088001Y0058193D02*
X0088275Y0058193D01*
X0088275Y0058992D02*
X0088001Y0058992D01*
X0088001Y0059790D02*
X0088275Y0059790D01*
X0088275Y0060589D02*
X0088001Y0060589D01*
X0088001Y0061387D02*
X0088275Y0061387D01*
X0088275Y0062186D02*
X0088001Y0062186D01*
X0088001Y0062984D02*
X0088275Y0062984D01*
X0088275Y0063783D02*
X0088001Y0063783D01*
X0088001Y0064581D02*
X0088275Y0064581D01*
X0088275Y0065380D02*
X0088001Y0065380D01*
X0088001Y0066178D02*
X0088275Y0066178D01*
X0088275Y0066977D02*
X0088000Y0066977D01*
X0088000Y0067775D02*
X0088275Y0067775D01*
X0088275Y0068574D02*
X0088000Y0068574D01*
X0088000Y0069372D02*
X0088275Y0069372D01*
X0088275Y0070171D02*
X0088000Y0070171D01*
X0088000Y0070969D02*
X0088275Y0070969D01*
X0088275Y0071768D02*
X0088000Y0071768D01*
X0088000Y0072566D02*
X0088275Y0072566D01*
X0088275Y0073365D02*
X0088000Y0073365D01*
X0088000Y0074163D02*
X0088275Y0074163D01*
X0088275Y0074962D02*
X0088000Y0074962D01*
X0088000Y0075760D02*
X0088275Y0075760D01*
X0088275Y0076559D02*
X0088000Y0076559D01*
X0088000Y0077357D02*
X0088275Y0077357D01*
X0088275Y0078156D02*
X0088000Y0078156D01*
X0088275Y0078954D02*
X0087221Y0078954D01*
X0086456Y0079753D02*
X0088275Y0079753D01*
X0088275Y0080551D02*
X0085700Y0080551D01*
X0084925Y0081350D02*
X0088275Y0081350D01*
X0088275Y0082148D02*
X0074181Y0082148D01*
X0074181Y0081350D02*
X0075088Y0081350D01*
X0074290Y0080551D02*
X0073943Y0080551D01*
X0073984Y0082947D02*
X0088275Y0082947D01*
X0088275Y0083746D02*
X0073635Y0083746D01*
X0072836Y0084544D02*
X0088275Y0084544D01*
X0088275Y0085343D02*
X0062564Y0085343D01*
X0062564Y0086141D02*
X0088275Y0086141D01*
X0088275Y0086940D02*
X0082078Y0086940D01*
X0081564Y0086726D02*
X0083255Y0087427D01*
X0084548Y0088721D01*
X0085249Y0090411D01*
X0085249Y0092241D01*
X0084548Y0093932D01*
X0083255Y0095226D01*
X0081564Y0095926D01*
X0079734Y0095926D01*
X0078043Y0095226D01*
X0076749Y0093932D01*
X0076049Y0092241D01*
X0076049Y0090411D01*
X0076749Y0088721D01*
X0078043Y0087427D01*
X0079734Y0086726D01*
X0081564Y0086726D01*
X0083566Y0087738D02*
X0088275Y0087738D01*
X0088275Y0088537D02*
X0084364Y0088537D01*
X0084803Y0089335D02*
X0088275Y0089335D01*
X0088275Y0090134D02*
X0085134Y0090134D01*
X0085249Y0090932D02*
X0088275Y0090932D01*
X0088275Y0091731D02*
X0085249Y0091731D01*
X0085130Y0092529D02*
X0088275Y0092529D01*
X0088275Y0093328D02*
X0084799Y0093328D01*
X0084354Y0094126D02*
X0088275Y0094126D01*
X0088275Y0094925D02*
X0083556Y0094925D01*
X0082054Y0095723D02*
X0088275Y0095723D01*
X0088275Y0096522D02*
X0059131Y0096522D01*
X0059381Y0097126D02*
X0058866Y0095884D01*
X0057915Y0094932D01*
X0056673Y0094418D01*
X0055327Y0094418D01*
X0054085Y0094932D01*
X0053134Y0095884D01*
X0052619Y0097126D01*
X0052619Y0098399D01*
X0015963Y0098399D01*
X0013300Y0095736D01*
X0013300Y0095664D01*
X0014357Y0095226D01*
X0015651Y0093932D01*
X0016351Y0092241D01*
X0016351Y0090411D01*
X0015651Y0088721D01*
X0014357Y0087427D01*
X0012666Y0086726D01*
X0010836Y0086726D01*
X0009145Y0087427D01*
X0007851Y0088721D01*
X0007151Y0090411D01*
X0007151Y0092241D01*
X0007851Y0093932D01*
X0009145Y0095226D01*
X0010100Y0095621D01*
X0010100Y0097062D01*
X0011037Y0097999D01*
X0014637Y0101599D01*
X0054463Y0101599D01*
X0055012Y0101049D01*
X0055327Y0101180D01*
X0056673Y0101180D01*
X0057915Y0100665D01*
X0058866Y0099714D01*
X0059381Y0098471D01*
X0059381Y0097126D01*
X0059381Y0097320D02*
X0088275Y0097320D01*
X0088275Y0098119D02*
X0059381Y0098119D01*
X0059196Y0098917D02*
X0088275Y0098917D01*
X0088275Y0099716D02*
X0058865Y0099716D01*
X0058066Y0100514D02*
X0088275Y0100514D01*
X0088275Y0101313D02*
X0054749Y0101313D01*
X0053800Y0099999D02*
X0015300Y0099999D01*
X0011700Y0096399D01*
X0011700Y0092075D01*
X0011751Y0091326D01*
X0010322Y0086940D02*
X0003100Y0086940D01*
X0003100Y0087738D02*
X0008834Y0087738D01*
X0008036Y0088537D02*
X0003100Y0088537D01*
X0003100Y0089335D02*
X0007597Y0089335D01*
X0007266Y0090134D02*
X0003100Y0090134D01*
X0003100Y0090932D02*
X0007151Y0090932D01*
X0007151Y0091731D02*
X0003100Y0091731D01*
X0003100Y0092529D02*
X0007270Y0092529D01*
X0007601Y0093328D02*
X0003100Y0093328D01*
X0003100Y0094126D02*
X0008046Y0094126D01*
X0008844Y0094925D02*
X0003100Y0094925D01*
X0003100Y0095723D02*
X0010100Y0095723D01*
X0010100Y0096522D02*
X0003100Y0096522D01*
X0003100Y0097320D02*
X0010359Y0097320D01*
X0011157Y0098119D02*
X0003100Y0098119D01*
X0003100Y0098917D02*
X0011956Y0098917D01*
X0012754Y0099716D02*
X0003100Y0099716D01*
X0003100Y0100514D02*
X0013553Y0100514D01*
X0014351Y0101313D02*
X0003100Y0101313D01*
X0003100Y0102111D02*
X0088275Y0102111D01*
X0088275Y0102910D02*
X0080882Y0102910D01*
X0081137Y0103708D02*
X0088275Y0103708D01*
X0088275Y0104507D02*
X0081137Y0104507D01*
X0079243Y0095723D02*
X0072212Y0095723D01*
X0073713Y0094925D02*
X0077742Y0094925D01*
X0076943Y0094126D02*
X0074512Y0094126D01*
X0074956Y0093328D02*
X0076499Y0093328D01*
X0076168Y0092529D02*
X0075287Y0092529D01*
X0075406Y0091731D02*
X0076049Y0091731D01*
X0076049Y0090932D02*
X0075406Y0090932D01*
X0075291Y0090134D02*
X0076164Y0090134D01*
X0076495Y0089335D02*
X0074960Y0089335D01*
X0074522Y0088537D02*
X0076933Y0088537D01*
X0077732Y0087738D02*
X0073723Y0087738D01*
X0072236Y0086940D02*
X0079219Y0086940D01*
X0068863Y0078954D02*
X0065700Y0078954D01*
X0065700Y0079753D02*
X0068064Y0079753D01*
X0063685Y0082947D02*
X0062564Y0082947D01*
X0062564Y0082148D02*
X0062887Y0082148D01*
X0059364Y0082148D02*
X0052821Y0082148D01*
X0052812Y0082947D02*
X0059364Y0082947D01*
X0059364Y0083746D02*
X0052804Y0083746D01*
X0052795Y0084544D02*
X0059364Y0084544D01*
X0059364Y0085343D02*
X0052786Y0085343D01*
X0052778Y0086141D02*
X0059364Y0086141D01*
X0059364Y0086940D02*
X0052769Y0086940D01*
X0054038Y0087738D02*
X0058047Y0087738D01*
X0057248Y0088537D02*
X0054837Y0088537D01*
X0055275Y0089335D02*
X0056810Y0089335D01*
X0056479Y0090134D02*
X0055606Y0090134D01*
X0055721Y0090932D02*
X0056364Y0090932D01*
X0056364Y0091731D02*
X0055721Y0091731D01*
X0055602Y0092529D02*
X0056483Y0092529D01*
X0056814Y0093328D02*
X0055271Y0093328D01*
X0054827Y0094126D02*
X0057258Y0094126D01*
X0057896Y0094925D02*
X0058057Y0094925D01*
X0058706Y0095723D02*
X0059558Y0095723D01*
X0060964Y0091326D02*
X0060964Y0068363D01*
X0058500Y0065899D01*
X0018600Y0065899D01*
X0015500Y0068999D01*
X0017513Y0071768D02*
X0019000Y0071768D01*
X0018919Y0071571D02*
X0018919Y0070226D01*
X0019434Y0068984D01*
X0020385Y0068032D01*
X0021627Y0067518D01*
X0022973Y0067518D01*
X0024215Y0068032D01*
X0025166Y0068984D01*
X0025681Y0070226D01*
X0025681Y0071571D01*
X0025166Y0072814D01*
X0024215Y0073765D01*
X0023900Y0073896D01*
X0023900Y0078536D01*
X0024363Y0078999D01*
X0030663Y0078999D01*
X0032063Y0080399D01*
X0033000Y0081336D01*
X0033000Y0086995D01*
X0034042Y0087427D01*
X0035336Y0088721D01*
X0036036Y0090411D01*
X0036036Y0092241D01*
X0035336Y0093932D01*
X0034042Y0095226D01*
X0032351Y0095926D01*
X0030521Y0095926D01*
X0028831Y0095226D01*
X0027537Y0093932D01*
X0026836Y0092241D01*
X0026836Y0090411D01*
X0027537Y0088721D01*
X0028831Y0087427D01*
X0029800Y0087025D01*
X0029800Y0082662D01*
X0029337Y0082199D01*
X0023037Y0082199D01*
X0020700Y0079862D01*
X0020700Y0073896D01*
X0020385Y0073765D01*
X0019434Y0072814D01*
X0018919Y0071571D01*
X0018919Y0070969D02*
X0018311Y0070969D01*
X0018674Y0070171D02*
X0018942Y0070171D01*
X0018881Y0069372D02*
X0019273Y0069372D01*
X0018881Y0068574D02*
X0019843Y0068574D01*
X0018986Y0067775D02*
X0021006Y0067775D01*
X0023594Y0067775D02*
X0033071Y0067775D01*
X0032741Y0068574D02*
X0024757Y0068574D01*
X0025327Y0069372D02*
X0032719Y0069372D01*
X0032802Y0070171D02*
X0025658Y0070171D01*
X0025681Y0070969D02*
X0033132Y0070969D01*
X0033787Y0071768D02*
X0025600Y0071768D01*
X0025269Y0072566D02*
X0034500Y0072566D01*
X0034500Y0073365D02*
X0024616Y0073365D01*
X0023900Y0074163D02*
X0034500Y0074163D01*
X0034500Y0074962D02*
X0023900Y0074962D01*
X0023900Y0075760D02*
X0034500Y0075760D01*
X0034500Y0076559D02*
X0023900Y0076559D01*
X0023900Y0077357D02*
X0034500Y0077357D01*
X0034500Y0078156D02*
X0023900Y0078156D01*
X0024318Y0078954D02*
X0034500Y0078954D01*
X0034791Y0079753D02*
X0031417Y0079753D01*
X0032063Y0080399D02*
X0032063Y0080399D01*
X0032215Y0080551D02*
X0035590Y0080551D01*
X0036388Y0081350D02*
X0033000Y0081350D01*
X0033000Y0082148D02*
X0048987Y0082148D01*
X0049612Y0082947D02*
X0033000Y0082947D01*
X0033000Y0083746D02*
X0049604Y0083746D01*
X0049595Y0084544D02*
X0033000Y0084544D01*
X0033000Y0085343D02*
X0049586Y0085343D01*
X0049577Y0086141D02*
X0033000Y0086141D01*
X0033000Y0086940D02*
X0039849Y0086940D01*
X0040364Y0086726D02*
X0038673Y0087427D01*
X0037379Y0088721D01*
X0036679Y0090411D01*
X0036679Y0092241D01*
X0037379Y0093932D01*
X0038673Y0095226D01*
X0040364Y0095926D01*
X0042194Y0095926D01*
X0043884Y0095226D01*
X0045178Y0093932D01*
X0045879Y0092241D01*
X0045879Y0090411D01*
X0045178Y0088721D01*
X0043884Y0087427D01*
X0042194Y0086726D01*
X0040364Y0086726D01*
X0038362Y0087738D02*
X0034353Y0087738D01*
X0035152Y0088537D02*
X0037563Y0088537D01*
X0037125Y0089335D02*
X0035590Y0089335D01*
X0035921Y0090134D02*
X0036794Y0090134D01*
X0036679Y0090932D02*
X0036036Y0090932D01*
X0036036Y0091731D02*
X0036679Y0091731D01*
X0036798Y0092529D02*
X0035917Y0092529D01*
X0035586Y0093328D02*
X0037129Y0093328D01*
X0037573Y0094126D02*
X0035142Y0094126D01*
X0034343Y0094925D02*
X0038372Y0094925D01*
X0039873Y0095723D02*
X0032842Y0095723D01*
X0035000Y0097099D02*
X0036500Y0095599D01*
X0036500Y0083399D01*
X0029500Y0076299D01*
X0029500Y0073999D01*
X0030000Y0080599D02*
X0031400Y0081999D01*
X0031400Y0091290D01*
X0031436Y0091326D01*
X0030031Y0095723D02*
X0022999Y0095723D01*
X0022509Y0095926D02*
X0020679Y0095926D01*
X0018988Y0095226D01*
X0017694Y0093932D01*
X0016994Y0092241D01*
X0016994Y0090411D01*
X0017694Y0088721D01*
X0018988Y0087427D01*
X0020679Y0086726D01*
X0022509Y0086726D01*
X0024199Y0087427D01*
X0025493Y0088721D01*
X0026194Y0090411D01*
X0026194Y0092241D01*
X0025493Y0093932D01*
X0024199Y0095226D01*
X0022509Y0095926D01*
X0024501Y0094925D02*
X0028529Y0094925D01*
X0027731Y0094126D02*
X0025299Y0094126D01*
X0025744Y0093328D02*
X0027286Y0093328D01*
X0026955Y0092529D02*
X0026075Y0092529D01*
X0026194Y0091731D02*
X0026836Y0091731D01*
X0026836Y0090932D02*
X0026194Y0090932D01*
X0026079Y0090134D02*
X0026951Y0090134D01*
X0027282Y0089335D02*
X0025748Y0089335D01*
X0025309Y0088537D02*
X0027721Y0088537D01*
X0028519Y0087738D02*
X0024511Y0087738D01*
X0023023Y0086940D02*
X0029800Y0086940D01*
X0029800Y0086141D02*
X0003100Y0086141D01*
X0003100Y0085343D02*
X0029800Y0085343D01*
X0029800Y0084544D02*
X0003100Y0084544D01*
X0003100Y0083746D02*
X0029800Y0083746D01*
X0029800Y0082947D02*
X0003100Y0082947D01*
X0003100Y0082148D02*
X0022987Y0082148D01*
X0022188Y0081350D02*
X0003100Y0081350D01*
X0003100Y0080551D02*
X0021390Y0080551D01*
X0020700Y0079753D02*
X0003100Y0079753D01*
X0003100Y0078954D02*
X0020700Y0078954D01*
X0020700Y0078156D02*
X0003100Y0078156D01*
X0003100Y0077357D02*
X0020700Y0077357D01*
X0020700Y0076559D02*
X0003100Y0076559D01*
X0003100Y0075760D02*
X0020700Y0075760D01*
X0020700Y0074962D02*
X0003100Y0074962D01*
X0003100Y0074163D02*
X0020700Y0074163D01*
X0019984Y0073365D02*
X0003100Y0073365D01*
X0003100Y0072566D02*
X0019331Y0072566D01*
X0022300Y0070899D02*
X0022300Y0079199D01*
X0023700Y0080599D01*
X0030000Y0080599D01*
X0036100Y0078799D02*
X0036100Y0069299D01*
X0037700Y0072566D02*
X0039268Y0072566D01*
X0039119Y0073365D02*
X0037700Y0073365D01*
X0037700Y0074163D02*
X0039119Y0074163D01*
X0039405Y0074962D02*
X0037700Y0074962D01*
X0037700Y0075760D02*
X0039880Y0075760D01*
X0040811Y0076559D02*
X0037700Y0076559D01*
X0037700Y0077357D02*
X0059364Y0077357D01*
X0059364Y0076559D02*
X0058522Y0076559D01*
X0059320Y0075760D02*
X0059364Y0075760D01*
X0059364Y0078156D02*
X0037720Y0078156D01*
X0036100Y0078799D02*
X0037800Y0080499D01*
X0049600Y0080499D01*
X0051221Y0082120D01*
X0051121Y0091326D01*
X0049716Y0095723D02*
X0042684Y0095723D01*
X0044186Y0094925D02*
X0048214Y0094925D01*
X0047416Y0094126D02*
X0044984Y0094126D01*
X0045429Y0093328D02*
X0046971Y0093328D01*
X0046640Y0092529D02*
X0045760Y0092529D01*
X0045879Y0091731D02*
X0046521Y0091731D01*
X0046521Y0090932D02*
X0045879Y0090932D01*
X0045764Y0090134D02*
X0046636Y0090134D01*
X0046967Y0089335D02*
X0045433Y0089335D01*
X0044994Y0088537D02*
X0047406Y0088537D01*
X0048204Y0087738D02*
X0044196Y0087738D01*
X0042708Y0086940D02*
X0049569Y0086940D01*
X0052714Y0081350D02*
X0059364Y0081350D01*
X0059364Y0080551D02*
X0051925Y0080551D01*
X0051117Y0079753D02*
X0059364Y0079753D01*
X0059364Y0078954D02*
X0050318Y0078954D01*
X0053880Y0075760D02*
X0045120Y0075760D01*
X0044189Y0076559D02*
X0054678Y0076559D01*
X0056600Y0073699D02*
X0042500Y0073599D01*
X0040348Y0070969D02*
X0039068Y0070969D01*
X0039398Y0070171D02*
X0059364Y0070171D01*
X0059364Y0070969D02*
X0058652Y0070969D01*
X0059364Y0069372D02*
X0039481Y0069372D01*
X0039459Y0068574D02*
X0058912Y0068574D01*
X0058114Y0067775D02*
X0039129Y0067775D01*
X0039599Y0071768D02*
X0038413Y0071768D01*
X0044652Y0070969D02*
X0054548Y0070969D01*
X0053749Y0071768D02*
X0045401Y0071768D01*
X0038000Y0057199D02*
X0036300Y0055499D01*
X0036300Y0027199D01*
X0034600Y0025499D01*
X0013700Y0025499D01*
X0011900Y0027299D01*
X0011900Y0031899D01*
X0012400Y0032199D01*
X0011751Y0032271D01*
X0011800Y0032320D01*
X0008869Y0028648D02*
X0007300Y0028648D01*
X0007300Y0027850D02*
X0010300Y0027850D01*
X0010300Y0027051D02*
X0007300Y0027051D01*
X0007300Y0026253D02*
X0010683Y0026253D01*
X0011482Y0025454D02*
X0007300Y0025454D01*
X0007300Y0024656D02*
X0012280Y0024656D01*
X0007300Y0023857D02*
X0027777Y0023857D01*
X0027362Y0023059D02*
X0007300Y0023059D01*
X0007300Y0022260D02*
X0027119Y0022260D01*
X0027119Y0021462D02*
X0007300Y0021462D01*
X0007300Y0020663D02*
X0022545Y0020663D01*
X0021184Y0019865D02*
X0007300Y0019865D01*
X0007300Y0019066D02*
X0020531Y0019066D01*
X0020200Y0018268D02*
X0007300Y0018268D01*
X0007300Y0017469D02*
X0020119Y0017469D01*
X0020142Y0016671D02*
X0007300Y0016671D01*
X0007300Y0015872D02*
X0020473Y0015872D01*
X0021044Y0015074D02*
X0007300Y0015074D01*
X0007300Y0014275D02*
X0022206Y0014275D01*
X0023500Y0017399D02*
X0041800Y0017399D01*
X0043600Y0019199D01*
X0042796Y0015872D02*
X0042536Y0015872D01*
X0044404Y0015872D02*
X0045800Y0015872D01*
X0045800Y0015074D02*
X0025956Y0015074D01*
X0024794Y0014275D02*
X0045800Y0014275D01*
X0045800Y0013477D02*
X0007300Y0013477D01*
X0007300Y0012678D02*
X0045800Y0012678D01*
X0045800Y0011880D02*
X0007300Y0011880D01*
X0007300Y0011081D02*
X0035201Y0011081D01*
X0034421Y0010282D02*
X0007300Y0010282D01*
X0007300Y0009484D02*
X0034090Y0009484D01*
X0033919Y0008685D02*
X0007300Y0008685D01*
X0007300Y0007887D02*
X0033919Y0007887D01*
X0034183Y0007088D02*
X0007573Y0007088D01*
X0008372Y0006290D02*
X0034627Y0006290D01*
X0035484Y0005491D02*
X0009170Y0005491D01*
X0007040Y0003096D02*
X0003100Y0003096D01*
X0003100Y0003894D02*
X0006242Y0003894D01*
X0005443Y0004693D02*
X0003100Y0004693D01*
X0003100Y0005491D02*
X0004645Y0005491D01*
X0004100Y0006290D02*
X0003100Y0006290D01*
X0003100Y0007088D02*
X0004100Y0007088D01*
X0004100Y0007887D02*
X0003100Y0007887D01*
X0003100Y0008685D02*
X0004100Y0008685D01*
X0004100Y0009484D02*
X0003100Y0009484D01*
X0003100Y0010282D02*
X0004100Y0010282D01*
X0004100Y0011081D02*
X0003100Y0011081D01*
X0003100Y0011880D02*
X0004100Y0011880D01*
X0004100Y0012678D02*
X0003100Y0012678D01*
X0003100Y0013477D02*
X0004100Y0013477D01*
X0004100Y0014275D02*
X0003100Y0014275D01*
X0003100Y0015074D02*
X0004100Y0015074D01*
X0004100Y0015872D02*
X0003100Y0015872D01*
X0003100Y0016671D02*
X0004100Y0016671D01*
X0004100Y0017469D02*
X0003100Y0017469D01*
X0003100Y0018268D02*
X0004100Y0018268D01*
X0004100Y0019066D02*
X0003100Y0019066D01*
X0003100Y0019865D02*
X0004100Y0019865D01*
X0004100Y0020663D02*
X0003100Y0020663D01*
X0003100Y0021462D02*
X0004100Y0021462D01*
X0004100Y0022260D02*
X0003100Y0022260D01*
X0003100Y0023059D02*
X0004100Y0023059D01*
X0004100Y0023857D02*
X0003100Y0023857D01*
X0003100Y0024656D02*
X0004100Y0024656D01*
X0004100Y0025454D02*
X0003100Y0025454D01*
X0003100Y0026253D02*
X0004100Y0026253D01*
X0004100Y0027051D02*
X0003100Y0027051D01*
X0003100Y0027850D02*
X0004100Y0027850D01*
X0004100Y0028648D02*
X0003100Y0028648D01*
X0003100Y0029447D02*
X0004100Y0029447D01*
X0004100Y0030245D02*
X0003100Y0030245D01*
X0003100Y0031044D02*
X0004100Y0031044D01*
X0004100Y0031842D02*
X0003100Y0031842D01*
X0003100Y0032641D02*
X0004100Y0032641D01*
X0004100Y0033439D02*
X0003100Y0033439D01*
X0003100Y0034238D02*
X0004100Y0034238D01*
X0004100Y0035036D02*
X0003100Y0035036D01*
X0003100Y0035835D02*
X0004100Y0035835D01*
X0004100Y0036633D02*
X0003100Y0036633D01*
X0003100Y0037432D02*
X0004100Y0037432D01*
X0004100Y0038230D02*
X0003100Y0038230D01*
X0003100Y0039029D02*
X0004100Y0039029D01*
X0004100Y0039827D02*
X0003100Y0039827D01*
X0003100Y0040626D02*
X0004100Y0040626D01*
X0004100Y0041424D02*
X0003100Y0041424D01*
X0003100Y0042223D02*
X0004100Y0042223D01*
X0004100Y0043021D02*
X0003100Y0043021D01*
X0003100Y0043820D02*
X0004100Y0043820D01*
X0004100Y0044618D02*
X0003100Y0044618D01*
X0003100Y0045417D02*
X0004100Y0045417D01*
X0004100Y0046215D02*
X0003100Y0046215D01*
X0003100Y0047014D02*
X0004100Y0047014D01*
X0004100Y0047813D02*
X0003100Y0047813D01*
X0003100Y0048611D02*
X0004100Y0048611D01*
X0004100Y0049410D02*
X0003100Y0049410D01*
X0003100Y0050208D02*
X0004100Y0050208D01*
X0004100Y0051007D02*
X0003100Y0051007D01*
X0003100Y0051805D02*
X0004100Y0051805D01*
X0004100Y0052604D02*
X0003100Y0052604D01*
X0003100Y0053402D02*
X0004100Y0053402D01*
X0004100Y0054201D02*
X0003100Y0054201D01*
X0003100Y0054999D02*
X0004100Y0054999D01*
X0004100Y0055798D02*
X0003100Y0055798D01*
X0003100Y0056596D02*
X0004100Y0056596D01*
X0004100Y0057395D02*
X0003100Y0057395D01*
X0003100Y0058193D02*
X0004100Y0058193D01*
X0004100Y0058992D02*
X0003100Y0058992D01*
X0003100Y0059790D02*
X0004100Y0059790D01*
X0004100Y0060589D02*
X0003100Y0060589D01*
X0003100Y0061387D02*
X0004126Y0061387D01*
X0004924Y0062186D02*
X0003100Y0062186D01*
X0003100Y0062984D02*
X0005723Y0062984D01*
X0006521Y0063783D02*
X0003100Y0063783D01*
X0003100Y0064581D02*
X0007320Y0064581D01*
X0008118Y0065380D02*
X0003100Y0065380D01*
X0003100Y0066178D02*
X0010498Y0066178D01*
X0011313Y0066977D02*
X0003100Y0066977D01*
X0003100Y0067775D02*
X0012347Y0067775D01*
X0012119Y0068574D02*
X0003100Y0068574D01*
X0003100Y0069372D02*
X0012119Y0069372D01*
X0012326Y0070171D02*
X0003100Y0070171D01*
X0003100Y0070969D02*
X0012689Y0070969D01*
X0013487Y0071768D02*
X0003100Y0071768D01*
X0008100Y0081699D02*
X0014800Y0081699D01*
X0016700Y0083599D01*
X0016700Y0094599D01*
X0019200Y0097099D01*
X0035000Y0097099D01*
X0032500Y0113099D02*
X0008800Y0113099D01*
X0005300Y0109599D01*
X0005300Y0084499D01*
X0008100Y0081699D01*
X0013181Y0086940D02*
X0020164Y0086940D01*
X0018677Y0087738D02*
X0014668Y0087738D01*
X0015467Y0088537D02*
X0017878Y0088537D01*
X0017440Y0089335D02*
X0015905Y0089335D01*
X0016236Y0090134D02*
X0017109Y0090134D01*
X0016994Y0090932D02*
X0016351Y0090932D01*
X0016351Y0091731D02*
X0016994Y0091731D01*
X0017113Y0092529D02*
X0016232Y0092529D01*
X0015901Y0093328D02*
X0017444Y0093328D01*
X0017888Y0094126D02*
X0015457Y0094126D01*
X0014658Y0094925D02*
X0018687Y0094925D01*
X0020188Y0095723D02*
X0013300Y0095723D01*
X0014086Y0096522D02*
X0052869Y0096522D01*
X0052619Y0097320D02*
X0014884Y0097320D01*
X0015683Y0098119D02*
X0052619Y0098119D01*
X0053800Y0099999D02*
X0056000Y0097799D01*
X0054104Y0094925D02*
X0054028Y0094925D01*
X0053294Y0095723D02*
X0052527Y0095723D01*
X0062719Y0107701D02*
X0003100Y0107701D01*
X0003100Y0108499D02*
X0062719Y0108499D01*
X0062978Y0109298D02*
X0003100Y0109298D01*
X0003100Y0110096D02*
X0063416Y0110096D01*
X0062895Y0106902D02*
X0003100Y0106902D01*
X0003100Y0106104D02*
X0063225Y0106104D01*
X0055800Y0111699D02*
X0051500Y0116099D01*
X0035500Y0116099D01*
X0032500Y0113099D01*
X0020939Y0126865D02*
X0070367Y0126865D01*
X0070417Y0126067D02*
X0020889Y0126067D01*
X0020863Y0125268D02*
X0070467Y0125268D01*
X0070516Y0124470D02*
X0020789Y0124470D01*
X0020792Y0123671D02*
X0070498Y0123671D01*
X0070606Y0122873D02*
X0020631Y0122873D01*
X0020454Y0122074D02*
X0070799Y0122074D01*
X0071030Y0121276D02*
X0020181Y0121276D01*
X0019815Y0120477D02*
X0071407Y0120477D01*
X0071888Y0119679D02*
X0019377Y0119679D01*
X0018823Y0118880D02*
X0072369Y0118880D01*
X0072986Y0118082D02*
X0018200Y0118082D01*
X0017278Y0117283D02*
X0073926Y0117283D01*
X0074866Y0116484D02*
X0016337Y0116484D01*
X0014690Y0115686D02*
X0076599Y0115686D01*
X0070317Y0127664D02*
X0020989Y0127664D01*
X0021039Y0128462D02*
X0070268Y0128462D01*
X0070218Y0129261D02*
X0021089Y0129261D01*
X0021139Y0130059D02*
X0070168Y0130059D01*
X0070118Y0130858D02*
X0021188Y0130858D01*
X0021238Y0131656D02*
X0070068Y0131656D01*
X0062375Y0066977D02*
X0061841Y0066977D01*
X0062100Y0059899D02*
X0066000Y0053899D01*
X0071300Y0053899D01*
X0073900Y0051299D01*
X0074100Y0045999D01*
X0076500Y0046215D02*
X0076500Y0046215D01*
X0076500Y0045417D02*
X0076500Y0045417D01*
X0076500Y0044618D02*
X0076500Y0044618D01*
X0076500Y0043820D02*
X0076500Y0043820D01*
X0076500Y0043021D02*
X0076500Y0043021D01*
X0076500Y0042223D02*
X0076500Y0042223D01*
X0076500Y0041424D02*
X0076511Y0041424D01*
X0076943Y0040626D02*
X0075974Y0040626D01*
X0078900Y0040626D02*
X0079300Y0040626D01*
X0079100Y0040599D02*
X0079100Y0045999D01*
X0078900Y0046215D02*
X0079300Y0046215D01*
X0079000Y0046699D02*
X0079000Y0051299D01*
X0077400Y0052899D01*
X0075000Y0052899D01*
X0068900Y0059099D01*
X0066674Y0055798D02*
X0075719Y0055798D01*
X0075719Y0056596D02*
X0066155Y0056596D01*
X0065636Y0057395D02*
X0075936Y0057395D01*
X0076313Y0058193D02*
X0065117Y0058193D01*
X0062857Y0055798D02*
X0060481Y0055798D01*
X0060481Y0056596D02*
X0062338Y0056596D01*
X0061819Y0057395D02*
X0060223Y0057395D01*
X0059787Y0058193D02*
X0061300Y0058193D01*
X0062100Y0059899D02*
X0016800Y0059899D01*
X0026000Y0055299D02*
X0028400Y0052699D01*
X0028400Y0039599D01*
X0031400Y0036599D01*
X0031436Y0032271D01*
X0031900Y0023199D02*
X0030500Y0021799D01*
X0031900Y0023199D02*
X0039200Y0023199D01*
X0040300Y0024799D01*
X0041300Y0031893D02*
X0041300Y0037799D01*
X0042700Y0039199D01*
X0042700Y0047299D01*
X0041600Y0048399D01*
X0041600Y0052899D01*
X0038000Y0057199D02*
X0055600Y0057199D01*
X0057100Y0056099D01*
X0055015Y0053402D02*
X0053081Y0053402D01*
X0053081Y0052604D02*
X0064934Y0052604D01*
X0064400Y0053402D02*
X0059185Y0053402D01*
X0059973Y0054201D02*
X0063896Y0054201D01*
X0063377Y0054999D02*
X0060304Y0054999D01*
X0062403Y0051549D02*
X0061700Y0050846D01*
X0061700Y0041152D01*
X0062403Y0040449D01*
X0065797Y0040449D01*
X0066500Y0041152D01*
X0066500Y0050846D01*
X0065797Y0051549D01*
X0062403Y0051549D01*
X0061861Y0051007D02*
X0052289Y0051007D01*
X0052782Y0051805D02*
X0071131Y0051805D01*
X0070797Y0051549D02*
X0071500Y0050846D01*
X0071500Y0041152D01*
X0070797Y0040449D01*
X0067403Y0040449D01*
X0066700Y0041152D01*
X0066700Y0050846D01*
X0067403Y0051549D01*
X0070797Y0051549D01*
X0071339Y0051007D02*
X0071861Y0051007D01*
X0071700Y0050208D02*
X0071500Y0050208D01*
X0071500Y0049410D02*
X0071700Y0049410D01*
X0071700Y0048611D02*
X0071500Y0048611D01*
X0071500Y0047813D02*
X0071700Y0047813D01*
X0071700Y0047014D02*
X0071500Y0047014D01*
X0071500Y0046215D02*
X0071700Y0046215D01*
X0071700Y0045417D02*
X0071500Y0045417D01*
X0071500Y0044618D02*
X0071700Y0044618D01*
X0071700Y0043820D02*
X0071500Y0043820D01*
X0071500Y0043021D02*
X0071700Y0043021D01*
X0071700Y0042223D02*
X0071500Y0042223D01*
X0071500Y0041424D02*
X0071700Y0041424D01*
X0072226Y0040626D02*
X0070974Y0040626D01*
X0071721Y0036871D02*
X0069891Y0036871D01*
X0068201Y0036171D01*
X0066907Y0034877D01*
X0066206Y0033186D01*
X0066206Y0031356D01*
X0066907Y0029666D01*
X0068201Y0028372D01*
X0069891Y0027671D01*
X0071721Y0027671D01*
X0073412Y0028372D01*
X0074706Y0029666D01*
X0075406Y0031356D01*
X0075406Y0033186D01*
X0074706Y0034877D01*
X0073412Y0036171D01*
X0071721Y0036871D01*
X0072296Y0036633D02*
X0079159Y0036633D01*
X0077707Y0035835D02*
X0073748Y0035835D01*
X0074547Y0035036D02*
X0076908Y0035036D01*
X0076484Y0034238D02*
X0074971Y0034238D01*
X0075301Y0033439D02*
X0076154Y0033439D01*
X0076049Y0032641D02*
X0075406Y0032641D01*
X0075406Y0031842D02*
X0076049Y0031842D01*
X0076178Y0031044D02*
X0075277Y0031044D01*
X0074946Y0030245D02*
X0076509Y0030245D01*
X0076968Y0029447D02*
X0074487Y0029447D01*
X0073689Y0028648D02*
X0077766Y0028648D01*
X0079303Y0027850D02*
X0072152Y0027850D01*
X0069461Y0027850D02*
X0062564Y0027850D01*
X0062564Y0027051D02*
X0084900Y0027051D01*
X0084900Y0026253D02*
X0062565Y0026253D01*
X0062553Y0025454D02*
X0084900Y0025454D01*
X0084900Y0024656D02*
X0061747Y0024656D01*
X0060929Y0023857D02*
X0084900Y0023857D01*
X0084900Y0023059D02*
X0060123Y0023059D01*
X0059300Y0024499D02*
X0048000Y0024499D01*
X0046200Y0026199D01*
X0046100Y0049599D01*
X0049700Y0053199D01*
X0051315Y0050208D02*
X0061700Y0050208D01*
X0061700Y0049410D02*
X0048173Y0049410D01*
X0047704Y0048611D02*
X0061700Y0048611D01*
X0061700Y0047813D02*
X0047708Y0047813D01*
X0047711Y0047014D02*
X0061700Y0047014D01*
X0061700Y0046215D02*
X0047714Y0046215D01*
X0047718Y0045417D02*
X0061700Y0045417D01*
X0061700Y0044618D02*
X0047721Y0044618D01*
X0047725Y0043820D02*
X0061700Y0043820D01*
X0061700Y0043021D02*
X0047728Y0043021D01*
X0047732Y0042223D02*
X0061700Y0042223D01*
X0061700Y0041424D02*
X0047735Y0041424D01*
X0047738Y0040626D02*
X0062226Y0040626D01*
X0062453Y0036633D02*
X0069317Y0036633D01*
X0067864Y0035835D02*
X0063906Y0035835D01*
X0064704Y0035036D02*
X0067066Y0035036D01*
X0066642Y0034238D02*
X0065128Y0034238D01*
X0065459Y0033439D02*
X0066311Y0033439D01*
X0066206Y0032641D02*
X0065564Y0032641D01*
X0065564Y0031842D02*
X0066206Y0031842D01*
X0066336Y0031044D02*
X0065434Y0031044D01*
X0065104Y0030245D02*
X0066666Y0030245D01*
X0067125Y0029447D02*
X0064645Y0029447D01*
X0063846Y0028648D02*
X0067924Y0028648D01*
X0067911Y0020663D02*
X0062089Y0020663D01*
X0062991Y0019865D02*
X0067009Y0019865D01*
X0066444Y0019066D02*
X0063556Y0019066D01*
X0063887Y0018268D02*
X0066113Y0018268D01*
X0066000Y0017469D02*
X0064000Y0017469D01*
X0064000Y0016671D02*
X0066000Y0016671D01*
X0066220Y0015872D02*
X0063780Y0015872D01*
X0063449Y0015074D02*
X0066551Y0015074D01*
X0067267Y0014275D02*
X0062733Y0014275D01*
X0059916Y0012678D02*
X0049000Y0012678D01*
X0049000Y0011880D02*
X0059118Y0011880D01*
X0058400Y0011081D02*
X0049000Y0011081D01*
X0049000Y0010282D02*
X0057427Y0010282D01*
X0056628Y0009484D02*
X0049000Y0009484D01*
X0048349Y0008685D02*
X0056286Y0008685D01*
X0056000Y0007887D02*
X0047551Y0007887D01*
X0046752Y0007088D02*
X0056000Y0007088D01*
X0056047Y0006290D02*
X0039973Y0006290D01*
X0039116Y0005491D02*
X0056378Y0005491D01*
X0060000Y0007199D02*
X0060000Y0010499D01*
X0058534Y0013477D02*
X0049000Y0013477D01*
X0049000Y0014275D02*
X0057267Y0014275D01*
X0056551Y0015074D02*
X0049000Y0015074D01*
X0049000Y0015872D02*
X0056220Y0015872D01*
X0056000Y0016671D02*
X0049000Y0016671D01*
X0049000Y0017469D02*
X0056000Y0017469D01*
X0056113Y0018268D02*
X0054450Y0018268D01*
X0055249Y0019066D02*
X0056444Y0019066D01*
X0057009Y0019865D02*
X0055590Y0019865D01*
X0055781Y0020663D02*
X0057911Y0020663D01*
X0055781Y0021462D02*
X0084900Y0021462D01*
X0084900Y0022260D02*
X0055537Y0022260D01*
X0058802Y0026253D02*
X0048473Y0026253D01*
X0047796Y0027051D02*
X0059364Y0027051D01*
X0059364Y0027850D02*
X0052467Y0027850D01*
X0054004Y0028648D02*
X0058081Y0028648D01*
X0057283Y0029447D02*
X0054802Y0029447D01*
X0055261Y0030245D02*
X0056824Y0030245D01*
X0056493Y0031044D02*
X0055592Y0031044D01*
X0055721Y0031842D02*
X0056364Y0031842D01*
X0056364Y0032641D02*
X0055721Y0032641D01*
X0055616Y0033439D02*
X0056469Y0033439D01*
X0056799Y0034238D02*
X0055286Y0034238D01*
X0054862Y0035036D02*
X0057223Y0035036D01*
X0058022Y0035835D02*
X0054063Y0035835D01*
X0052611Y0036633D02*
X0059474Y0036633D01*
X0060964Y0032271D02*
X0060964Y0026135D01*
X0059300Y0024499D01*
X0052400Y0020999D02*
X0048800Y0020999D01*
X0047400Y0019599D01*
X0047400Y0009999D01*
X0045800Y0008399D01*
X0037300Y0008399D01*
X0039399Y0011081D02*
X0045800Y0011081D01*
X0045421Y0010282D02*
X0040179Y0010282D01*
X0049000Y0018268D02*
X0050350Y0018268D01*
X0049551Y0019066D02*
X0049130Y0019066D01*
X0049775Y0027850D02*
X0047793Y0027850D01*
X0047790Y0028648D02*
X0048239Y0028648D01*
X0048179Y0035835D02*
X0047759Y0035835D01*
X0047755Y0036633D02*
X0049632Y0036633D01*
X0041279Y0032271D02*
X0041300Y0031893D01*
X0028451Y0019066D02*
X0026469Y0019066D01*
X0025816Y0019865D02*
X0027653Y0019865D01*
X0027311Y0020663D02*
X0024455Y0020663D01*
X0008070Y0029447D02*
X0007300Y0029447D01*
X0007300Y0030245D02*
X0007611Y0030245D01*
X0052614Y0054999D02*
X0053896Y0054999D01*
X0054227Y0054201D02*
X0052945Y0054201D01*
X0066339Y0051007D02*
X0066861Y0051007D01*
X0066700Y0050208D02*
X0066500Y0050208D01*
X0066500Y0049410D02*
X0066700Y0049410D01*
X0066700Y0048611D02*
X0066500Y0048611D01*
X0066500Y0047813D02*
X0066700Y0047813D01*
X0066700Y0047014D02*
X0066500Y0047014D01*
X0066500Y0046215D02*
X0066700Y0046215D01*
X0066700Y0045417D02*
X0066500Y0045417D01*
X0066500Y0044618D02*
X0066700Y0044618D01*
X0066700Y0043820D02*
X0066500Y0043820D01*
X0066500Y0043021D02*
X0066700Y0043021D01*
X0066700Y0042223D02*
X0066500Y0042223D01*
X0066500Y0041424D02*
X0066700Y0041424D01*
X0067226Y0040626D02*
X0065974Y0040626D01*
X0074059Y0053402D02*
X0077115Y0053402D01*
X0076317Y0054201D02*
X0073261Y0054201D01*
X0072462Y0054999D02*
X0075937Y0054999D01*
X0076339Y0051007D02*
X0076663Y0051007D01*
X0076500Y0050208D02*
X0076500Y0050208D01*
X0076500Y0049410D02*
X0076500Y0049410D01*
X0076500Y0048611D02*
X0076500Y0048611D01*
X0076500Y0047813D02*
X0076500Y0047813D01*
X0076500Y0047014D02*
X0076500Y0047014D01*
X0078900Y0047014D02*
X0079300Y0047014D01*
X0079300Y0047813D02*
X0078900Y0047813D01*
X0078900Y0048611D02*
X0079300Y0048611D01*
X0079300Y0049410D02*
X0078900Y0049410D01*
X0078900Y0050208D02*
X0079300Y0050208D01*
X0079300Y0051007D02*
X0078900Y0051007D01*
X0078900Y0045417D02*
X0079300Y0045417D01*
X0079300Y0044618D02*
X0078900Y0044618D01*
X0078900Y0043820D02*
X0079300Y0043820D01*
X0079300Y0043021D02*
X0078900Y0043021D01*
X0078900Y0042223D02*
X0079300Y0042223D01*
X0079300Y0041424D02*
X0078900Y0041424D01*
X0079100Y0040599D02*
X0075800Y0037299D01*
X0075800Y0025599D01*
X0080000Y0021399D01*
X0080000Y0017199D01*
X0080400Y0017469D02*
X0084900Y0017469D01*
X0084189Y0017599D02*
X0084097Y0018182D01*
X0083892Y0018811D01*
X0083592Y0019400D01*
X0083204Y0019935D01*
X0082736Y0020402D01*
X0082201Y0020791D01*
X0081612Y0021091D01*
X0080984Y0021295D01*
X0080400Y0021388D01*
X0080400Y0017599D01*
X0084189Y0017599D01*
X0084069Y0018268D02*
X0084900Y0018268D01*
X0084900Y0019066D02*
X0083762Y0019066D01*
X0083255Y0019865D02*
X0084900Y0019865D01*
X0084900Y0020663D02*
X0082377Y0020663D01*
X0080400Y0020663D02*
X0079600Y0020663D01*
X0079600Y0019865D02*
X0080400Y0019865D01*
X0080400Y0019066D02*
X0079600Y0019066D01*
X0079600Y0018268D02*
X0080400Y0018268D01*
X0079600Y0017469D02*
X0074000Y0017469D01*
X0074000Y0016671D02*
X0075831Y0016671D01*
X0076015Y0015872D02*
X0073780Y0015872D01*
X0073449Y0015074D02*
X0076369Y0015074D01*
X0076984Y0014275D02*
X0072733Y0014275D01*
X0073887Y0018268D02*
X0075931Y0018268D01*
X0076238Y0019066D02*
X0073556Y0019066D01*
X0072991Y0019865D02*
X0076745Y0019865D01*
X0077623Y0020663D02*
X0072089Y0020663D01*
X0081995Y0027850D02*
X0084900Y0027850D01*
X0084900Y0028648D02*
X0083531Y0028648D01*
X0084330Y0029447D02*
X0084900Y0029447D01*
X0084900Y0030245D02*
X0084789Y0030245D01*
X0088100Y0030245D02*
X0088275Y0030245D01*
X0088275Y0029447D02*
X0088100Y0029447D01*
X0088100Y0028648D02*
X0088275Y0028648D01*
X0088275Y0027850D02*
X0088100Y0027850D01*
X0088100Y0027051D02*
X0088275Y0027051D01*
X0088275Y0026253D02*
X0088100Y0026253D01*
X0088100Y0025454D02*
X0088275Y0025454D01*
X0088275Y0024656D02*
X0088100Y0024656D01*
X0088100Y0023857D02*
X0088275Y0023857D01*
X0088275Y0023059D02*
X0088100Y0023059D01*
X0088100Y0022260D02*
X0088275Y0022260D01*
X0088275Y0021462D02*
X0088100Y0021462D01*
X0088100Y0020663D02*
X0088275Y0020663D01*
X0088275Y0019865D02*
X0088100Y0019865D01*
X0088100Y0019066D02*
X0088275Y0019066D01*
X0088275Y0018268D02*
X0088100Y0018268D01*
X0088100Y0017469D02*
X0088275Y0017469D01*
X0088275Y0016671D02*
X0088100Y0016671D01*
X0088100Y0015872D02*
X0088275Y0015872D01*
X0088275Y0015074D02*
X0088100Y0015074D01*
X0088100Y0014275D02*
X0088275Y0014275D01*
X0088275Y0013477D02*
X0087540Y0013477D01*
X0088275Y0012678D02*
X0086742Y0012678D01*
X0085943Y0011880D02*
X0088275Y0011880D01*
X0088275Y0011081D02*
X0085145Y0011081D01*
X0083372Y0009484D02*
X0088275Y0009484D01*
X0088275Y0010282D02*
X0082573Y0010282D01*
X0083714Y0008685D02*
X0088275Y0008685D01*
X0088275Y0007887D02*
X0084000Y0007887D01*
X0084000Y0007088D02*
X0088275Y0007088D01*
X0088275Y0006290D02*
X0083953Y0006290D01*
X0083622Y0005491D02*
X0088275Y0005491D01*
X0088275Y0004693D02*
X0083151Y0004693D01*
X0083016Y0014275D02*
X0083813Y0014275D01*
X0083631Y0015074D02*
X0084612Y0015074D01*
X0084900Y0015872D02*
X0083985Y0015872D01*
X0084169Y0016671D02*
X0084900Y0016671D01*
X0088100Y0031044D02*
X0088275Y0031044D01*
X0088275Y0031842D02*
X0088100Y0031842D01*
X0088100Y0032641D02*
X0088275Y0032641D01*
X0088275Y0033439D02*
X0088100Y0033439D01*
X0088100Y0034238D02*
X0088275Y0034238D01*
X0088275Y0035036D02*
X0088100Y0035036D01*
X0088275Y0035835D02*
X0087427Y0035835D01*
X0086628Y0036633D02*
X0088275Y0036633D01*
X0006877Y0115686D02*
X0003100Y0115686D01*
X0003100Y0116484D02*
X0005448Y0116484D01*
X0004370Y0117283D02*
X0003100Y0117283D01*
X0003100Y0118082D02*
X0003569Y0118082D01*
D18*
X0029500Y0073999D03*
X0036100Y0069299D03*
X0042500Y0073599D03*
X0041600Y0052899D03*
X0049700Y0053199D03*
X0057100Y0056099D03*
X0068900Y0059099D03*
X0079100Y0056199D03*
X0070800Y0081799D03*
X0056600Y0073699D03*
X0056000Y0097799D03*
X0055800Y0111699D03*
X0066100Y0107999D03*
X0026000Y0055299D03*
X0016800Y0059899D03*
X0013200Y0064099D03*
X0015500Y0068999D03*
X0022300Y0070899D03*
X0040300Y0024799D03*
X0043600Y0019199D03*
X0037300Y0008399D03*
X0030500Y0021799D03*
X0023500Y0017399D03*
X0052400Y0020999D03*
D19*
X0063800Y0101299D03*
M02*
