G75*
%MOIN*%
%OFA0B0*%
%FSLAX25Y25*%
%IPPOS*%
%LPD*%
%AMOC8*
5,1,8,0,0,1.08239X$1,22.5*
%
%ADD10R,0.03937X0.18110*%
%ADD11R,0.06299X0.12598*%
%ADD12R,0.03543X0.02756*%
%ADD13C,0.05600*%
%ADD14C,0.06800*%
%ADD15R,0.02600X0.08000*%
%ADD16C,0.12661*%
%ADD17C,0.01200*%
%ADD18C,0.00800*%
%ADD19C,0.04362*%
%ADD20C,0.04000*%
D10*
X0041650Y0105732D03*
X0049524Y0105732D03*
D11*
X0058973Y0126204D03*
X0032201Y0126204D03*
D12*
X0074200Y0070158D03*
X0074200Y0065040D03*
D13*
X0070000Y0017199D03*
X0070000Y0007199D03*
X0060000Y0007199D03*
X0060000Y0017199D03*
X0080000Y0017199D03*
X0080000Y0007199D03*
D14*
X0080649Y0032271D03*
X0070806Y0032271D03*
X0060964Y0032271D03*
X0051121Y0032271D03*
X0041279Y0032271D03*
X0031436Y0032271D03*
X0021594Y0032271D03*
X0011751Y0032271D03*
X0011751Y0091326D03*
X0021594Y0091326D03*
X0031436Y0091326D03*
X0041279Y0091326D03*
X0051121Y0091326D03*
X0060964Y0091326D03*
X0070806Y0091326D03*
X0080649Y0091326D03*
D15*
X0066000Y0081799D03*
X0061000Y0081799D03*
X0056000Y0081799D03*
X0051000Y0081799D03*
X0046000Y0081799D03*
X0041000Y0081799D03*
X0036000Y0081799D03*
X0031000Y0081799D03*
X0026000Y0081799D03*
X0021000Y0081799D03*
X0016000Y0081799D03*
X0011000Y0081799D03*
X0011000Y0042199D03*
X0016000Y0042199D03*
X0021000Y0042199D03*
X0026000Y0042199D03*
X0031000Y0042199D03*
X0036000Y0042199D03*
X0041000Y0042199D03*
X0046000Y0042199D03*
X0051000Y0042199D03*
X0056000Y0042199D03*
X0061000Y0042199D03*
X0066000Y0042199D03*
D16*
X0080300Y0124799D03*
X0011000Y0124699D03*
D17*
X0014822Y0117754D02*
X0006932Y0117754D01*
X0007331Y0117514D02*
X0006249Y0118166D01*
X0005286Y0118985D01*
X0004467Y0119948D01*
X0003815Y0121030D01*
X0003345Y0122203D01*
X0003071Y0123437D01*
X0003000Y0124699D01*
X0002500Y0132699D01*
X0019500Y0132699D01*
X0019000Y0124699D01*
X0018879Y0123456D01*
X0018571Y0122246D01*
X0018081Y0121098D01*
X0017423Y0120037D01*
X0016610Y0119089D01*
X0015662Y0118276D01*
X0014601Y0117618D01*
X0013453Y0117128D01*
X0012243Y0116819D01*
X0011000Y0116699D01*
X0009738Y0116770D01*
X0008504Y0117044D01*
X0007331Y0117514D01*
X0005323Y0118953D02*
X0016451Y0118953D01*
X0017494Y0120151D02*
X0004344Y0120151D01*
X0003687Y0121350D02*
X0018189Y0121350D01*
X0018648Y0122548D02*
X0003269Y0122548D01*
X0003054Y0123747D02*
X0018908Y0123747D01*
X0019015Y0124946D02*
X0002985Y0124946D01*
X0002910Y0126144D02*
X0019090Y0126144D01*
X0019165Y0127343D02*
X0002835Y0127343D01*
X0002760Y0128541D02*
X0019240Y0128541D01*
X0019315Y0129740D02*
X0002685Y0129740D01*
X0002610Y0130938D02*
X0019390Y0130938D01*
X0019465Y0132137D02*
X0002535Y0132137D01*
X0071800Y0132799D02*
X0088800Y0132799D01*
X0088300Y0124799D01*
X0088179Y0123556D01*
X0087871Y0122346D01*
X0087381Y0121198D01*
X0086723Y0120137D01*
X0085910Y0119189D01*
X0084962Y0118376D01*
X0083901Y0117718D01*
X0082753Y0117228D01*
X0081543Y0116919D01*
X0080300Y0116799D01*
X0079038Y0116870D01*
X0077804Y0117144D01*
X0076631Y0117614D01*
X0075549Y0118266D01*
X0074586Y0119085D01*
X0073767Y0120048D01*
X0073115Y0121130D01*
X0072645Y0122303D01*
X0072371Y0123537D01*
X0072300Y0124799D01*
X0071800Y0132799D01*
X0071841Y0132137D02*
X0088759Y0132137D01*
X0088684Y0130938D02*
X0071916Y0130938D01*
X0071991Y0129740D02*
X0088609Y0129740D01*
X0088534Y0128541D02*
X0072066Y0128541D01*
X0072141Y0127343D02*
X0088459Y0127343D01*
X0088384Y0126144D02*
X0072216Y0126144D01*
X0072291Y0124946D02*
X0088309Y0124946D01*
X0088198Y0123747D02*
X0072360Y0123747D01*
X0072591Y0122548D02*
X0087922Y0122548D01*
X0087446Y0121350D02*
X0073027Y0121350D01*
X0073705Y0120151D02*
X0086732Y0120151D01*
X0085634Y0118953D02*
X0074741Y0118953D01*
X0076398Y0117754D02*
X0083961Y0117754D01*
D18*
X0003100Y0118729D02*
X0003100Y0002699D01*
X0088275Y0002699D01*
X0088275Y0119182D01*
X0088179Y0119070D01*
X0087858Y0118554D01*
X0087705Y0118518D01*
X0087659Y0118464D01*
X0087647Y0118308D01*
X0087186Y0117913D01*
X0086791Y0117451D01*
X0086634Y0117439D01*
X0086581Y0117393D01*
X0086545Y0117241D01*
X0086029Y0116920D01*
X0085568Y0116525D01*
X0085411Y0116537D01*
X0085351Y0116499D01*
X0085293Y0116354D01*
X0084734Y0116116D01*
X0084218Y0115795D01*
X0084065Y0115831D01*
X0084000Y0115803D01*
X0083920Y0115668D01*
X0083331Y0115518D01*
X0082772Y0115280D01*
X0082627Y0115338D01*
X0082558Y0115321D01*
X0082459Y0115200D01*
X0081854Y0115141D01*
X0081265Y0114991D01*
X0081130Y0115071D01*
X0081060Y0115064D01*
X0080943Y0114960D01*
X0080336Y0114994D01*
X0079732Y0114935D01*
X0079611Y0115035D01*
X0079515Y0115040D01*
X0079376Y0114952D01*
X0078791Y0115081D01*
X0078192Y0115115D01*
X0078082Y0115239D01*
X0077980Y0115261D01*
X0077828Y0115196D01*
X0077272Y0115419D01*
X0076686Y0115549D01*
X0076597Y0115689D01*
X0076501Y0115727D01*
X0076340Y0115687D01*
X0075827Y0115997D01*
X0075270Y0116219D01*
X0075205Y0116372D01*
X0075116Y0116425D01*
X0074951Y0116412D01*
X0074494Y0116800D01*
X0073981Y0117109D01*
X0073941Y0117270D01*
X0073862Y0117337D01*
X0073697Y0117351D01*
X0073309Y0117808D01*
X0072852Y0118196D01*
X0072839Y0118361D01*
X0072771Y0118440D01*
X0072611Y0118480D01*
X0072301Y0118993D01*
X0071913Y0119450D01*
X0071926Y0119615D01*
X0071873Y0119704D01*
X0071721Y0119769D01*
X0071498Y0120326D01*
X0071188Y0120839D01*
X0071228Y0121000D01*
X0071190Y0121096D01*
X0071050Y0121185D01*
X0070920Y0121770D01*
X0070697Y0122327D01*
X0070763Y0122479D01*
X0070740Y0122581D01*
X0070617Y0122691D01*
X0070583Y0123289D01*
X0070453Y0123875D01*
X0070542Y0124014D01*
X0070503Y0124691D01*
X0070046Y0132007D01*
X0070000Y0132053D01*
X0070000Y0132259D01*
X0063323Y0132259D01*
X0063323Y0119408D01*
X0063213Y0119299D01*
X0063563Y0119299D01*
X0065700Y0117162D01*
X0065700Y0111380D01*
X0066773Y0111380D01*
X0067088Y0111249D01*
X0068737Y0112899D01*
X0079063Y0112899D01*
X0080000Y0111962D01*
X0081400Y0110562D01*
X0081400Y0098036D01*
X0080463Y0097099D01*
X0078977Y0095613D01*
X0079734Y0095926D01*
X0081564Y0095926D01*
X0083255Y0095226D01*
X0084548Y0093932D01*
X0085249Y0092241D01*
X0085249Y0090411D01*
X0084548Y0088721D01*
X0083545Y0087717D01*
X0084500Y0086762D01*
X0084500Y0061536D01*
X0082200Y0059236D01*
X0081522Y0058558D01*
X0081966Y0058114D01*
X0082481Y0056871D01*
X0082481Y0055526D01*
X0081966Y0054284D01*
X0081015Y0053332D01*
X0080700Y0053202D01*
X0080700Y0051336D01*
X0079763Y0050399D01*
X0079763Y0050399D01*
X0079500Y0050136D01*
X0079500Y0050136D01*
X0078563Y0049199D01*
X0068363Y0049199D01*
X0067600Y0048436D01*
X0067600Y0047399D01*
X0067797Y0047399D01*
X0068500Y0046696D01*
X0068500Y0037702D01*
X0067797Y0036999D01*
X0064203Y0036999D01*
X0063500Y0037702D01*
X0063500Y0046696D01*
X0064203Y0047399D01*
X0064400Y0047399D01*
X0064400Y0049762D01*
X0066537Y0051899D01*
X0064863Y0051899D01*
X0063000Y0050036D01*
X0063000Y0047196D01*
X0063500Y0046696D01*
X0063500Y0037702D01*
X0062797Y0036999D01*
X0059203Y0036999D01*
X0058500Y0037702D01*
X0058500Y0045899D01*
X0058500Y0045899D01*
X0058500Y0037702D01*
X0057797Y0036999D01*
X0056015Y0036999D01*
X0056701Y0036399D01*
X0056763Y0036399D01*
X0057194Y0035968D01*
X0057652Y0035567D01*
X0057656Y0035505D01*
X0057674Y0035487D01*
X0058358Y0036171D01*
X0060049Y0036871D01*
X0061879Y0036871D01*
X0063569Y0036171D01*
X0064863Y0034877D01*
X0065564Y0033186D01*
X0065564Y0031356D01*
X0064863Y0029666D01*
X0063569Y0028372D01*
X0061879Y0027671D01*
X0060049Y0027671D01*
X0058358Y0028372D01*
X0057700Y0029030D01*
X0057700Y0025536D01*
X0056463Y0024299D01*
X0068137Y0024299D01*
X0069200Y0025362D01*
X0069200Y0027958D01*
X0068201Y0028372D01*
X0066907Y0029666D01*
X0066206Y0031356D01*
X0066206Y0033186D01*
X0066907Y0034877D01*
X0068201Y0036171D01*
X0069891Y0036871D01*
X0071721Y0036871D01*
X0073412Y0036171D01*
X0074706Y0034877D01*
X0075406Y0033186D01*
X0075406Y0031356D01*
X0074706Y0029666D01*
X0073412Y0028372D01*
X0072400Y0027952D01*
X0072400Y0024036D01*
X0070400Y0022036D01*
X0069563Y0021199D01*
X0070796Y0021199D01*
X0072266Y0020590D01*
X0073391Y0019465D01*
X0073600Y0018960D01*
X0073600Y0021462D01*
X0069826Y0021462D01*
X0070624Y0022260D02*
X0074399Y0022260D01*
X0075197Y0023059D02*
X0071423Y0023059D01*
X0072221Y0023857D02*
X0075996Y0023857D01*
X0076794Y0024656D02*
X0072400Y0024656D01*
X0072400Y0025454D02*
X0077593Y0025454D01*
X0078391Y0026253D02*
X0072400Y0026253D01*
X0072400Y0027051D02*
X0079049Y0027051D01*
X0079049Y0026910D02*
X0079049Y0027955D01*
X0078043Y0028372D01*
X0076749Y0029666D01*
X0076049Y0031356D01*
X0076049Y0033186D01*
X0076749Y0034877D01*
X0078043Y0036171D01*
X0079734Y0036871D01*
X0081564Y0036871D01*
X0083255Y0036171D01*
X0084548Y0034877D01*
X0085249Y0033186D01*
X0085249Y0031356D01*
X0084548Y0029666D01*
X0083255Y0028372D01*
X0082249Y0027955D01*
X0082249Y0025585D01*
X0081312Y0024648D01*
X0076800Y0020136D01*
X0076800Y0019939D01*
X0077264Y0020402D01*
X0077799Y0020791D01*
X0078388Y0021091D01*
X0079016Y0021295D01*
X0079600Y0021388D01*
X0079600Y0017599D01*
X0080400Y0017599D01*
X0080400Y0021388D01*
X0080984Y0021295D01*
X0081612Y0021091D01*
X0082201Y0020791D01*
X0082736Y0020402D01*
X0083204Y0019935D01*
X0083592Y0019400D01*
X0083892Y0018811D01*
X0084097Y0018182D01*
X0084189Y0017599D01*
X0080400Y0017599D01*
X0080400Y0016799D01*
X0084189Y0016799D01*
X0084097Y0016215D01*
X0083892Y0015587D01*
X0083592Y0014998D01*
X0083204Y0014463D01*
X0082736Y0013995D01*
X0082201Y0013607D01*
X0081612Y0013307D01*
X0080984Y0013102D01*
X0080400Y0013010D01*
X0080400Y0016799D01*
X0079600Y0016799D01*
X0079600Y0013010D01*
X0079016Y0013102D01*
X0078388Y0013307D01*
X0077799Y0013607D01*
X0077264Y0013995D01*
X0076800Y0014459D01*
X0076800Y0013136D01*
X0075200Y0011536D01*
X0074263Y0010599D01*
X0072244Y0010599D01*
X0072266Y0010590D01*
X0073391Y0009465D01*
X0074000Y0007995D01*
X0074000Y0006403D01*
X0073391Y0004933D01*
X0072266Y0003808D01*
X0070796Y0003199D01*
X0069204Y0003199D01*
X0067734Y0003808D01*
X0066609Y0004933D01*
X0066000Y0006403D01*
X0066000Y0007995D01*
X0066609Y0009465D01*
X0067734Y0010590D01*
X0067756Y0010599D01*
X0062244Y0010599D01*
X0062266Y0010590D01*
X0063391Y0009465D01*
X0064000Y0007995D01*
X0064000Y0006403D01*
X0063391Y0004933D01*
X0062266Y0003808D01*
X0060796Y0003199D01*
X0059204Y0003199D01*
X0057734Y0003808D01*
X0056609Y0004933D01*
X0056000Y0006403D01*
X0056000Y0007995D01*
X0056609Y0009465D01*
X0057734Y0010590D01*
X0057756Y0010599D01*
X0039882Y0010599D01*
X0040166Y0010314D01*
X0040681Y0009071D01*
X0040681Y0007726D01*
X0040166Y0006484D01*
X0039215Y0005532D01*
X0037973Y0005018D01*
X0036627Y0005018D01*
X0035385Y0005532D01*
X0034434Y0006484D01*
X0033919Y0007726D01*
X0033919Y0009071D01*
X0034137Y0009599D01*
X0019139Y0009599D01*
X0019122Y0009582D01*
X0018479Y0009599D01*
X0017837Y0009599D01*
X0017820Y0009616D01*
X0017796Y0009616D01*
X0017354Y0010082D01*
X0016900Y0010536D01*
X0016900Y0010560D01*
X0015452Y0012085D01*
X0014997Y0012543D01*
X0014997Y0012563D01*
X0014984Y0012577D01*
X0015000Y0013223D01*
X0015073Y0029088D01*
X0014357Y0028372D01*
X0012666Y0027671D01*
X0010836Y0027671D01*
X0009145Y0028372D01*
X0007851Y0029666D01*
X0007151Y0031356D01*
X0007151Y0033186D01*
X0007851Y0034877D01*
X0009145Y0036171D01*
X0010836Y0036871D01*
X0012666Y0036871D01*
X0014357Y0036171D01*
X0015100Y0035428D01*
X0015100Y0035562D01*
X0015103Y0035565D01*
X0015103Y0035569D01*
X0015571Y0036033D01*
X0016537Y0036999D01*
X0014203Y0036999D01*
X0013500Y0037702D01*
X0013500Y0046696D01*
X0014203Y0047399D01*
X0014400Y0047399D01*
X0014400Y0050562D01*
X0015137Y0051299D01*
X0013263Y0051299D01*
X0012600Y0050636D01*
X0012600Y0047399D01*
X0012797Y0047399D01*
X0013500Y0046696D01*
X0013500Y0037702D01*
X0012797Y0036999D01*
X0009203Y0036999D01*
X0008500Y0037702D01*
X0008500Y0046696D01*
X0009203Y0047399D01*
X0009400Y0047399D01*
X0009400Y0051962D01*
X0010337Y0052899D01*
X0010337Y0052899D01*
X0011937Y0054499D01*
X0014937Y0054499D01*
X0015200Y0054762D01*
X0015200Y0056902D01*
X0014885Y0057032D01*
X0013934Y0057984D01*
X0013419Y0059226D01*
X0013419Y0060571D01*
X0013480Y0060718D01*
X0012527Y0060718D01*
X0011285Y0061232D01*
X0010334Y0062184D01*
X0009819Y0063426D01*
X0009819Y0064771D01*
X0009827Y0064791D01*
X0009474Y0065080D01*
X0009465Y0065171D01*
X0009400Y0065236D01*
X0009400Y0065819D01*
X0009342Y0066399D01*
X0009400Y0066470D01*
X0009400Y0076599D01*
X0009203Y0076599D01*
X0008500Y0077302D01*
X0008500Y0086296D01*
X0009203Y0086999D01*
X0010178Y0086999D01*
X0009145Y0087427D01*
X0007851Y0088721D01*
X0007151Y0090411D01*
X0007151Y0092241D01*
X0007851Y0093932D01*
X0009145Y0095226D01*
X0010836Y0095926D01*
X0012666Y0095926D01*
X0014357Y0095226D01*
X0015200Y0094383D01*
X0015200Y0095362D01*
X0016137Y0096299D01*
X0017737Y0097899D01*
X0037063Y0097899D01*
X0038482Y0096480D01*
X0038482Y0115284D01*
X0039185Y0115987D01*
X0040800Y0115987D01*
X0040800Y0116862D01*
X0041737Y0117799D01*
X0043237Y0119299D01*
X0054733Y0119299D01*
X0054623Y0119408D01*
X0054623Y0132259D01*
X0036551Y0132259D01*
X0036551Y0119408D01*
X0035848Y0118705D01*
X0028555Y0118705D01*
X0027852Y0119408D01*
X0027852Y0132259D01*
X0021300Y0132259D01*
X0021300Y0131953D01*
X0021254Y0131907D01*
X0020841Y0125295D01*
X0020864Y0125267D01*
X0020795Y0124556D01*
X0020750Y0123842D01*
X0020746Y0123839D01*
X0020808Y0123734D01*
X0020658Y0123145D01*
X0020599Y0122540D01*
X0020478Y0122441D01*
X0020460Y0122372D01*
X0020519Y0122227D01*
X0020281Y0121668D01*
X0020131Y0121079D01*
X0019996Y0120999D01*
X0019968Y0120934D01*
X0020004Y0120781D01*
X0019683Y0120265D01*
X0019445Y0119706D01*
X0019300Y0119648D01*
X0019262Y0119587D01*
X0019274Y0119431D01*
X0018879Y0118970D01*
X0018558Y0118454D01*
X0018405Y0118418D01*
X0018359Y0118364D01*
X0018347Y0118208D01*
X0017886Y0117813D01*
X0017491Y0117351D01*
X0017334Y0117339D01*
X0017281Y0117293D01*
X0017245Y0117141D01*
X0016729Y0116820D01*
X0016268Y0116425D01*
X0016111Y0116437D01*
X0016051Y0116399D01*
X0015993Y0116254D01*
X0015434Y0116016D01*
X0014918Y0115695D01*
X0014765Y0115731D01*
X0014700Y0115703D01*
X0014620Y0115568D01*
X0014031Y0115418D01*
X0013472Y0115180D01*
X0013327Y0115238D01*
X0013258Y0115221D01*
X0013159Y0115100D01*
X0012554Y0115041D01*
X0011965Y0114891D01*
X0011830Y0114971D01*
X0011760Y0114964D01*
X0011643Y0114860D01*
X0011036Y0114894D01*
X0010432Y0114835D01*
X0010311Y0114935D01*
X0010215Y0114940D01*
X0010076Y0114852D01*
X0009491Y0114981D01*
X0008892Y0115015D01*
X0008782Y0115139D01*
X0008680Y0115161D01*
X0008528Y0115096D01*
X0007972Y0115319D01*
X0007386Y0115449D01*
X0007297Y0115589D01*
X0007201Y0115627D01*
X0007040Y0115587D01*
X0006527Y0115897D01*
X0005970Y0116119D01*
X0005905Y0116272D01*
X0005816Y0116325D01*
X0005651Y0116312D01*
X0005194Y0116700D01*
X0004681Y0117009D01*
X0004641Y0117170D01*
X0004562Y0117237D01*
X0004397Y0117251D01*
X0004009Y0117708D01*
X0003552Y0118096D01*
X0003539Y0118261D01*
X0003471Y0118340D01*
X0003311Y0118380D01*
X0003100Y0118729D01*
X0003100Y0118082D02*
X0003569Y0118082D01*
X0003100Y0117283D02*
X0004370Y0117283D01*
X0005448Y0116484D02*
X0003100Y0116484D01*
X0003100Y0115686D02*
X0006877Y0115686D01*
X0009914Y0114887D02*
X0003100Y0114887D01*
X0003100Y0114089D02*
X0038482Y0114089D01*
X0038482Y0114887D02*
X0011674Y0114887D01*
X0011150Y0114887D02*
X0010970Y0114887D01*
X0010368Y0114887D02*
X0010132Y0114887D01*
X0014690Y0115686D02*
X0038884Y0115686D01*
X0038482Y0113290D02*
X0003100Y0113290D01*
X0003100Y0112492D02*
X0038482Y0112492D01*
X0038482Y0111693D02*
X0003100Y0111693D01*
X0003100Y0110895D02*
X0038482Y0110895D01*
X0038482Y0110096D02*
X0003100Y0110096D01*
X0003100Y0109298D02*
X0038482Y0109298D01*
X0038482Y0108499D02*
X0003100Y0108499D01*
X0003100Y0107701D02*
X0038482Y0107701D01*
X0038482Y0106902D02*
X0003100Y0106902D01*
X0003100Y0106104D02*
X0038482Y0106104D01*
X0038482Y0105305D02*
X0003100Y0105305D01*
X0003100Y0104507D02*
X0038482Y0104507D01*
X0038482Y0103708D02*
X0003100Y0103708D01*
X0003100Y0102910D02*
X0038482Y0102910D01*
X0038482Y0102111D02*
X0003100Y0102111D01*
X0003100Y0101313D02*
X0038482Y0101313D01*
X0038482Y0100514D02*
X0003100Y0100514D01*
X0003100Y0099716D02*
X0038482Y0099716D01*
X0038482Y0098917D02*
X0003100Y0098917D01*
X0003100Y0098119D02*
X0038482Y0098119D01*
X0038482Y0097320D02*
X0037641Y0097320D01*
X0038440Y0096522D02*
X0038482Y0096522D01*
X0036400Y0096299D02*
X0040900Y0091799D01*
X0041600Y0091899D01*
X0041500Y0091548D01*
X0041279Y0091326D01*
X0039706Y0086999D02*
X0038673Y0087427D01*
X0037379Y0088721D01*
X0036679Y0090411D01*
X0036679Y0092241D01*
X0037123Y0093313D01*
X0035737Y0094699D01*
X0034569Y0094699D01*
X0035336Y0093932D01*
X0036036Y0092241D01*
X0036036Y0090411D01*
X0035336Y0088721D01*
X0034042Y0087427D01*
X0032859Y0086937D01*
X0033500Y0086296D01*
X0033500Y0077302D01*
X0034203Y0076599D01*
X0035537Y0076599D01*
X0037337Y0074799D01*
X0039337Y0074799D01*
X0039119Y0074271D01*
X0039119Y0072926D01*
X0039634Y0071684D01*
X0040585Y0070732D01*
X0041827Y0070218D01*
X0043173Y0070218D01*
X0044400Y0070726D01*
X0044400Y0064462D01*
X0044337Y0064399D01*
X0042237Y0064399D01*
X0040937Y0063099D01*
X0040000Y0062162D01*
X0040000Y0055896D01*
X0039685Y0055765D01*
X0038734Y0054814D01*
X0038219Y0053571D01*
X0038219Y0052226D01*
X0038734Y0050984D01*
X0039685Y0050032D01*
X0040927Y0049518D01*
X0042273Y0049518D01*
X0043515Y0050032D01*
X0044466Y0050984D01*
X0044981Y0052226D01*
X0044981Y0053571D01*
X0044466Y0054814D01*
X0043515Y0055765D01*
X0043200Y0055896D01*
X0043200Y0060836D01*
X0043563Y0061199D01*
X0045663Y0061199D01*
X0046600Y0062136D01*
X0047600Y0063136D01*
X0047600Y0076599D01*
X0047797Y0076599D01*
X0048500Y0077302D01*
X0049100Y0076702D01*
X0049100Y0056962D01*
X0048500Y0056361D01*
X0047785Y0056065D01*
X0046834Y0055114D01*
X0046319Y0053871D01*
X0046319Y0052526D01*
X0046834Y0051284D01*
X0047785Y0050332D01*
X0049027Y0049818D01*
X0050373Y0049818D01*
X0051615Y0050332D01*
X0052566Y0051284D01*
X0053081Y0052526D01*
X0053081Y0053871D01*
X0052566Y0055114D01*
X0052172Y0055508D01*
X0052300Y0055636D01*
X0052300Y0076599D01*
X0052797Y0076599D01*
X0053500Y0077302D01*
X0054203Y0076599D01*
X0054766Y0076599D01*
X0054685Y0076565D01*
X0053734Y0075614D01*
X0053219Y0074371D01*
X0053219Y0073026D01*
X0053734Y0071784D01*
X0054685Y0070832D01*
X0055927Y0070318D01*
X0057273Y0070318D01*
X0058515Y0070832D01*
X0059466Y0071784D01*
X0059597Y0072099D01*
X0061637Y0072099D01*
X0064666Y0069070D01*
X0065129Y0068602D01*
X0065134Y0068602D01*
X0065137Y0068599D01*
X0065796Y0068599D01*
X0071228Y0068572D01*
X0071228Y0068283D01*
X0071912Y0067599D01*
X0071228Y0066915D01*
X0071228Y0063165D01*
X0071931Y0062462D01*
X0076469Y0062462D01*
X0077172Y0063165D01*
X0077172Y0063417D01*
X0078932Y0063404D01*
X0078937Y0063399D01*
X0079593Y0063399D01*
X0080251Y0063394D01*
X0080256Y0063399D01*
X0080263Y0063399D01*
X0080726Y0063863D01*
X0081195Y0064324D01*
X0081195Y0064331D01*
X0081300Y0064436D01*
X0081300Y0062862D01*
X0079937Y0061499D01*
X0075037Y0061499D01*
X0074100Y0060562D01*
X0072437Y0058899D01*
X0071500Y0057962D01*
X0071500Y0055662D01*
X0070937Y0055099D01*
X0063537Y0055099D01*
X0062600Y0054162D01*
X0061400Y0052962D01*
X0061400Y0055462D01*
X0060481Y0056380D01*
X0060481Y0056771D01*
X0059966Y0058014D01*
X0059015Y0058965D01*
X0057773Y0059480D01*
X0056427Y0059480D01*
X0055185Y0058965D01*
X0054234Y0058014D01*
X0053719Y0056771D01*
X0053719Y0055426D01*
X0054234Y0054184D01*
X0055185Y0053232D01*
X0056427Y0052718D01*
X0057773Y0052718D01*
X0058200Y0052895D01*
X0058200Y0049662D01*
X0057637Y0049099D01*
X0055637Y0049099D01*
X0054417Y0047878D01*
X0054250Y0047847D01*
X0053962Y0047423D01*
X0053600Y0047062D01*
X0053600Y0046891D01*
X0053555Y0046825D01*
X0053420Y0047058D01*
X0053160Y0047319D01*
X0052840Y0047503D01*
X0052484Y0047599D01*
X0051250Y0047599D01*
X0051250Y0042449D01*
X0050750Y0042449D01*
X0050750Y0047599D01*
X0049516Y0047599D01*
X0049160Y0047503D01*
X0048840Y0047319D01*
X0048580Y0047058D01*
X0048418Y0046778D01*
X0047797Y0047399D01*
X0044203Y0047399D01*
X0043500Y0046696D01*
X0042797Y0047399D01*
X0039203Y0047399D01*
X0038500Y0046696D01*
X0037797Y0047399D01*
X0037700Y0047399D01*
X0037700Y0066302D01*
X0038015Y0066432D01*
X0038966Y0067384D01*
X0039481Y0068626D01*
X0039481Y0069971D01*
X0038966Y0071214D01*
X0038015Y0072165D01*
X0036773Y0072680D01*
X0035427Y0072680D01*
X0034185Y0072165D01*
X0033234Y0071214D01*
X0032719Y0069971D01*
X0032719Y0068626D01*
X0033234Y0067384D01*
X0034185Y0066432D01*
X0034500Y0066302D01*
X0034500Y0047399D01*
X0034203Y0047399D01*
X0033500Y0046696D01*
X0032797Y0047399D01*
X0029203Y0047399D01*
X0028582Y0046778D01*
X0028420Y0047058D01*
X0028160Y0047319D01*
X0027840Y0047503D01*
X0027484Y0047599D01*
X0026250Y0047599D01*
X0026250Y0042449D01*
X0025750Y0042449D01*
X0025750Y0047599D01*
X0024516Y0047599D01*
X0024160Y0047503D01*
X0023840Y0047319D01*
X0023580Y0047058D01*
X0023418Y0046778D01*
X0022797Y0047399D01*
X0019203Y0047399D01*
X0018500Y0046696D01*
X0017797Y0047399D01*
X0017600Y0047399D01*
X0017600Y0049236D01*
X0017863Y0049499D01*
X0021663Y0049499D01*
X0022663Y0050499D01*
X0023600Y0051436D01*
X0023600Y0052917D01*
X0024085Y0052432D01*
X0025327Y0051918D01*
X0026673Y0051918D01*
X0027915Y0052432D01*
X0028866Y0053384D01*
X0029381Y0054626D01*
X0029381Y0055971D01*
X0028866Y0057214D01*
X0027915Y0058165D01*
X0027600Y0058296D01*
X0027600Y0076599D01*
X0027797Y0076599D01*
X0028500Y0077302D01*
X0029203Y0076599D01*
X0032797Y0076599D01*
X0033500Y0077302D01*
X0033500Y0086296D01*
X0034203Y0086999D01*
X0037797Y0086999D01*
X0038500Y0086296D01*
X0038500Y0078162D01*
X0038500Y0078162D01*
X0038500Y0086296D01*
X0039203Y0086999D01*
X0039706Y0086999D01*
X0039144Y0086940D02*
X0037856Y0086940D01*
X0038362Y0087738D02*
X0034353Y0087738D01*
X0034144Y0086940D02*
X0032866Y0086940D01*
X0033500Y0086141D02*
X0033500Y0086141D01*
X0033500Y0085343D02*
X0033500Y0085343D01*
X0033500Y0084544D02*
X0033500Y0084544D01*
X0033500Y0083746D02*
X0033500Y0083746D01*
X0033500Y0082947D02*
X0033500Y0082947D01*
X0033500Y0082148D02*
X0033500Y0082148D01*
X0033500Y0081350D02*
X0033500Y0081350D01*
X0033500Y0080551D02*
X0033500Y0080551D01*
X0033500Y0079753D02*
X0033500Y0079753D01*
X0033500Y0078954D02*
X0033500Y0078954D01*
X0033500Y0078156D02*
X0033500Y0078156D01*
X0033500Y0077357D02*
X0033500Y0077357D01*
X0035577Y0076559D02*
X0027600Y0076559D01*
X0027600Y0075760D02*
X0036376Y0075760D01*
X0037174Y0074962D02*
X0027600Y0074962D01*
X0027600Y0074163D02*
X0039119Y0074163D01*
X0039119Y0073365D02*
X0027600Y0073365D01*
X0027600Y0072566D02*
X0035153Y0072566D01*
X0033900Y0072799D02*
X0031700Y0070599D01*
X0030400Y0070599D01*
X0028250Y0072749D01*
X0029500Y0073999D01*
X0027600Y0071768D02*
X0033787Y0071768D01*
X0033132Y0070969D02*
X0027600Y0070969D01*
X0027600Y0070171D02*
X0032802Y0070171D01*
X0032719Y0069372D02*
X0027600Y0069372D01*
X0027600Y0068574D02*
X0032741Y0068574D01*
X0033071Y0067775D02*
X0027600Y0067775D01*
X0027600Y0066977D02*
X0033640Y0066977D01*
X0034500Y0066178D02*
X0027600Y0066178D01*
X0027600Y0065380D02*
X0034500Y0065380D01*
X0034500Y0064581D02*
X0027600Y0064581D01*
X0027600Y0063783D02*
X0034500Y0063783D01*
X0034500Y0062984D02*
X0027600Y0062984D01*
X0027600Y0062186D02*
X0034500Y0062186D01*
X0034500Y0061387D02*
X0027600Y0061387D01*
X0027600Y0060589D02*
X0034500Y0060589D01*
X0034500Y0059790D02*
X0027600Y0059790D01*
X0027600Y0058992D02*
X0034500Y0058992D01*
X0034500Y0058193D02*
X0027848Y0058193D01*
X0028686Y0057395D02*
X0034500Y0057395D01*
X0034500Y0056596D02*
X0029122Y0056596D01*
X0029381Y0055798D02*
X0034500Y0055798D01*
X0034500Y0054999D02*
X0029381Y0054999D01*
X0029205Y0054201D02*
X0034500Y0054201D01*
X0034500Y0053402D02*
X0028874Y0053402D01*
X0028086Y0052604D02*
X0034500Y0052604D01*
X0034500Y0051805D02*
X0023600Y0051805D01*
X0023600Y0052604D02*
X0023914Y0052604D01*
X0023170Y0051007D02*
X0034500Y0051007D01*
X0034500Y0050208D02*
X0022372Y0050208D01*
X0021000Y0051099D02*
X0022000Y0052099D01*
X0022000Y0070799D01*
X0022300Y0070899D01*
X0019700Y0074799D02*
X0020900Y0075999D01*
X0020900Y0081699D01*
X0021000Y0081799D01*
X0016800Y0082899D02*
X0016000Y0081799D01*
X0016800Y0082899D02*
X0016800Y0094699D01*
X0018400Y0096299D01*
X0036400Y0096299D01*
X0036310Y0094126D02*
X0035142Y0094126D01*
X0035586Y0093328D02*
X0037108Y0093328D01*
X0036798Y0092529D02*
X0035917Y0092529D01*
X0036036Y0091731D02*
X0036679Y0091731D01*
X0036679Y0090932D02*
X0036036Y0090932D01*
X0035921Y0090134D02*
X0036794Y0090134D01*
X0037125Y0089335D02*
X0035590Y0089335D01*
X0035152Y0088537D02*
X0037563Y0088537D01*
X0038500Y0086141D02*
X0038500Y0086141D01*
X0038500Y0085343D02*
X0038500Y0085343D01*
X0038500Y0084544D02*
X0038500Y0084544D01*
X0038500Y0083746D02*
X0038500Y0083746D01*
X0038500Y0082947D02*
X0038500Y0082947D01*
X0038500Y0082148D02*
X0038500Y0082148D01*
X0038500Y0081350D02*
X0038500Y0081350D01*
X0038500Y0080551D02*
X0038500Y0080551D01*
X0038500Y0079753D02*
X0038500Y0079753D01*
X0038500Y0078954D02*
X0038500Y0078954D01*
X0036000Y0078399D02*
X0038000Y0076399D01*
X0041700Y0076399D01*
X0042500Y0075599D01*
X0042500Y0073599D01*
X0040348Y0070969D02*
X0039068Y0070969D01*
X0039398Y0070171D02*
X0044400Y0070171D01*
X0044400Y0069372D02*
X0039481Y0069372D01*
X0039459Y0068574D02*
X0044400Y0068574D01*
X0044400Y0067775D02*
X0039129Y0067775D01*
X0038560Y0066977D02*
X0044400Y0066977D01*
X0044400Y0066178D02*
X0037700Y0066178D01*
X0037700Y0065380D02*
X0044400Y0065380D01*
X0044400Y0064581D02*
X0037700Y0064581D01*
X0037700Y0063783D02*
X0041621Y0063783D01*
X0040823Y0062984D02*
X0037700Y0062984D01*
X0037700Y0062186D02*
X0040024Y0062186D01*
X0040000Y0061387D02*
X0037700Y0061387D01*
X0038000Y0061899D02*
X0038000Y0050899D01*
X0040200Y0048699D01*
X0047000Y0048699D01*
X0051000Y0044699D01*
X0051000Y0042199D01*
X0050750Y0043021D02*
X0051250Y0043021D01*
X0051250Y0043820D02*
X0050750Y0043820D01*
X0050750Y0044618D02*
X0051250Y0044618D01*
X0051000Y0044699D02*
X0051000Y0048699D01*
X0053300Y0050999D01*
X0053300Y0057899D01*
X0056300Y0060899D01*
X0067000Y0060899D01*
X0068900Y0059099D01*
X0071732Y0058193D02*
X0059787Y0058193D01*
X0060223Y0057395D02*
X0071500Y0057395D01*
X0071500Y0056596D02*
X0060481Y0056596D01*
X0061064Y0055798D02*
X0071500Y0055798D01*
X0073100Y0054999D02*
X0071600Y0053499D01*
X0064200Y0053499D01*
X0061400Y0050699D01*
X0061400Y0045599D01*
X0061000Y0042199D01*
X0061100Y0042299D01*
X0063500Y0042223D02*
X0063500Y0042223D01*
X0063500Y0043021D02*
X0063500Y0043021D01*
X0063500Y0043820D02*
X0063500Y0043820D01*
X0063500Y0044618D02*
X0063500Y0044618D01*
X0063500Y0045417D02*
X0063500Y0045417D01*
X0063500Y0046215D02*
X0063500Y0046215D01*
X0063182Y0047014D02*
X0063818Y0047014D01*
X0064400Y0047813D02*
X0063000Y0047813D01*
X0063000Y0048611D02*
X0064400Y0048611D01*
X0064400Y0049410D02*
X0063000Y0049410D01*
X0063172Y0050208D02*
X0064846Y0050208D01*
X0065645Y0051007D02*
X0063970Y0051007D01*
X0064769Y0051805D02*
X0066443Y0051805D01*
X0067700Y0050799D02*
X0077900Y0050799D01*
X0079100Y0051999D01*
X0079100Y0056199D01*
X0080700Y0052604D02*
X0088275Y0052604D01*
X0088275Y0053402D02*
X0081085Y0053402D01*
X0081883Y0054201D02*
X0088275Y0054201D01*
X0088275Y0054999D02*
X0082263Y0054999D01*
X0082481Y0055798D02*
X0088275Y0055798D01*
X0088275Y0056596D02*
X0082481Y0056596D01*
X0082264Y0057395D02*
X0088275Y0057395D01*
X0088275Y0058193D02*
X0081887Y0058193D01*
X0081956Y0058992D02*
X0088275Y0058992D01*
X0088275Y0059790D02*
X0082754Y0059790D01*
X0083553Y0060589D02*
X0088275Y0060589D01*
X0088275Y0061387D02*
X0084351Y0061387D01*
X0084500Y0062186D02*
X0088275Y0062186D01*
X0088275Y0062984D02*
X0084500Y0062984D01*
X0084500Y0063783D02*
X0088275Y0063783D01*
X0088275Y0064581D02*
X0084500Y0064581D01*
X0084500Y0065380D02*
X0088275Y0065380D01*
X0088275Y0066178D02*
X0084500Y0066178D01*
X0084500Y0066977D02*
X0088275Y0066977D01*
X0088275Y0067775D02*
X0084500Y0067775D01*
X0084500Y0068574D02*
X0088275Y0068574D01*
X0088275Y0069372D02*
X0084500Y0069372D01*
X0084500Y0070171D02*
X0088275Y0070171D01*
X0088275Y0070969D02*
X0084500Y0070969D01*
X0084500Y0071768D02*
X0088275Y0071768D01*
X0088275Y0072566D02*
X0084500Y0072566D01*
X0084500Y0073365D02*
X0088275Y0073365D01*
X0088275Y0074163D02*
X0084500Y0074163D01*
X0084500Y0074962D02*
X0088275Y0074962D01*
X0088275Y0075760D02*
X0084500Y0075760D01*
X0084500Y0076559D02*
X0088275Y0076559D01*
X0088275Y0077357D02*
X0084500Y0077357D01*
X0084500Y0078156D02*
X0088275Y0078156D01*
X0088275Y0078954D02*
X0084500Y0078954D01*
X0084500Y0079753D02*
X0088275Y0079753D01*
X0088275Y0080551D02*
X0084500Y0080551D01*
X0084500Y0081350D02*
X0088275Y0081350D01*
X0088275Y0082148D02*
X0084500Y0082148D01*
X0084500Y0082947D02*
X0088275Y0082947D01*
X0088275Y0083746D02*
X0084500Y0083746D01*
X0084500Y0084544D02*
X0088275Y0084544D01*
X0088275Y0085343D02*
X0084500Y0085343D01*
X0084500Y0086141D02*
X0088275Y0086141D01*
X0088275Y0086940D02*
X0084322Y0086940D01*
X0083566Y0087738D02*
X0088275Y0087738D01*
X0088275Y0088537D02*
X0084364Y0088537D01*
X0084803Y0089335D02*
X0088275Y0089335D01*
X0088275Y0090134D02*
X0085134Y0090134D01*
X0085249Y0090932D02*
X0088275Y0090932D01*
X0088275Y0091731D02*
X0085249Y0091731D01*
X0085130Y0092529D02*
X0088275Y0092529D01*
X0088275Y0093328D02*
X0084799Y0093328D01*
X0084354Y0094126D02*
X0088275Y0094126D01*
X0088275Y0094925D02*
X0083556Y0094925D01*
X0082054Y0095723D02*
X0088275Y0095723D01*
X0088275Y0096522D02*
X0079886Y0096522D01*
X0079243Y0095723D02*
X0079087Y0095723D01*
X0080684Y0097320D02*
X0088275Y0097320D01*
X0088275Y0098119D02*
X0081400Y0098119D01*
X0081400Y0098917D02*
X0088275Y0098917D01*
X0088275Y0099716D02*
X0081400Y0099716D01*
X0081400Y0100514D02*
X0088275Y0100514D01*
X0088275Y0101313D02*
X0081400Y0101313D01*
X0081400Y0102111D02*
X0088275Y0102111D01*
X0088275Y0102910D02*
X0081400Y0102910D01*
X0081400Y0103708D02*
X0088275Y0103708D01*
X0088275Y0104507D02*
X0081400Y0104507D01*
X0081400Y0105305D02*
X0088275Y0105305D01*
X0088275Y0106104D02*
X0081400Y0106104D01*
X0081400Y0106902D02*
X0088275Y0106902D01*
X0088275Y0107701D02*
X0081400Y0107701D01*
X0081400Y0108499D02*
X0088275Y0108499D01*
X0088275Y0109298D02*
X0081400Y0109298D01*
X0081400Y0110096D02*
X0088275Y0110096D01*
X0088275Y0110895D02*
X0081067Y0110895D01*
X0080268Y0111693D02*
X0088275Y0111693D01*
X0088275Y0112492D02*
X0079470Y0112492D01*
X0078400Y0111299D02*
X0069400Y0111299D01*
X0066100Y0107999D01*
X0064100Y0109999D01*
X0064100Y0116499D01*
X0062900Y0117699D01*
X0043900Y0117699D01*
X0042400Y0116199D01*
X0042400Y0106269D01*
X0041650Y0105732D01*
X0044300Y0103099D01*
X0044300Y0100499D01*
X0046200Y0098599D01*
X0046200Y0089099D01*
X0043600Y0086499D01*
X0041800Y0086499D01*
X0040500Y0085199D01*
X0041000Y0081799D01*
X0046000Y0081799D02*
X0046000Y0063799D01*
X0045000Y0062799D01*
X0042900Y0062799D01*
X0041600Y0061499D01*
X0041600Y0052899D01*
X0039509Y0050208D02*
X0037700Y0050208D01*
X0037700Y0049410D02*
X0057948Y0049410D01*
X0058200Y0050208D02*
X0051315Y0050208D01*
X0052289Y0051007D02*
X0058200Y0051007D01*
X0058200Y0051805D02*
X0052782Y0051805D01*
X0053081Y0052604D02*
X0058200Y0052604D01*
X0059800Y0054799D02*
X0058500Y0056099D01*
X0057100Y0056099D01*
X0055015Y0053402D02*
X0053081Y0053402D01*
X0052945Y0054201D02*
X0054227Y0054201D01*
X0053896Y0054999D02*
X0052614Y0054999D01*
X0052300Y0055798D02*
X0053719Y0055798D01*
X0053719Y0056596D02*
X0052300Y0056596D01*
X0052300Y0057395D02*
X0053977Y0057395D01*
X0054413Y0058193D02*
X0052300Y0058193D01*
X0052300Y0058992D02*
X0055249Y0058992D01*
X0052300Y0059790D02*
X0073329Y0059790D01*
X0074127Y0060589D02*
X0052300Y0060589D01*
X0052300Y0061387D02*
X0074926Y0061387D01*
X0075700Y0059899D02*
X0080600Y0059899D01*
X0082900Y0062199D01*
X0082900Y0086099D01*
X0081100Y0087899D01*
X0080900Y0090075D01*
X0080649Y0091326D01*
X0075700Y0094599D02*
X0075700Y0085999D01*
X0077000Y0084699D01*
X0077000Y0082499D01*
X0076300Y0081799D01*
X0070800Y0081799D01*
X0067979Y0088499D02*
X0070806Y0091326D01*
X0067979Y0088499D02*
X0065500Y0088499D01*
X0061700Y0084699D01*
X0061000Y0084699D01*
X0061000Y0081799D01*
X0056000Y0081799D02*
X0056000Y0097799D01*
X0057600Y0094802D02*
X0057915Y0094932D01*
X0058866Y0095884D01*
X0059381Y0097126D01*
X0059381Y0098471D01*
X0058866Y0099714D01*
X0057915Y0100665D01*
X0056673Y0101180D01*
X0055327Y0101180D01*
X0054085Y0100665D01*
X0053134Y0099714D01*
X0052893Y0099133D01*
X0052893Y0105332D01*
X0049924Y0105332D01*
X0049924Y0106132D01*
X0052893Y0106132D01*
X0052893Y0114971D01*
X0052797Y0115327D01*
X0052613Y0115647D01*
X0052352Y0115907D01*
X0052033Y0116092D01*
X0052006Y0116099D01*
X0062237Y0116099D01*
X0062500Y0115836D01*
X0062500Y0109336D01*
X0062849Y0108987D01*
X0062719Y0108671D01*
X0062719Y0107326D01*
X0063234Y0106084D01*
X0064185Y0105132D01*
X0065427Y0104618D01*
X0066773Y0104618D01*
X0068015Y0105132D01*
X0068966Y0106084D01*
X0069481Y0107326D01*
X0069481Y0108671D01*
X0069351Y0108987D01*
X0070063Y0109699D01*
X0077737Y0109699D01*
X0078200Y0109236D01*
X0078200Y0099362D01*
X0074100Y0095262D01*
X0074000Y0095162D01*
X0074000Y0094638D01*
X0073412Y0095226D01*
X0071721Y0095926D01*
X0069891Y0095926D01*
X0068201Y0095226D01*
X0066907Y0093932D01*
X0066206Y0092241D01*
X0066206Y0090411D01*
X0066336Y0090099D01*
X0065434Y0090099D01*
X0065564Y0090411D01*
X0065564Y0092241D01*
X0064863Y0093932D01*
X0063569Y0095226D01*
X0061879Y0095926D01*
X0060049Y0095926D01*
X0058358Y0095226D01*
X0057600Y0094468D01*
X0057600Y0094802D01*
X0057896Y0094925D02*
X0058057Y0094925D01*
X0058706Y0095723D02*
X0059558Y0095723D01*
X0059131Y0096522D02*
X0075360Y0096522D01*
X0076159Y0097320D02*
X0059381Y0097320D01*
X0059381Y0098119D02*
X0076957Y0098119D01*
X0077756Y0098917D02*
X0059196Y0098917D01*
X0058865Y0099716D02*
X0078200Y0099716D01*
X0078200Y0100514D02*
X0058066Y0100514D01*
X0053934Y0100514D02*
X0052893Y0100514D01*
X0052893Y0099716D02*
X0053135Y0099716D01*
X0052893Y0101313D02*
X0078200Y0101313D01*
X0078200Y0102111D02*
X0052893Y0102111D01*
X0052893Y0102910D02*
X0078200Y0102910D01*
X0078200Y0103708D02*
X0052893Y0103708D01*
X0052893Y0104507D02*
X0078200Y0104507D01*
X0078200Y0105305D02*
X0068188Y0105305D01*
X0068975Y0106104D02*
X0078200Y0106104D01*
X0078200Y0106902D02*
X0069305Y0106902D01*
X0069481Y0107701D02*
X0078200Y0107701D01*
X0078200Y0108499D02*
X0069481Y0108499D01*
X0069662Y0109298D02*
X0078138Y0109298D01*
X0079800Y0109899D02*
X0078400Y0111299D01*
X0079800Y0109899D02*
X0079800Y0098699D01*
X0075700Y0094599D01*
X0075600Y0094499D01*
X0074562Y0095723D02*
X0072212Y0095723D01*
X0073713Y0094925D02*
X0074000Y0094925D01*
X0069401Y0095723D02*
X0062369Y0095723D01*
X0063871Y0094925D02*
X0067899Y0094925D01*
X0067101Y0094126D02*
X0064669Y0094126D01*
X0065114Y0093328D02*
X0066656Y0093328D01*
X0066325Y0092529D02*
X0065445Y0092529D01*
X0065564Y0091731D02*
X0066206Y0091731D01*
X0066206Y0090932D02*
X0065564Y0090932D01*
X0065449Y0090134D02*
X0066321Y0090134D01*
X0063800Y0101299D02*
X0063767Y0103732D01*
X0061800Y0105699D01*
X0049524Y0105732D01*
X0050600Y0106808D01*
X0050600Y0107999D01*
X0054500Y0107999D01*
X0055800Y0109299D01*
X0055800Y0111699D01*
X0052893Y0111693D02*
X0062500Y0111693D01*
X0062500Y0110895D02*
X0052893Y0110895D01*
X0052893Y0110096D02*
X0062500Y0110096D01*
X0062538Y0109298D02*
X0052893Y0109298D01*
X0052893Y0108499D02*
X0062719Y0108499D01*
X0062719Y0107701D02*
X0052893Y0107701D01*
X0052893Y0106902D02*
X0062895Y0106902D01*
X0063225Y0106104D02*
X0049924Y0106104D01*
X0049124Y0106104D02*
X0044819Y0106104D01*
X0044819Y0106902D02*
X0046156Y0106902D01*
X0046156Y0106132D02*
X0049124Y0106132D01*
X0049124Y0105332D01*
X0046156Y0105332D01*
X0046156Y0100906D01*
X0045900Y0101162D01*
X0045900Y0102439D01*
X0045902Y0102441D01*
X0045900Y0103100D01*
X0045900Y0103762D01*
X0045898Y0103764D01*
X0045898Y0103767D01*
X0045429Y0104232D01*
X0044963Y0104699D01*
X0044960Y0104699D01*
X0044819Y0104839D01*
X0044819Y0115284D01*
X0044283Y0115819D01*
X0044563Y0116099D01*
X0047042Y0116099D01*
X0047015Y0116092D01*
X0046696Y0115907D01*
X0046435Y0115647D01*
X0046251Y0115327D01*
X0046156Y0114971D01*
X0046156Y0106132D01*
X0046156Y0105305D02*
X0044819Y0105305D01*
X0045155Y0104507D02*
X0046156Y0104507D01*
X0046156Y0103708D02*
X0045900Y0103708D01*
X0045901Y0102910D02*
X0046156Y0102910D01*
X0046156Y0102111D02*
X0045900Y0102111D01*
X0045900Y0101313D02*
X0046156Y0101313D01*
X0046156Y0107701D02*
X0044819Y0107701D01*
X0044819Y0108499D02*
X0046156Y0108499D01*
X0046156Y0109298D02*
X0044819Y0109298D01*
X0044819Y0110096D02*
X0046156Y0110096D01*
X0046156Y0110895D02*
X0044819Y0110895D01*
X0044819Y0111693D02*
X0046156Y0111693D01*
X0046156Y0112492D02*
X0044819Y0112492D01*
X0044819Y0113290D02*
X0046156Y0113290D01*
X0046156Y0114089D02*
X0044819Y0114089D01*
X0044819Y0114887D02*
X0046156Y0114887D01*
X0046475Y0115686D02*
X0044417Y0115686D01*
X0042020Y0118082D02*
X0018200Y0118082D01*
X0018823Y0118880D02*
X0028380Y0118880D01*
X0027852Y0119679D02*
X0019377Y0119679D01*
X0019815Y0120477D02*
X0027852Y0120477D01*
X0027852Y0121276D02*
X0020181Y0121276D01*
X0020454Y0122074D02*
X0027852Y0122074D01*
X0027852Y0122873D02*
X0020631Y0122873D01*
X0020792Y0123671D02*
X0027852Y0123671D01*
X0027852Y0124470D02*
X0020789Y0124470D01*
X0020863Y0125268D02*
X0027852Y0125268D01*
X0027852Y0126067D02*
X0020889Y0126067D01*
X0020939Y0126865D02*
X0027852Y0126865D01*
X0027852Y0127664D02*
X0020989Y0127664D01*
X0021039Y0128462D02*
X0027852Y0128462D01*
X0027852Y0129261D02*
X0021089Y0129261D01*
X0021139Y0130059D02*
X0027852Y0130059D01*
X0027852Y0130858D02*
X0021188Y0130858D01*
X0021238Y0131656D02*
X0027852Y0131656D01*
X0036023Y0118880D02*
X0042818Y0118880D01*
X0041221Y0117283D02*
X0017278Y0117283D01*
X0016337Y0116484D02*
X0040800Y0116484D01*
X0036551Y0119679D02*
X0054623Y0119679D01*
X0054623Y0120477D02*
X0036551Y0120477D01*
X0036551Y0121276D02*
X0054623Y0121276D01*
X0054623Y0122074D02*
X0036551Y0122074D01*
X0036551Y0122873D02*
X0054623Y0122873D01*
X0054623Y0123671D02*
X0036551Y0123671D01*
X0036551Y0124470D02*
X0054623Y0124470D01*
X0054623Y0125268D02*
X0036551Y0125268D01*
X0036551Y0126067D02*
X0054623Y0126067D01*
X0054623Y0126865D02*
X0036551Y0126865D01*
X0036551Y0127664D02*
X0054623Y0127664D01*
X0054623Y0128462D02*
X0036551Y0128462D01*
X0036551Y0129261D02*
X0054623Y0129261D01*
X0054623Y0130059D02*
X0036551Y0130059D01*
X0036551Y0130858D02*
X0054623Y0130858D01*
X0054623Y0131656D02*
X0036551Y0131656D01*
X0052574Y0115686D02*
X0062500Y0115686D01*
X0062500Y0114887D02*
X0052893Y0114887D01*
X0052893Y0114089D02*
X0062500Y0114089D01*
X0062500Y0113290D02*
X0052893Y0113290D01*
X0052893Y0112492D02*
X0062500Y0112492D01*
X0065700Y0112492D02*
X0068330Y0112492D01*
X0067532Y0111693D02*
X0065700Y0111693D01*
X0065700Y0113290D02*
X0088275Y0113290D01*
X0088275Y0114089D02*
X0065700Y0114089D01*
X0065700Y0114887D02*
X0088275Y0114887D01*
X0088275Y0115686D02*
X0083930Y0115686D01*
X0085345Y0116484D02*
X0088275Y0116484D01*
X0088275Y0117283D02*
X0086555Y0117283D01*
X0087383Y0118082D02*
X0088275Y0118082D01*
X0088275Y0118880D02*
X0088061Y0118880D01*
X0076599Y0115686D02*
X0065700Y0115686D01*
X0065700Y0116484D02*
X0074866Y0116484D01*
X0073926Y0117283D02*
X0065579Y0117283D01*
X0064780Y0118082D02*
X0072986Y0118082D01*
X0072369Y0118880D02*
X0063982Y0118880D01*
X0063323Y0119679D02*
X0071888Y0119679D01*
X0071407Y0120477D02*
X0063323Y0120477D01*
X0063323Y0121276D02*
X0071030Y0121276D01*
X0070799Y0122074D02*
X0063323Y0122074D01*
X0063323Y0122873D02*
X0070606Y0122873D01*
X0070498Y0123671D02*
X0063323Y0123671D01*
X0063323Y0124470D02*
X0070516Y0124470D01*
X0070467Y0125268D02*
X0063323Y0125268D01*
X0063323Y0126067D02*
X0070417Y0126067D01*
X0070367Y0126865D02*
X0063323Y0126865D01*
X0063323Y0127664D02*
X0070317Y0127664D01*
X0070268Y0128462D02*
X0063323Y0128462D01*
X0063323Y0129261D02*
X0070218Y0129261D01*
X0070168Y0130059D02*
X0063323Y0130059D01*
X0063323Y0130858D02*
X0070118Y0130858D01*
X0070068Y0131656D02*
X0063323Y0131656D01*
X0064012Y0105305D02*
X0052893Y0105305D01*
X0054400Y0088100D02*
X0054400Y0086999D01*
X0054203Y0086999D01*
X0053500Y0086296D01*
X0053500Y0077302D01*
X0053500Y0086296D01*
X0052797Y0086999D01*
X0052694Y0086999D01*
X0053727Y0087427D01*
X0054400Y0088100D01*
X0054400Y0087738D02*
X0054038Y0087738D01*
X0054144Y0086940D02*
X0052856Y0086940D01*
X0053500Y0086141D02*
X0053500Y0086141D01*
X0053500Y0085343D02*
X0053500Y0085343D01*
X0053500Y0084544D02*
X0053500Y0084544D01*
X0053500Y0083746D02*
X0053500Y0083746D01*
X0053500Y0082947D02*
X0053500Y0082947D01*
X0053500Y0082148D02*
X0053500Y0082148D01*
X0053500Y0081350D02*
X0053500Y0081350D01*
X0053500Y0080551D02*
X0053500Y0080551D01*
X0053500Y0079753D02*
X0053500Y0079753D01*
X0053500Y0078954D02*
X0053500Y0078954D01*
X0053500Y0078156D02*
X0053500Y0078156D01*
X0053500Y0077357D02*
X0053500Y0077357D01*
X0054678Y0076559D02*
X0052300Y0076559D01*
X0052300Y0075760D02*
X0053880Y0075760D01*
X0053463Y0074962D02*
X0052300Y0074962D01*
X0052300Y0074163D02*
X0053219Y0074163D01*
X0053219Y0073365D02*
X0052300Y0073365D01*
X0052300Y0072566D02*
X0053409Y0072566D01*
X0053749Y0071768D02*
X0052300Y0071768D01*
X0052300Y0070969D02*
X0054548Y0070969D01*
X0052300Y0070171D02*
X0063565Y0070171D01*
X0062767Y0070969D02*
X0058652Y0070969D01*
X0059451Y0071768D02*
X0061968Y0071768D01*
X0062300Y0073699D02*
X0065800Y0070199D01*
X0074200Y0070158D01*
X0071736Y0067775D02*
X0052300Y0067775D01*
X0052300Y0066977D02*
X0071290Y0066977D01*
X0071228Y0066178D02*
X0052300Y0066178D01*
X0052300Y0065380D02*
X0071228Y0065380D01*
X0071228Y0064581D02*
X0052300Y0064581D01*
X0052300Y0063783D02*
X0071228Y0063783D01*
X0071409Y0062984D02*
X0052300Y0062984D01*
X0052300Y0062186D02*
X0080624Y0062186D01*
X0081300Y0062984D02*
X0076991Y0062984D01*
X0075700Y0059899D02*
X0073100Y0057299D01*
X0073100Y0054999D01*
X0072530Y0058992D02*
X0058951Y0058992D01*
X0059800Y0054799D02*
X0059800Y0048999D01*
X0058300Y0047499D01*
X0056300Y0047499D01*
X0055200Y0046399D01*
X0056000Y0042199D01*
X0058500Y0042223D02*
X0058500Y0042223D01*
X0058500Y0043021D02*
X0058500Y0043021D01*
X0058500Y0043820D02*
X0058500Y0043820D01*
X0058500Y0044618D02*
X0058500Y0044618D01*
X0058500Y0045417D02*
X0058500Y0045417D01*
X0058500Y0041424D02*
X0058500Y0041424D01*
X0058500Y0040626D02*
X0058500Y0040626D01*
X0058500Y0039827D02*
X0058500Y0039827D01*
X0058500Y0039029D02*
X0058500Y0039029D01*
X0058500Y0038230D02*
X0058500Y0038230D01*
X0058230Y0037432D02*
X0058770Y0037432D01*
X0059474Y0036633D02*
X0056433Y0036633D01*
X0057346Y0035835D02*
X0058022Y0035835D01*
X0056100Y0034799D02*
X0056100Y0026199D01*
X0054800Y0024899D01*
X0045200Y0024899D01*
X0043600Y0022799D01*
X0043600Y0019199D01*
X0040300Y0024799D02*
X0042200Y0026699D01*
X0049600Y0026699D01*
X0051100Y0028199D01*
X0051121Y0032271D01*
X0048239Y0028648D02*
X0044161Y0028648D01*
X0043884Y0028372D02*
X0045178Y0029666D01*
X0045879Y0031356D01*
X0045879Y0033186D01*
X0045178Y0034877D01*
X0043884Y0036171D01*
X0042194Y0036871D01*
X0040635Y0036871D01*
X0040763Y0036999D01*
X0042797Y0036999D01*
X0043500Y0037702D01*
X0043500Y0046696D01*
X0043500Y0037702D01*
X0044203Y0036999D01*
X0044974Y0036999D01*
X0045300Y0036456D01*
X0045300Y0036236D01*
X0045629Y0035907D01*
X0045869Y0035507D01*
X0046082Y0035454D01*
X0046237Y0035299D01*
X0046703Y0035299D01*
X0047155Y0035186D01*
X0047343Y0035299D01*
X0047643Y0035299D01*
X0047222Y0034877D01*
X0046521Y0033186D01*
X0046521Y0031356D01*
X0047222Y0029666D01*
X0048516Y0028372D01*
X0048691Y0028299D01*
X0043709Y0028299D01*
X0043884Y0028372D01*
X0044960Y0029447D02*
X0047440Y0029447D01*
X0046981Y0030245D02*
X0045419Y0030245D01*
X0045749Y0031044D02*
X0046651Y0031044D01*
X0046521Y0031842D02*
X0045879Y0031842D01*
X0045879Y0032641D02*
X0046521Y0032641D01*
X0046626Y0033439D02*
X0045774Y0033439D01*
X0045443Y0034238D02*
X0046957Y0034238D01*
X0047381Y0035036D02*
X0045019Y0035036D01*
X0045672Y0035835D02*
X0044221Y0035835D01*
X0045193Y0036633D02*
X0042768Y0036633D01*
X0043230Y0037432D02*
X0043770Y0037432D01*
X0043500Y0038230D02*
X0043500Y0038230D01*
X0043500Y0039029D02*
X0043500Y0039029D01*
X0043500Y0039827D02*
X0043500Y0039827D01*
X0043500Y0040626D02*
X0043500Y0040626D01*
X0043500Y0041424D02*
X0043500Y0041424D01*
X0043500Y0042223D02*
X0043500Y0042223D01*
X0043500Y0043021D02*
X0043500Y0043021D01*
X0043500Y0043820D02*
X0043500Y0043820D01*
X0043500Y0044618D02*
X0043500Y0044618D01*
X0043500Y0045417D02*
X0043500Y0045417D01*
X0043500Y0046215D02*
X0043500Y0046215D01*
X0043182Y0047014D02*
X0043818Y0047014D01*
X0043691Y0050208D02*
X0048085Y0050208D01*
X0047111Y0051007D02*
X0044476Y0051007D01*
X0044807Y0051805D02*
X0046618Y0051805D01*
X0046319Y0052604D02*
X0044981Y0052604D01*
X0044981Y0053402D02*
X0046319Y0053402D01*
X0046455Y0054201D02*
X0044720Y0054201D01*
X0044281Y0054999D02*
X0046786Y0054999D01*
X0047517Y0055798D02*
X0043437Y0055798D01*
X0043200Y0056596D02*
X0048735Y0056596D01*
X0049100Y0057395D02*
X0043200Y0057395D01*
X0043200Y0058193D02*
X0049100Y0058193D01*
X0049100Y0058992D02*
X0043200Y0058992D01*
X0043200Y0059790D02*
X0049100Y0059790D01*
X0049100Y0060589D02*
X0043200Y0060589D01*
X0045851Y0061387D02*
X0049100Y0061387D01*
X0049100Y0062186D02*
X0046650Y0062186D01*
X0047448Y0062984D02*
X0049100Y0062984D01*
X0049100Y0063783D02*
X0047600Y0063783D01*
X0047600Y0064581D02*
X0049100Y0064581D01*
X0049100Y0065380D02*
X0047600Y0065380D01*
X0047600Y0066178D02*
X0049100Y0066178D01*
X0049100Y0066977D02*
X0047600Y0066977D01*
X0047600Y0067775D02*
X0049100Y0067775D01*
X0049100Y0068574D02*
X0047600Y0068574D01*
X0047600Y0069372D02*
X0049100Y0069372D01*
X0049100Y0070171D02*
X0047600Y0070171D01*
X0047600Y0070969D02*
X0049100Y0070969D01*
X0049100Y0071768D02*
X0047600Y0071768D01*
X0047600Y0072566D02*
X0049100Y0072566D01*
X0049100Y0073365D02*
X0047600Y0073365D01*
X0047600Y0074163D02*
X0049100Y0074163D01*
X0049100Y0074962D02*
X0047600Y0074962D01*
X0047600Y0075760D02*
X0049100Y0075760D01*
X0049100Y0076559D02*
X0047600Y0076559D01*
X0048500Y0077302D02*
X0048500Y0086296D01*
X0048500Y0077302D01*
X0048500Y0077357D02*
X0048500Y0077357D01*
X0048500Y0078156D02*
X0048500Y0078156D01*
X0048500Y0078954D02*
X0048500Y0078954D01*
X0048500Y0079753D02*
X0048500Y0079753D01*
X0048500Y0080551D02*
X0048500Y0080551D01*
X0048500Y0081350D02*
X0048500Y0081350D01*
X0048500Y0082148D02*
X0048500Y0082148D01*
X0048500Y0082947D02*
X0048500Y0082947D01*
X0048500Y0083746D02*
X0048500Y0083746D01*
X0048500Y0084544D02*
X0048500Y0084544D01*
X0048500Y0085343D02*
X0048500Y0085343D01*
X0048500Y0086141D02*
X0048500Y0086141D01*
X0048500Y0086296D02*
X0049203Y0086999D01*
X0049549Y0086999D01*
X0048516Y0087427D01*
X0047653Y0088289D01*
X0046363Y0086999D01*
X0047797Y0086999D01*
X0048500Y0086296D01*
X0047856Y0086940D02*
X0049144Y0086940D01*
X0048204Y0087738D02*
X0047102Y0087738D01*
X0051000Y0081799D02*
X0050800Y0080099D01*
X0050700Y0077999D01*
X0050700Y0056299D01*
X0048700Y0054299D01*
X0050200Y0052899D01*
X0049700Y0053199D01*
X0050750Y0047014D02*
X0051250Y0047014D01*
X0051250Y0046215D02*
X0050750Y0046215D01*
X0050750Y0045417D02*
X0051250Y0045417D01*
X0053446Y0047014D02*
X0053600Y0047014D01*
X0054226Y0047813D02*
X0037700Y0047813D01*
X0037700Y0048611D02*
X0055149Y0048611D01*
X0048554Y0047014D02*
X0048182Y0047014D01*
X0046000Y0042199D02*
X0046000Y0038399D01*
X0046900Y0036899D01*
X0053700Y0036899D01*
X0056100Y0034799D01*
X0057700Y0028648D02*
X0058081Y0028648D01*
X0057700Y0027850D02*
X0059618Y0027850D01*
X0057700Y0027051D02*
X0069200Y0027051D01*
X0069200Y0026253D02*
X0057700Y0026253D01*
X0057618Y0025454D02*
X0069200Y0025454D01*
X0068494Y0024656D02*
X0056820Y0024656D01*
X0055600Y0022699D02*
X0053900Y0020999D01*
X0052400Y0020999D01*
X0055600Y0022699D02*
X0068800Y0022699D01*
X0070800Y0024699D01*
X0070800Y0032265D01*
X0070806Y0032271D01*
X0067864Y0035835D02*
X0063906Y0035835D01*
X0064704Y0035036D02*
X0067066Y0035036D01*
X0066642Y0034238D02*
X0065128Y0034238D01*
X0065459Y0033439D02*
X0066311Y0033439D01*
X0066206Y0032641D02*
X0065564Y0032641D01*
X0065564Y0031842D02*
X0066206Y0031842D01*
X0066336Y0031044D02*
X0065434Y0031044D01*
X0065104Y0030245D02*
X0066666Y0030245D01*
X0067125Y0029447D02*
X0064645Y0029447D01*
X0063846Y0028648D02*
X0067924Y0028648D01*
X0069200Y0027850D02*
X0062310Y0027850D01*
X0062453Y0036633D02*
X0069317Y0036633D01*
X0068500Y0038230D02*
X0088275Y0038230D01*
X0088275Y0037432D02*
X0068230Y0037432D01*
X0068500Y0039029D02*
X0088275Y0039029D01*
X0088275Y0039827D02*
X0068500Y0039827D01*
X0068500Y0040626D02*
X0088275Y0040626D01*
X0088275Y0041424D02*
X0068500Y0041424D01*
X0068500Y0042223D02*
X0088275Y0042223D01*
X0088275Y0043021D02*
X0068500Y0043021D01*
X0068500Y0043820D02*
X0088275Y0043820D01*
X0088275Y0044618D02*
X0068500Y0044618D01*
X0068500Y0045417D02*
X0088275Y0045417D01*
X0088275Y0046215D02*
X0068500Y0046215D01*
X0068182Y0047014D02*
X0088275Y0047014D01*
X0088275Y0047813D02*
X0067600Y0047813D01*
X0067775Y0048611D02*
X0088275Y0048611D01*
X0088275Y0049410D02*
X0078773Y0049410D01*
X0079572Y0050208D02*
X0088275Y0050208D01*
X0088275Y0051007D02*
X0080370Y0051007D01*
X0080700Y0051805D02*
X0088275Y0051805D01*
X0081300Y0063783D02*
X0080647Y0063783D01*
X0079600Y0064999D02*
X0074200Y0065040D01*
X0070936Y0068574D02*
X0052300Y0068574D01*
X0052300Y0069372D02*
X0064364Y0069372D01*
X0062300Y0073699D02*
X0056600Y0073699D01*
X0051100Y0081699D02*
X0051000Y0081799D01*
X0039268Y0072566D02*
X0037047Y0072566D01*
X0038100Y0072799D02*
X0040000Y0070899D01*
X0040000Y0063899D01*
X0038000Y0061899D01*
X0037700Y0060589D02*
X0040000Y0060589D01*
X0040000Y0059790D02*
X0037700Y0059790D01*
X0037700Y0058992D02*
X0040000Y0058992D01*
X0040000Y0058193D02*
X0037700Y0058193D01*
X0037700Y0057395D02*
X0040000Y0057395D01*
X0040000Y0056596D02*
X0037700Y0056596D01*
X0037700Y0055798D02*
X0039763Y0055798D01*
X0038919Y0054999D02*
X0037700Y0054999D01*
X0037700Y0054201D02*
X0038480Y0054201D01*
X0038219Y0053402D02*
X0037700Y0053402D01*
X0037700Y0052604D02*
X0038219Y0052604D01*
X0038393Y0051805D02*
X0037700Y0051805D01*
X0037700Y0051007D02*
X0038724Y0051007D01*
X0038818Y0047014D02*
X0038182Y0047014D01*
X0038500Y0046696D02*
X0038500Y0039262D01*
X0038500Y0039262D01*
X0038500Y0046696D01*
X0038500Y0046215D02*
X0038500Y0046215D01*
X0038500Y0045417D02*
X0038500Y0045417D01*
X0038500Y0044618D02*
X0038500Y0044618D01*
X0038500Y0043820D02*
X0038500Y0043820D01*
X0038500Y0043021D02*
X0038500Y0043021D01*
X0038500Y0042223D02*
X0038500Y0042223D01*
X0038500Y0041424D02*
X0038500Y0041424D01*
X0038500Y0040626D02*
X0038500Y0040626D01*
X0038500Y0039827D02*
X0038500Y0039827D01*
X0041200Y0039699D02*
X0041400Y0039999D01*
X0041000Y0042199D01*
X0041200Y0039699D02*
X0036300Y0034799D01*
X0036300Y0014699D01*
X0038800Y0012199D01*
X0073600Y0012199D01*
X0075200Y0013799D01*
X0075200Y0020799D01*
X0080649Y0026248D01*
X0080649Y0032271D01*
X0083591Y0035835D02*
X0088275Y0035835D01*
X0088275Y0036633D02*
X0082138Y0036633D01*
X0084389Y0035036D02*
X0088275Y0035036D01*
X0088275Y0034238D02*
X0084813Y0034238D01*
X0085144Y0033439D02*
X0088275Y0033439D01*
X0088275Y0032641D02*
X0085249Y0032641D01*
X0085249Y0031842D02*
X0088275Y0031842D01*
X0088275Y0031044D02*
X0085119Y0031044D01*
X0084789Y0030245D02*
X0088275Y0030245D01*
X0088275Y0029447D02*
X0084330Y0029447D01*
X0083531Y0028648D02*
X0088275Y0028648D01*
X0088275Y0027850D02*
X0082249Y0027850D01*
X0082249Y0027051D02*
X0088275Y0027051D01*
X0088275Y0026253D02*
X0082249Y0026253D01*
X0082118Y0025454D02*
X0088275Y0025454D01*
X0088275Y0024656D02*
X0081320Y0024656D01*
X0080521Y0023857D02*
X0088275Y0023857D01*
X0088275Y0023059D02*
X0079723Y0023059D01*
X0078924Y0022260D02*
X0088275Y0022260D01*
X0088275Y0021462D02*
X0078126Y0021462D01*
X0077623Y0020663D02*
X0077327Y0020663D01*
X0079600Y0020663D02*
X0080400Y0020663D01*
X0080400Y0019865D02*
X0079600Y0019865D01*
X0079600Y0019066D02*
X0080400Y0019066D01*
X0080400Y0018268D02*
X0079600Y0018268D01*
X0080400Y0017469D02*
X0088275Y0017469D01*
X0088275Y0016671D02*
X0084169Y0016671D01*
X0083985Y0015872D02*
X0088275Y0015872D01*
X0088275Y0015074D02*
X0083631Y0015074D01*
X0083016Y0014275D02*
X0088275Y0014275D01*
X0088275Y0013477D02*
X0081946Y0013477D01*
X0081080Y0011081D02*
X0088275Y0011081D01*
X0088275Y0011880D02*
X0075543Y0011880D01*
X0076342Y0012678D02*
X0088275Y0012678D01*
X0088275Y0010282D02*
X0082573Y0010282D01*
X0082266Y0010590D02*
X0080796Y0011199D01*
X0079204Y0011199D01*
X0077734Y0010590D01*
X0076609Y0009465D01*
X0076000Y0007995D01*
X0076000Y0006403D01*
X0076609Y0004933D01*
X0077734Y0003808D01*
X0079204Y0003199D01*
X0080796Y0003199D01*
X0082266Y0003808D01*
X0083391Y0004933D01*
X0084000Y0006403D01*
X0084000Y0007995D01*
X0083391Y0009465D01*
X0082266Y0010590D01*
X0083372Y0009484D02*
X0088275Y0009484D01*
X0088275Y0008685D02*
X0083714Y0008685D01*
X0084000Y0007887D02*
X0088275Y0007887D01*
X0088275Y0007088D02*
X0084000Y0007088D01*
X0083953Y0006290D02*
X0088275Y0006290D01*
X0088275Y0005491D02*
X0083622Y0005491D01*
X0083151Y0004693D02*
X0088275Y0004693D01*
X0088275Y0003894D02*
X0082352Y0003894D01*
X0077648Y0003894D02*
X0072352Y0003894D01*
X0073151Y0004693D02*
X0076849Y0004693D01*
X0076378Y0005491D02*
X0073622Y0005491D01*
X0073953Y0006290D02*
X0076047Y0006290D01*
X0076000Y0007088D02*
X0074000Y0007088D01*
X0074000Y0007887D02*
X0076000Y0007887D01*
X0076286Y0008685D02*
X0073714Y0008685D01*
X0073372Y0009484D02*
X0076628Y0009484D01*
X0077427Y0010282D02*
X0072573Y0010282D01*
X0074745Y0011081D02*
X0078920Y0011081D01*
X0079600Y0013477D02*
X0080400Y0013477D01*
X0080400Y0014275D02*
X0079600Y0014275D01*
X0079600Y0015074D02*
X0080400Y0015074D01*
X0080400Y0015872D02*
X0079600Y0015872D01*
X0079600Y0016671D02*
X0080400Y0016671D01*
X0078054Y0013477D02*
X0076800Y0013477D01*
X0076800Y0014275D02*
X0076984Y0014275D01*
X0073600Y0019066D02*
X0073556Y0019066D01*
X0073600Y0019865D02*
X0072991Y0019865D01*
X0073600Y0020663D02*
X0072089Y0020663D01*
X0073600Y0021462D02*
X0079049Y0026910D01*
X0079049Y0027850D02*
X0072400Y0027850D01*
X0073689Y0028648D02*
X0077766Y0028648D01*
X0076968Y0029447D02*
X0074487Y0029447D01*
X0074946Y0030245D02*
X0076509Y0030245D01*
X0076178Y0031044D02*
X0075277Y0031044D01*
X0075406Y0031842D02*
X0076049Y0031842D01*
X0076049Y0032641D02*
X0075406Y0032641D01*
X0075301Y0033439D02*
X0076154Y0033439D01*
X0076484Y0034238D02*
X0074971Y0034238D01*
X0074547Y0035036D02*
X0076908Y0035036D01*
X0077707Y0035835D02*
X0073748Y0035835D01*
X0072296Y0036633D02*
X0079159Y0036633D01*
X0082377Y0020663D02*
X0088275Y0020663D01*
X0088275Y0019865D02*
X0083255Y0019865D01*
X0083762Y0019066D02*
X0088275Y0019066D01*
X0088275Y0018268D02*
X0084069Y0018268D01*
X0088275Y0003096D02*
X0003100Y0003096D01*
X0003100Y0003894D02*
X0057648Y0003894D01*
X0056849Y0004693D02*
X0003100Y0004693D01*
X0003100Y0005491D02*
X0035484Y0005491D01*
X0034627Y0006290D02*
X0003100Y0006290D01*
X0003100Y0007088D02*
X0034183Y0007088D01*
X0033919Y0007887D02*
X0003100Y0007887D01*
X0003100Y0008685D02*
X0033919Y0008685D01*
X0034090Y0009484D02*
X0003100Y0009484D01*
X0003100Y0010282D02*
X0017154Y0010282D01*
X0016405Y0011081D02*
X0003100Y0011081D01*
X0003100Y0011880D02*
X0015646Y0011880D01*
X0014986Y0012678D02*
X0003100Y0012678D01*
X0003100Y0013477D02*
X0015001Y0013477D01*
X0015005Y0014275D02*
X0003100Y0014275D01*
X0003100Y0015074D02*
X0015009Y0015074D01*
X0015012Y0015872D02*
X0003100Y0015872D01*
X0003100Y0016671D02*
X0015016Y0016671D01*
X0015020Y0017469D02*
X0003100Y0017469D01*
X0003100Y0018268D02*
X0015023Y0018268D01*
X0015027Y0019066D02*
X0003100Y0019066D01*
X0003100Y0019865D02*
X0015031Y0019865D01*
X0015034Y0020663D02*
X0003100Y0020663D01*
X0003100Y0021462D02*
X0015038Y0021462D01*
X0015042Y0022260D02*
X0003100Y0022260D01*
X0003100Y0023059D02*
X0015045Y0023059D01*
X0015049Y0023857D02*
X0003100Y0023857D01*
X0003100Y0024656D02*
X0015053Y0024656D01*
X0015056Y0025454D02*
X0003100Y0025454D01*
X0003100Y0026253D02*
X0015060Y0026253D01*
X0015064Y0027051D02*
X0003100Y0027051D01*
X0003100Y0027850D02*
X0010405Y0027850D01*
X0008869Y0028648D02*
X0003100Y0028648D01*
X0003100Y0029447D02*
X0008070Y0029447D01*
X0007611Y0030245D02*
X0003100Y0030245D01*
X0003100Y0031044D02*
X0007281Y0031044D01*
X0007151Y0031842D02*
X0003100Y0031842D01*
X0003100Y0032641D02*
X0007151Y0032641D01*
X0007256Y0033439D02*
X0003100Y0033439D01*
X0003100Y0034238D02*
X0007587Y0034238D01*
X0008011Y0035036D02*
X0003100Y0035036D01*
X0003100Y0035835D02*
X0008809Y0035835D01*
X0008770Y0037432D02*
X0003100Y0037432D01*
X0003100Y0038230D02*
X0008500Y0038230D01*
X0008500Y0039029D02*
X0003100Y0039029D01*
X0003100Y0039827D02*
X0008500Y0039827D01*
X0008500Y0040626D02*
X0003100Y0040626D01*
X0003100Y0041424D02*
X0008500Y0041424D01*
X0008500Y0042223D02*
X0003100Y0042223D01*
X0003100Y0043021D02*
X0008500Y0043021D01*
X0008500Y0043820D02*
X0003100Y0043820D01*
X0003100Y0044618D02*
X0008500Y0044618D01*
X0008500Y0045417D02*
X0003100Y0045417D01*
X0003100Y0046215D02*
X0008500Y0046215D01*
X0008818Y0047014D02*
X0003100Y0047014D01*
X0003100Y0047813D02*
X0009400Y0047813D01*
X0009400Y0048611D02*
X0003100Y0048611D01*
X0003100Y0049410D02*
X0009400Y0049410D01*
X0009400Y0050208D02*
X0003100Y0050208D01*
X0003100Y0051007D02*
X0009400Y0051007D01*
X0009400Y0051805D02*
X0003100Y0051805D01*
X0003100Y0052604D02*
X0010042Y0052604D01*
X0010841Y0053402D02*
X0003100Y0053402D01*
X0003100Y0054201D02*
X0011639Y0054201D01*
X0012600Y0052899D02*
X0011000Y0051299D01*
X0011000Y0042199D01*
X0011200Y0042399D01*
X0013500Y0042223D02*
X0013500Y0042223D01*
X0013500Y0043021D02*
X0013500Y0043021D01*
X0013500Y0043820D02*
X0013500Y0043820D01*
X0013500Y0044618D02*
X0013500Y0044618D01*
X0013500Y0045417D02*
X0013500Y0045417D01*
X0013500Y0046215D02*
X0013500Y0046215D01*
X0013182Y0047014D02*
X0013818Y0047014D01*
X0014400Y0047813D02*
X0012600Y0047813D01*
X0012600Y0048611D02*
X0014400Y0048611D01*
X0014400Y0049410D02*
X0012600Y0049410D01*
X0012600Y0050208D02*
X0014400Y0050208D01*
X0014845Y0051007D02*
X0012970Y0051007D01*
X0012600Y0052899D02*
X0015600Y0052899D01*
X0016800Y0054099D01*
X0016800Y0059899D01*
X0014523Y0057395D02*
X0003100Y0057395D01*
X0003100Y0058193D02*
X0013847Y0058193D01*
X0013516Y0058992D02*
X0003100Y0058992D01*
X0003100Y0059790D02*
X0013419Y0059790D01*
X0013426Y0060589D02*
X0003100Y0060589D01*
X0003100Y0061387D02*
X0011130Y0061387D01*
X0010333Y0062186D02*
X0003100Y0062186D01*
X0003100Y0062984D02*
X0010002Y0062984D01*
X0009819Y0063783D02*
X0003100Y0063783D01*
X0003100Y0064581D02*
X0009819Y0064581D01*
X0009400Y0065380D02*
X0003100Y0065380D01*
X0003100Y0066178D02*
X0009364Y0066178D01*
X0009400Y0066977D02*
X0003100Y0066977D01*
X0003100Y0067775D02*
X0009400Y0067775D01*
X0009400Y0068574D02*
X0003100Y0068574D01*
X0003100Y0069372D02*
X0009400Y0069372D01*
X0009400Y0070171D02*
X0003100Y0070171D01*
X0003100Y0070969D02*
X0009400Y0070969D01*
X0009400Y0071768D02*
X0003100Y0071768D01*
X0003100Y0072566D02*
X0009400Y0072566D01*
X0009400Y0073365D02*
X0003100Y0073365D01*
X0003100Y0074163D02*
X0009400Y0074163D01*
X0009400Y0074962D02*
X0003100Y0074962D01*
X0003100Y0075760D02*
X0009400Y0075760D01*
X0009400Y0076559D02*
X0003100Y0076559D01*
X0003100Y0077357D02*
X0008500Y0077357D01*
X0008500Y0078156D02*
X0003100Y0078156D01*
X0003100Y0078954D02*
X0008500Y0078954D01*
X0008500Y0079753D02*
X0003100Y0079753D01*
X0003100Y0080551D02*
X0008500Y0080551D01*
X0008500Y0081350D02*
X0003100Y0081350D01*
X0003100Y0082148D02*
X0008500Y0082148D01*
X0008500Y0082947D02*
X0003100Y0082947D01*
X0003100Y0083746D02*
X0008500Y0083746D01*
X0008500Y0084544D02*
X0003100Y0084544D01*
X0003100Y0085343D02*
X0008500Y0085343D01*
X0008500Y0086141D02*
X0003100Y0086141D01*
X0003100Y0086940D02*
X0009144Y0086940D01*
X0008834Y0087738D02*
X0003100Y0087738D01*
X0003100Y0088537D02*
X0008036Y0088537D01*
X0007597Y0089335D02*
X0003100Y0089335D01*
X0003100Y0090134D02*
X0007266Y0090134D01*
X0007151Y0090932D02*
X0003100Y0090932D01*
X0003100Y0091731D02*
X0007151Y0091731D01*
X0007270Y0092529D02*
X0003100Y0092529D01*
X0003100Y0093328D02*
X0007601Y0093328D01*
X0008046Y0094126D02*
X0003100Y0094126D01*
X0003100Y0094925D02*
X0008844Y0094925D01*
X0010346Y0095723D02*
X0003100Y0095723D01*
X0003100Y0096522D02*
X0016360Y0096522D01*
X0017159Y0097320D02*
X0003100Y0097320D01*
X0013157Y0095723D02*
X0015562Y0095723D01*
X0015200Y0094925D02*
X0014658Y0094925D01*
X0021594Y0091326D02*
X0021821Y0091099D01*
X0024000Y0091099D01*
X0031000Y0084099D01*
X0031000Y0081799D01*
X0028500Y0082148D02*
X0028500Y0082148D01*
X0028500Y0081350D02*
X0028500Y0081350D01*
X0028500Y0080551D02*
X0028500Y0080551D01*
X0028500Y0079753D02*
X0028500Y0079753D01*
X0028500Y0078954D02*
X0028500Y0078954D01*
X0028500Y0078156D02*
X0028500Y0078156D01*
X0028500Y0077357D02*
X0028500Y0077357D01*
X0028500Y0077302D02*
X0028500Y0084336D01*
X0028500Y0084336D01*
X0028500Y0077302D01*
X0026000Y0081799D02*
X0026000Y0055299D01*
X0021000Y0051099D02*
X0017200Y0051099D01*
X0016000Y0049899D01*
X0016000Y0042199D01*
X0018500Y0042223D02*
X0018500Y0042223D01*
X0018500Y0043021D02*
X0018500Y0043021D01*
X0018500Y0043820D02*
X0018500Y0043820D01*
X0018500Y0044618D02*
X0018500Y0044618D01*
X0018500Y0045417D02*
X0018500Y0045417D01*
X0018500Y0046215D02*
X0018500Y0046215D01*
X0018500Y0046696D02*
X0018500Y0038962D01*
X0018500Y0038962D01*
X0018500Y0046696D01*
X0018182Y0047014D02*
X0018818Y0047014D01*
X0017600Y0047813D02*
X0034500Y0047813D01*
X0034500Y0048611D02*
X0017600Y0048611D01*
X0017773Y0049410D02*
X0034500Y0049410D01*
X0033818Y0047014D02*
X0033182Y0047014D01*
X0033500Y0046696D02*
X0033500Y0037702D01*
X0032797Y0036999D01*
X0030663Y0036999D01*
X0030535Y0036871D01*
X0032351Y0036871D01*
X0034042Y0036171D01*
X0034726Y0035487D01*
X0036237Y0036999D01*
X0034203Y0036999D01*
X0033500Y0037702D01*
X0033500Y0046696D01*
X0033500Y0046215D02*
X0033500Y0046215D01*
X0033500Y0045417D02*
X0033500Y0045417D01*
X0033500Y0044618D02*
X0033500Y0044618D01*
X0033500Y0043820D02*
X0033500Y0043820D01*
X0033500Y0043021D02*
X0033500Y0043021D01*
X0033500Y0042223D02*
X0033500Y0042223D01*
X0033500Y0041424D02*
X0033500Y0041424D01*
X0033500Y0040626D02*
X0033500Y0040626D01*
X0033500Y0039827D02*
X0033500Y0039827D01*
X0033500Y0039029D02*
X0033500Y0039029D01*
X0033500Y0038230D02*
X0033500Y0038230D01*
X0033230Y0037432D02*
X0033770Y0037432D01*
X0032926Y0036633D02*
X0035872Y0036633D01*
X0035073Y0035835D02*
X0034378Y0035835D01*
X0031500Y0039099D02*
X0031200Y0040199D01*
X0030500Y0039099D01*
X0026500Y0035099D01*
X0026500Y0023599D01*
X0028000Y0022099D01*
X0030900Y0022299D01*
X0030500Y0021799D01*
X0023500Y0017399D02*
X0021600Y0018699D01*
X0021600Y0032265D01*
X0021594Y0032271D01*
X0024900Y0035470D02*
X0024199Y0036171D01*
X0022509Y0036871D01*
X0020935Y0036871D01*
X0021063Y0036999D01*
X0022797Y0036999D01*
X0023418Y0037620D01*
X0023580Y0037339D01*
X0023840Y0037079D01*
X0024160Y0036894D01*
X0024516Y0036799D01*
X0025750Y0036799D01*
X0025750Y0041949D01*
X0026250Y0041949D01*
X0026250Y0037112D01*
X0024900Y0035762D01*
X0024900Y0035470D01*
X0024973Y0035835D02*
X0024536Y0035835D01*
X0025772Y0036633D02*
X0023083Y0036633D01*
X0023230Y0037432D02*
X0023526Y0037432D01*
X0021000Y0039199D02*
X0016700Y0034899D01*
X0016600Y0013199D01*
X0018500Y0011199D01*
X0035700Y0011199D01*
X0037300Y0009599D01*
X0037300Y0008399D01*
X0039973Y0006290D02*
X0056047Y0006290D01*
X0056000Y0007088D02*
X0040417Y0007088D01*
X0040681Y0007887D02*
X0056000Y0007887D01*
X0056286Y0008685D02*
X0040681Y0008685D01*
X0040510Y0009484D02*
X0056628Y0009484D01*
X0057427Y0010282D02*
X0040179Y0010282D01*
X0039116Y0005491D02*
X0056378Y0005491D01*
X0062352Y0003894D02*
X0067648Y0003894D01*
X0066849Y0004693D02*
X0063151Y0004693D01*
X0063622Y0005491D02*
X0066378Y0005491D01*
X0066047Y0006290D02*
X0063953Y0006290D01*
X0064000Y0007088D02*
X0066000Y0007088D01*
X0066000Y0007887D02*
X0064000Y0007887D01*
X0063714Y0008685D02*
X0066286Y0008685D01*
X0066628Y0009484D02*
X0063372Y0009484D01*
X0062573Y0010282D02*
X0067427Y0010282D01*
X0063770Y0037432D02*
X0063230Y0037432D01*
X0063500Y0038230D02*
X0063500Y0038230D01*
X0063500Y0039029D02*
X0063500Y0039029D01*
X0063500Y0039827D02*
X0063500Y0039827D01*
X0063500Y0040626D02*
X0063500Y0040626D01*
X0063500Y0041424D02*
X0063500Y0041424D01*
X0066000Y0042199D02*
X0066000Y0049099D01*
X0067700Y0050799D01*
X0063438Y0054999D02*
X0061400Y0054999D01*
X0061400Y0054201D02*
X0062639Y0054201D01*
X0061841Y0053402D02*
X0061400Y0053402D01*
X0079600Y0064999D02*
X0080900Y0066299D01*
X0080900Y0083199D01*
X0079400Y0084699D01*
X0077000Y0084699D01*
X0039599Y0071768D02*
X0038413Y0071768D01*
X0038100Y0072799D02*
X0033900Y0072799D01*
X0036100Y0069299D02*
X0036100Y0041199D01*
X0036000Y0042199D01*
X0031000Y0042199D02*
X0031500Y0039099D01*
X0026250Y0039029D02*
X0025750Y0039029D01*
X0025750Y0039827D02*
X0026250Y0039827D01*
X0026250Y0040626D02*
X0025750Y0040626D01*
X0025750Y0041424D02*
X0026250Y0041424D01*
X0026000Y0042199D02*
X0024300Y0043899D01*
X0024300Y0046999D01*
X0025800Y0048499D01*
X0029900Y0048499D01*
X0031700Y0050299D01*
X0031700Y0070599D01*
X0036000Y0078399D02*
X0036000Y0081799D01*
X0028500Y0082947D02*
X0028500Y0082947D01*
X0028500Y0083746D02*
X0028500Y0083746D01*
X0019700Y0074799D02*
X0017500Y0074799D01*
X0015500Y0072799D01*
X0015500Y0068999D01*
X0013200Y0064099D02*
X0011000Y0065899D01*
X0011000Y0081799D01*
X0015200Y0056596D02*
X0003100Y0056596D01*
X0003100Y0055798D02*
X0015200Y0055798D01*
X0015200Y0054999D02*
X0003100Y0054999D01*
X0013500Y0041424D02*
X0013500Y0041424D01*
X0013500Y0040626D02*
X0013500Y0040626D01*
X0013500Y0039827D02*
X0013500Y0039827D01*
X0013500Y0039029D02*
X0013500Y0039029D01*
X0013500Y0038230D02*
X0013500Y0038230D01*
X0013230Y0037432D02*
X0013770Y0037432D01*
X0013241Y0036633D02*
X0016172Y0036633D01*
X0015371Y0035835D02*
X0014693Y0035835D01*
X0018500Y0039029D02*
X0018500Y0039029D01*
X0018500Y0039827D02*
X0018500Y0039827D01*
X0018500Y0040626D02*
X0018500Y0040626D01*
X0018500Y0041424D02*
X0018500Y0041424D01*
X0021000Y0042199D02*
X0021000Y0039199D01*
X0025750Y0038230D02*
X0026250Y0038230D01*
X0026250Y0037432D02*
X0025750Y0037432D01*
X0025750Y0043021D02*
X0026250Y0043021D01*
X0026250Y0043820D02*
X0025750Y0043820D01*
X0025750Y0044618D02*
X0026250Y0044618D01*
X0026250Y0045417D02*
X0025750Y0045417D01*
X0025750Y0046215D02*
X0026250Y0046215D01*
X0026250Y0047014D02*
X0025750Y0047014D01*
X0023554Y0047014D02*
X0023182Y0047014D01*
X0028446Y0047014D02*
X0028818Y0047014D01*
X0015071Y0028648D02*
X0014634Y0028648D01*
X0015068Y0027850D02*
X0013097Y0027850D01*
X0010262Y0036633D02*
X0003100Y0036633D01*
D19*
X0016800Y0059899D03*
X0013200Y0064099D03*
X0015500Y0068999D03*
X0022300Y0070899D03*
X0029500Y0073999D03*
X0036100Y0069299D03*
X0042500Y0073599D03*
X0041600Y0052899D03*
X0049700Y0053199D03*
X0057100Y0056099D03*
X0068900Y0059099D03*
X0079100Y0056199D03*
X0070800Y0081799D03*
X0056600Y0073699D03*
X0056000Y0097799D03*
X0055800Y0111699D03*
X0066100Y0107999D03*
X0026000Y0055299D03*
X0040300Y0024799D03*
X0043600Y0019199D03*
X0037300Y0008399D03*
X0030500Y0021799D03*
X0023500Y0017399D03*
X0052400Y0020999D03*
D20*
X0063800Y0101299D03*
M02*
