G75*
%MOIN*%
%OFA0B0*%
%FSLAX25Y25*%
%IPPOS*%
%LPD*%
%AMOC8*
5,1,8,0,0,1.08239X$1,22.5*
%
%ADD10R,0.04737X0.18910*%
%ADD11R,0.07099X0.13398*%
%ADD12R,0.04343X0.03556*%
%ADD13C,0.06400*%
%ADD14C,0.07600*%
%ADD15R,0.03400X0.08800*%
%ADD16C,0.13461*%
%ADD17C,0.01200*%
%ADD18C,0.05162*%
D10*
X0041650Y0105732D03*
X0049524Y0105732D03*
D11*
X0058973Y0126204D03*
X0032201Y0126204D03*
D12*
X0074200Y0070158D03*
X0074200Y0065040D03*
D13*
X0070000Y0017199D03*
X0070000Y0007199D03*
X0060000Y0007199D03*
X0060000Y0017199D03*
X0080000Y0017199D03*
X0080000Y0007199D03*
D14*
X0011751Y0032271D03*
X0021594Y0032271D03*
X0031436Y0032271D03*
X0041279Y0032271D03*
X0051121Y0032271D03*
X0060964Y0032271D03*
X0070806Y0032271D03*
X0080649Y0032271D03*
X0080649Y0091326D03*
X0070806Y0091326D03*
X0060964Y0091326D03*
X0051121Y0091326D03*
X0041279Y0091326D03*
X0031436Y0091326D03*
X0021594Y0091326D03*
X0011751Y0091326D03*
D15*
X0011000Y0081799D03*
X0016000Y0081799D03*
X0021000Y0081799D03*
X0026000Y0081799D03*
X0031000Y0081799D03*
X0036000Y0081799D03*
X0041000Y0081799D03*
X0046000Y0081799D03*
X0051000Y0081799D03*
X0056000Y0081799D03*
X0061000Y0081799D03*
X0066000Y0081799D03*
X0066000Y0042199D03*
X0061000Y0042199D03*
X0056000Y0042199D03*
X0051000Y0042199D03*
X0046000Y0042199D03*
X0041000Y0042199D03*
X0036000Y0042199D03*
X0031000Y0042199D03*
X0026000Y0042199D03*
X0021000Y0042199D03*
X0016000Y0042199D03*
X0011000Y0042199D03*
D16*
X0011000Y0124699D03*
X0080300Y0124799D03*
D17*
X0085910Y0119189D02*
X0084962Y0118376D01*
X0083901Y0117718D01*
X0082753Y0117228D01*
X0081543Y0116919D01*
X0080300Y0116799D01*
X0079038Y0116870D01*
X0077804Y0117144D01*
X0076631Y0117614D01*
X0075549Y0118266D01*
X0074586Y0119085D01*
X0073767Y0120048D01*
X0073115Y0121130D01*
X0072645Y0122303D01*
X0072371Y0123537D01*
X0072300Y0124799D01*
X0071800Y0132799D01*
X0088800Y0132799D01*
X0088300Y0124799D01*
X0088179Y0123556D01*
X0087871Y0122346D01*
X0087381Y0121198D01*
X0086723Y0120137D01*
X0085910Y0119189D01*
X0085634Y0118953D02*
X0074741Y0118953D01*
X0073705Y0120151D02*
X0086732Y0120151D01*
X0087446Y0121350D02*
X0073027Y0121350D01*
X0072591Y0122548D02*
X0087922Y0122548D01*
X0088198Y0123747D02*
X0072360Y0123747D01*
X0072291Y0124946D02*
X0088309Y0124946D01*
X0088384Y0126144D02*
X0072216Y0126144D01*
X0072141Y0127343D02*
X0088459Y0127343D01*
X0088534Y0128541D02*
X0072066Y0128541D01*
X0071991Y0129740D02*
X0088609Y0129740D01*
X0088684Y0130938D02*
X0071916Y0130938D01*
X0071841Y0132137D02*
X0088759Y0132137D01*
X0083961Y0117754D02*
X0076398Y0117754D01*
X0019000Y0124699D02*
X0019500Y0132699D01*
X0002500Y0132699D01*
X0003000Y0124699D01*
X0003071Y0123437D01*
X0003345Y0122203D01*
X0003815Y0121030D01*
X0004467Y0119948D01*
X0005286Y0118985D01*
X0006249Y0118166D01*
X0007331Y0117514D01*
X0008504Y0117044D01*
X0009738Y0116770D01*
X0011000Y0116699D01*
X0012243Y0116819D01*
X0013453Y0117128D01*
X0014601Y0117618D01*
X0015662Y0118276D01*
X0016610Y0119089D01*
X0017423Y0120037D01*
X0018081Y0121098D01*
X0018571Y0122246D01*
X0018879Y0123456D01*
X0019000Y0124699D01*
X0019015Y0124946D02*
X0002985Y0124946D01*
X0002910Y0126144D02*
X0019090Y0126144D01*
X0019165Y0127343D02*
X0002835Y0127343D01*
X0002760Y0128541D02*
X0019240Y0128541D01*
X0019315Y0129740D02*
X0002685Y0129740D01*
X0002610Y0130938D02*
X0019390Y0130938D01*
X0019465Y0132137D02*
X0002535Y0132137D01*
X0003054Y0123747D02*
X0018908Y0123747D01*
X0018648Y0122548D02*
X0003269Y0122548D01*
X0003687Y0121350D02*
X0018189Y0121350D01*
X0017494Y0120151D02*
X0004344Y0120151D01*
X0005323Y0118953D02*
X0016451Y0118953D01*
X0014822Y0117754D02*
X0006932Y0117754D01*
D18*
X0029500Y0073999D03*
X0036100Y0069299D03*
X0042500Y0073599D03*
X0041600Y0052899D03*
X0049700Y0053199D03*
X0057100Y0056099D03*
X0068900Y0059099D03*
X0079100Y0056199D03*
X0070800Y0081799D03*
X0056600Y0073699D03*
X0056000Y0097799D03*
X0055800Y0111699D03*
X0066100Y0107999D03*
X0026000Y0055299D03*
X0016800Y0059899D03*
X0013200Y0064099D03*
X0015500Y0068999D03*
X0022300Y0070899D03*
X0040300Y0024799D03*
X0043600Y0019199D03*
X0037300Y0008399D03*
X0030500Y0021799D03*
X0023500Y0017399D03*
X0052400Y0020999D03*
M02*
