%
M48
M72
T01C0.02000
T02C0.02362
T03C0.03200
T04C0.08661
%
T01
X63800Y101299
T02
X66100Y107999
X55800Y111699
X56000Y97799
X70800Y81799
X56600Y73699
X57100Y56099
X49700Y53199
X41600Y52899
X36100Y69299
X42500Y73599
X29500Y73999
X22300Y70899
X15500Y68999
X13200Y64099
X16800Y59899
X26000Y55299
X40300Y24799
X43600Y19199
X37300Y8399
X30500Y21799
X23500Y17399
X52400Y20999
X68900Y59099
X79100Y56199
T03
X11751Y32271
X21594Y32271
X31436Y32271
X41279Y32271
X51121Y32271
X60964Y32271
X70806Y32271
X80649Y32271
X80000Y17199
X80000Y7199
X70000Y7199
X70000Y17199
X60000Y17199
X60000Y7199
X60964Y91326
X70806Y91326
X80649Y91326
X51121Y91326
X41279Y91326
X31436Y91326
X21594Y91326
X11751Y91326
T04
X11000Y124699
X80300Y124799
M30
